<?xml version="1.0" encoding="UTF-8"?>
<svg id="Layer_2" data-name="Layer 2" xmlns="http://www.w3.org/2000/svg" viewBox="0 0 357.49 150.88">
  <defs>
    <style>
      .cls-1 {
        fill: #ff000a;
      }
    </style>
  </defs>
  <g id="Layer_1-2" data-name="Layer 1">
    <g>
      <path class="cls-1" d="M117.01,0H51.83c-14.31,0-27.27,5.81-36.65,15.18C5.81,24.56,0,37.52,0,51.83c0,28.62,23.21,51.83,51.83,51.83h63.8l-36.98,47.22h32.21l48.36-68.99.18-.26c5.95-8.42,9.43-18.71,9.43-29.8,0-28.62-23.2-51.83-51.82-51.83ZM132.93,73.05c-5.07,5.07-12.09,8.21-19.83,8.21h-58.93c-15.5,0-28.05-12.57-28.05-28.06,0-7.75,3.14-14.76,8.21-19.83,5.07-5.07,12.09-8.21,19.83-8.21h58.93c15.5,0,28.06,12.55,28.06,28.05,0,7.75-3.14,14.76-8.23,19.85Z"/>
      <path class="cls-1" d="M305.68,0h-65.18c-14.31,0-27.27,5.81-36.65,15.18-9.37,9.38-15.18,22.34-15.18,36.65,0,28.62,23.21,51.83,51.83,51.83h63.8l-36.98,47.22h32.21l48.36-68.99.18-.26c5.95-8.42,9.43-18.71,9.43-29.8,0-28.62-23.2-51.83-51.82-51.83ZM321.59,73.05c-5.07,5.07-12.09,8.21-19.83,8.21h-58.93c-15.5,0-28.05-12.57-28.05-28.06,0-7.75,3.14-14.76,8.21-19.83,5.07-5.07,12.09-8.21,19.83-8.21h58.93c15.5,0,28.06,12.55,28.06,28.05,0,7.75-3.14,14.76-8.23,19.85Z"/>
    </g>
  </g>
</svg>