<?xml version="1.0" encoding="UTF-8"?>
<svg id="Layer_2" data-name="Layer 2" xmlns="http://www.w3.org/2000/svg" viewBox="0 0 588.9 243.71">
  <defs>
    <style>
      .cls-1 {
        fill: #fff;
      }
    </style>
  </defs>
  <g id="Layer_1-2" data-name="Layer 1">
    <g>
      <g>
        <path class="cls-1" d="M500.87,75.28h-20.79v-14.45h-.03c.17-22.54-16.62-38.03-39.34-37.69h-53.79v26.11h47.78c8.36,0,13.06,3.22,13.06,11.58v11.49h-62.89v26.2h95.2v-11.74l8.97,11.65h43.97s0-82.45,0-82.45h-32.15v59.3Z"/>
        <rect class="cls-1" x="550.03" y="15.98" width="32.15" height="82.46"/>
        <polygon class="cls-1" points="338.5 75.31 164.8 75.31 164.8 23.13 132.65 23.13 132.65 103.36 122.8 103.36 107.27 123.48 111.2 126.49 146.83 126.49 164.8 103.36 164.8 103.36 164.8 86.76 173.82 98.44 370.66 98.44 370.66 23.13 338.5 23.13 338.5 75.31"/>
        <rect class="cls-1" x="67.77" width="32.15" height="15.66"/>
        <rect class="cls-1" x="27.5" width="32.15" height="15.66"/>
        <path class="cls-1" d="M112.65,23.14H39.27C16.63,22.83-.19,38.27,0,60.79c-.19,22.4,16.62,37.96,39.27,37.65h73.39V23.14ZM80.5,72.31h-35.22c-8.34,0-13.06-3.23-13.06-11.52s4.73-11.52,13.06-11.52h35.22v23.03Z"/>
        <rect class="cls-1" x="338.5" y="105.92" width="32.15" height="15.66"/>
        <rect class="cls-1" x="298.23" y="105.92" width="32.15" height="15.66"/>
      </g>
      <g>
        <path class="cls-1" d="M73.38,161.25c22.64-.31,39.45,18.72,39.27,41.23.19,22.4-16.63,41.54-39.27,41.23H0v-82.46h73.38ZM67.38,187.39h-35.22v30.19h35.22c8.34,0,13.06-6.81,13.06-15.1s-4.73-15.09-13.06-15.09Z"/>
        <path class="cls-1" d="M122.11,161.25h96.51v21.11h-64.36v10.55h64.36v19.08h-64.36v10.56h64.36v21.16h-96.51v-82.46Z"/>
        <path class="cls-1" d="M235.64,161.25h96.51v21.11h-64.36v10.55h64.36v19.08h-64.36v10.56h64.36v21.16h-96.51v-82.46Z"/>
        <path class="cls-1" d="M428.62,161.19c16.99-.18,31.41,14.11,31.17,31.17,0,6.2-1.66,11.84-4.97,16.88-3.26,4.97-7.61,8.77-13,11.29l17.98,23.13h-34.24l-15.53-20.13h-28.71v20.13h-32.15v-82.46h79.46ZM381.31,185.3v14.05h39.21c1.96,0,3.62-.68,4.97-2.02,1.41-1.41,2.08-3.07,2.08-4.97,0-3.93-3.13-7.05-7.05-7.05h-39.21Z"/>
        <path class="cls-1" d="M506.44,161.25h38.22l44.24,82.46h-36.2l-6.5-14.11h-41.29l-6.51,14.11h-36.2l44.24-82.46ZM514.23,209.47h22.64l-11.3-24.36-11.35,24.36Z"/>
      </g>
    </g>
  </g>
</svg>