<?xml version="1.0" encoding="UTF-8"?>
<svg id="Layer_2" data-name="Layer 2" xmlns="http://www.w3.org/2000/svg" viewBox="0 0 162.57 205.52">
  <defs>
    <style>
      .cls-1 {
        fill: #e0bf7d;
      }
    </style>
  </defs>
  <g id="Layer_1-2" data-name="Layer 1">
    <g>
      <path class="cls-1" d="M70.21,84.19h0c0,3.96,3.2,7.16,7.16,7.16h-7.16v-7.16Z"/>
      <path class="cls-1" d="M70.21,108.93h0c0-3.96,3.2-7.16,7.16-7.16h-7.16v7.16"/>
      <path class="cls-1" d="M94.54,84.19h0c0,3.96-3.2,7.16-7.16,7.16h7.16v-7.16Z"/>
      <path class="cls-1" d="M94.54,108.93h0c0-3.96-3.2-7.16-7.16-7.16h7.16v7.16"/>
      <path class="cls-1" d="M127.77,84.19h0c0,3.96-3.2,7.16-7.16,7.16h7.16v-7.16Z"/>
      <path class="cls-1" d="M127.77,108.93h0c0-3.96-3.2-7.16-7.16-7.16h7.16v7.16"/>
      <path class="cls-1" d="M34.77,84.19h0c0,3.96,3.2,7.16,7.16,7.16h-7.16v-7.16Z"/>
      <path class="cls-1" d="M34.77,108.93h0c0-3.96,3.2-7.16,7.16-7.16h-7.16v7.16"/>
      <rect class="cls-1" x="30.55" y="91.35" width="103.91" height="10.42"/>
      <path class="cls-1" d="M142.52,89.1v14.91c0-3.96,3.2-7.16,7.16-7.16v-.59c-3.96,0-7.16-3.2-7.16-7.16"/>
      <path class="cls-1" d="M20.02,89.1v14.91c0-3.96-3.2-7.16-7.16-7.16v-.59c3.96,0,7.16-3.2,7.16-7.16"/>
      <path class="cls-1" d="M34.77,63.85v72.98c0,12.04-5.42,23.43-14.75,31.04V63.85h14.75Z"/>
      <path class="cls-1" d="M34.8,40.56v26.64h-14.73v-3.32c0-6.39-6.65,0-6.65,0l-.82-1.07,22.19-22.25Z"/>
      <path class="cls-1" d="M127.77,63.85v72.98c0,12.04,5.42,23.43,14.75,31.04V63.85h-14.75Z"/>
      <path class="cls-1" d="M149.96,62.82l-.88,1.07s-6.58-6.39-6.58,0v3.32h-14.73v-26.58l22.19,22.19Z"/>
      <rect class="cls-1" x="1.43" y="93.11" width="6.89" height="6.89" transform="translate(-66.85 31.73) rotate(-45)"/>
      <rect class="cls-1" x="154.26" y="93.11" width="6.89" height="6.89" transform="translate(-22.09 139.8) rotate(-45)"/>
      <path class="cls-1" d="M70.21,24.51v132.4h-23.57V39.37c-3.13-1-5.83-2.7-8.53-5.77l14.23-21.38s7.77,9.59,17.87,12.29"/>
      <path class="cls-1" d="M124.46,156.37v1.82l-29.92,24.2V27.13c-3.16-.97-5.84-2.68-8.51-5.72L100.25,0s7.79,9.61,17.89,12.29v135.2c0,8.15,6.32,8.88,6.32,8.88"/>
      <path class="cls-1" d="M46.64,152.79l5.07,2.07-.29,18.8-4.81.16c-.97-10.17-6.31-15.4-6.31-15.4,5.01-.98,6.12-3.92,6.33-5.64"/>
      <path class="cls-1" d="M76.46,169.19c-3.17,6.66-7.69,4.12-7.69,4.12l1.54-19.16c0,12.93,6.15,15.05,6.15,15.05"/>
      <path class="cls-1" d="M70.39,156.05c1.56,32.49-19.61,45.37-39.52,49.47l-.51-2.21s14.28-.83,15.83-19.94c.75-9.16.68-21.46.49-32.2h23.51c.09,1.56.09,3.12.19,4.88"/>
    </g>
  </g>
</svg>