<?xml version="1.0" encoding="UTF-8"?>
<svg id="Layer_2" data-name="Layer 2" xmlns="http://www.w3.org/2000/svg" viewBox="0 0 226.9 186.16">
  <defs>
    <style>
      .cls-1 {
        fill: #f4f5f7;
      }
    </style>
  </defs>
  <g id="Layer_1-2" data-name="Layer 1">
    <path class="cls-1" d="M224.59,66.72c-2.28-1.22-4.58-.88-6.74-.35-.05.01-.1.03-.15.05l-27.9,9.64s0-.01,0-.02c0-.02,0-.05,0-.07,0-.02,0-.05,0-.07,0-.02,0-.05,0-.07,0-.02,0-.05,0-.07,0-.02,0-.05,0-.07,0-.02,0-.05,0-.07,0-.02,0-.05,0-.07,0-.02,0-.05,0-.07,0-.02,0-.05,0-.07,0-.02,0-.05,0-.07,0-.02,0-.05,0-.07,0-.02,0-.05,0-.07,0-.02,0-.05,0-.07,0-.02,0-.05,0-.07,0-.02,0-.05,0-.07,0-.02,0-.05,0-.07,0-.02,0-.05,0-.07,0-.02,0-.05,0-.07,0-.02,0-.05,0-.07,0-.02,0-.05,0-.07,0-.02,0-.05,0-.07,0-.02,0-.05,0-.07,0-.02,0-.05,0-.07,0-.02,0-.05,0-.07,0-.02,0-.05,0-.07,0-.02,0-.05,0-.07,0-.02,0-.05,0-.07,0-.02,0-.05,0-.07,0-.02,0-.05,0-.07,0-.02,0-.05,0-.07,0-.02,0-.05,0-.07,0-.02,0-.05,0-.07,0-.02,0-.05,0-.07,0-.02,0-.05,0-.07,0-.02,0-.05,0-.07,0-.02,0-.05,0-.07,0-.02,0-.05,0-.07,0-.02,0-.05,0-.07,0-.02,0-.05,0-.07,0-.02,0-.05,0-.07,0-.02,0-.05,0-.07,0-.02,0-.05,0-.07,0-.02,0-.05,0-.07,0-.02,0-.05,0-.07,0-.02,0-.05,0-.07,0-.02,0-.05,0-.07,0-.02,0-.05,0-.07,0-.02,0-.05,0-.07,0-.02,0-.05,0-.07,0-.02,0-.05,0-.07,0-.02,0-.05,0-.07,0-.02,0-.05,0-.07,0-.02,0-.05,0-.07,0-.02,0-.05,0-.07,0-.02,0-.05,0-.07,0-.02,0-.05,0-.07,0-.02,0-.05,0-.07,0-.02,0-.05,0-.07,0-.02,0-.05,0-.07,0-.02,0-.05,0-.07,0-.02,0-.05,0-.07,0-.02,0-.05,0-.07,0-.02,0-.05,0-.07,0-.02,0-.05,0-.07,0-.02,0-.05,0-.07,0-.02,0-.05,0-.07,0-.02,0-.05,0-.07,0-.02,0-.05,0-.07,0-.02,0-.05,0-.07,0-.02,0-.05,0-.07,0-.02,0-.05,0-.07,0-.02,0-.05,0-.07,0-.02,0-.05,0-.07,0-.02,0-.05,0-.07,0-.02,0-.05,0-.07,0-.02,0-.05,0-.07,0-.02,0-.05,0-.07,0-.02,0-.05,0-.07,0-.02,0-.05,0-.07,0-.02,0-.05,0-.07,0-.02,0-.05,0-.07,0-.02,0-.05,0-.07,0-.02,0-.05,0-.07,0-.02,0-.05,0-.07,0-.02,0-.05,0-.07,0-.02,0-.05,0-.07,0-.02,0-.05,0-.07,0-.02,0-.05,0-.07,0-.02,0-.05,0-.07,0-.02,0-.05,0-.07,0-.02,0-.05,0-.07,0-.02,0-.05,0-.07,0-.02,0-.05,0-.07,0-.02,0-.05,0-.07,0-.02,0-.05,0-.07,0-.02,0-.05,0-.07,0-.02,0-.05,0-.07,0-.02,0-.05,0-.07,0-.02,0-.05,0-.07,0-.02,0-.05,0-.07,0-.02,0-.05,0-.07,0-.02,0-.05,0-.07,0-.02,0-.05,0-.07,0-.02,0-.05,0-.07,0-.02,0-.05,0-.07,0-.02,0-.05,0-.07,0-.02,0-.05,0-.07,0-.02,0-.05,0-.07,0-.02,0-.05,0-.07,0-.02,0-.05,0-.07,0-.02,0-.05,0-.07,0-.02,0-.05,0-.07,0-.02,0-.05,0-.07,0-.02,0-.05,0-.07,0-.02,0-.05,0-.07,0-.02,0-.05,0-.07,0-.02,0-.05,0-.07,0-.02,0-.05,0-.07,0-.02,0-.05,0-.07,0-.02,0-.05,0-.07,0-.02,0-.05,0-.07,0-.02,0-.05,0-.07,0-.02,0-.05,0-.07,0-.02,0-.05,0-.07,0-.02,0-.05,0-.07,0-.02,0-.05,0-.07,0-.02,0-.05,0-.07,0-.02,0-.05,0-.07,0-.02,0-.05,0-.07,0-.02,0-.05,0-.07,0-.02,0-.05,0-.07,0-.02,0-.05,0-.07,0-.02,0-.05,0-.07,0-.02,0-.05,0-.07,0-.02,0-.05,0-.07,0-.02,0-.05,0-.07,0-.02,0-.05,0-.07,0-.02,0-.05,0-.07,0-.02,0-.05,0-.07,0-.02,0-.05,0-.07,0-.02,0-.05,0-.07,0-.02,0-.05,0-.07,0-.02,0-.05,0-.07,0-.02,0-.05,0-.07,0-.02,0-.05,0-.07,0-.02,0-.05,0-.07,0-.02,0-.05,0-.07,0-.02,0-.05,0-.07,0-.02,0-.05,0-.07,0-.02,0-.05,0-.07,0-.02,0-.05,0-.07,0-.02,0-.05,0-.07,0-.02,0-.05,0-.07,0-.02,0-.05,0-.07,0-.02,0-.05,0-.07,0-.02,0-.05,0-.07,0-.02,0-.05,0-.07,0-.02,0-.05,0-.07,0-.02,0-.05,0-.07,0-.02,0-.05,0-.07,0-.02,0-.05,0-.07,0-.02,0-.05,0-.07,0-.02,0-.05,0-.07,0-.02,0-.05,0-.07,0-.02,0-.05,0-.07,0-.02,0-.05,0-.07,0-.02,0-.05,0-.07,0-.02,0-.05,0-.07,0-.02,0-.05,0-.07,0-.02,0-.05,0-.07,0-.02,0-.05,0-.07,0-.02,0-.05,0-.07,0-.02,0-.05,0-.07,0-.02,0-.05,0-.07,0-.02,0-.05,0-.07,0-.02,0-.05,0-.07,0-.02,0-.05,0-.07,0-.02,0-.05,0-.07,0-.02,0-.05,0-.07,0-.02,0-.05,0-.07,0-.02,0-.05,0-.07,0-.02,0-.05,0-.07,0-.02,0-.05,0-.07,0-.02,0-.05,0-.07,0-.02,0-.05,0-.07,0-.02,0-.05,0-.07,0-.02,0-.05,0-.07,0-.02,0-.05,0-.07,0-.02,0-.05,0-.07,0-.02,0-.05,0-.07,0-.02,0-.05,0-.07,0-.02,0-.05,0-.07,0-.02,0-.05,0-.07,0-.02,0-.05,0-.07,0-.02,0-.05,0-.07,0-.02,0-.05,0-.07,0-.02,0-.05,0-.07,0-.02,0-.05,0-.07,0-.02,0-.05,0-.07,0-.02,0-.05,0-.07,0-.02,0-.05,0-.07,0-.02,0-.05,0-.07,0-.02,0-.05,0-.07,0-.02,0-.05,0-.07,0-.02,0-.05,0-.07,0-.02,0-.05,0-.07,0-.02,0-.05,0-.07,0-.02,0-.05,0-.07,0-.02,0-.05,0-.07,0-.02,0-.05,0-.07,0-.02,0-.05,0-.07,0-.02,0-.05,0-.07,0-.02,0-.05,0-.07,0-.02,0-.05,0-.07,0-.02,0-.05,0-.07,0-.02,0-.05,0-.07,0-.02,0-.05,0-.07,0-.02,0-.05,0-.07,0-.02,0-.05,0-.07,0-.02,0-.05,0-.07,0-.02,0-.05,0-.07,0-.02,0-.05,0-.07,0-.02,0-.05,0-.07,0-.02,0-.05,0-.07,0-.02,0-.05,0-.07,0-.02,0-.05,0-.07,0-.02,0-.05,0-.07,0-.02,0-.05,0-.07,0-.02,0-.05,0-.07,0-.02,0-.05,0-.07,0-.02,0-.05,0-.07,0-.02,0-.05,0-.07,0-.02,0-.05,0-.07,0-.02,0-.05,0-.07,0-.02,0-.05,0-.07,0-.02,0-.05,0-.07,0-.02,0-.05,0-.07,0-.02,0-.05,0-.07,0-.02,0-.05,0-.07,0-.02,0-.05,0-.07,0-.02,0-.05,0-.07,0-.02,0-.05,0-.07,0-.02,0-.05,0-.07,0-.02,0-.05,0-.07,0-.02,0-.05,0-.07,0-.02,0-.05,0-.07,0-.02,0-.05,0-.07,0-.02,0-.05,0-.07,0-.02,0-.05,0-.07,0-.02,0-.05,0-.07,0-.02,0-.05,0-.07,0-.02,0-.05,0-.07,0-.02,0-.05,0-.07,0-.02,0-.05,0-.07,0-.02,0-.05,0-.07,0-.02,0-.05,0-.07,0-.02,0-.05,0-.07,0-.02,0-.05,0-.07,0-.02,0-.05,0-.07,0-.02,0-.05,0-.07,0-.02,0-.05,0-.07,0-.02,0-.05,0-.07,0-.02,0-.05,0-.07,0-.02,0-.05,0-.07,0-.02,0-.05,0-.07,0-.02,0-.05,0-.07,0-.02,0-.05,0-.07,0-.02,0-.05,0-.07,0-.02,0-.05,0-.07,0-.02,0-.05,0-.07,0-.02,0-.05,0-.07,0-.02,0-.05,0-.07,0-.02,0-.05,0-.07,0-.02,0-.05,0-.07,0-.02,0-.05,0-.07,0-.02,0-.05,0-.07,0-.02,0-.05,0-.07,0-.02,0-.05,0-.07,0-.02,0-.05,0-.07,0-.02,0-.05,0-.07,0-.02,0-.05,0-.07,0-.02,0-.05,0-.07,0-.02,0-.05,0-.07,0-.02,0-.05,0-.07,0-.02,0-.05,0-.07,0-.02,0-.05,0-.07,0-.02,0-.05,0-.07,0-.02,0-.05,0-.07,0-.02,0-.05,0-.07,0-.02,0-.05,0-.07,0-.02,0-.05,0-.07,0-.02,0-.05,0-.07,0-.02,0-.05,0-.07,0-.02,0-.05,0-.07,0-.02,0-.05,0-.07,0-.02,0-.05,0-.07,0-.02,0-.05,0-.07,0-.02,0-.05,0-.07,0-.02,0-.05,0-.07,0-.02,0-.05,0-.07,0-.02,0-.05,0-.07,0-.02,0-.05,0-.07,0-.02,0-.05,0-.07,0-.02,0-.05,0-.07,0-.02,0-.05,0-.07,0-.02,0-.05,0-.07,0-.02,0-.05,0-.07,0-.02,0-.05,0-.07,0-.02,0-.05,0-.07,0-.02,0-.05,0-.07,0-.02,0-.05,0-.07,0-.02,0-.05,0-.07,0-.02,0-.05,0-.07,0-.02,0-.05,0-.07,0-.02,0-.05,0-.07,0-.02,0-.05,0-.07,0-.02,0-.05,0-.07,0-.02,0-.05,0-.07,0-.02,0-.05,0-.07,0-.02,0-.05,0-.07,0-.02,0-.05,0-.07,0-.02,0-.05,0-.07,0-.02,0-.05,0-.07,0-.02,0-.05,0-.07,0-.02,0-.05,0-.07,0-.02,0-.05,0-.07,0-.02,0-.05,0-.07,0-.02,0-.05,0-.07,0-.02,0-.05,0-.07,0-.02,0-.05,0-.07,0-.02,0-.05,0-.07,0-.02,0-.05,0-.07,0-.02,0-.05,0-.07,0-.02,0-.05,0-.07,0-.02,0-.05,0-.07,0-.02,0-.05,0-.07,0-.02,0-.05,0-.07,0-.02,0-.05,0-.07,0-.02,0-.05,0-.07,0-.02,0-.05,0-.07,0-.02,0-.05,0-.07,0-.02,0-.05,0-.07,0-.02,0-.05,0-.07,0-.02,0-.05,0-.07,0-.02,0-.05,0-.07,0-.02,0-.05,0-.07,0-.02,0-.05,0-.07,0-.02,0-.05,0-.07,0-.02,0-.05,0-.07,0-.02,0-.05,0-.07,0-.02,0-.05,0-.07,0-.02,0-.05,0-.07,0-.02,0-.05,0-.07,0-.02,0-.05,0-.07,0-.02,0-.05,0-.07,0-.02,0-.05,0-.07,0-.02,0-.05,0-.07,0-.02,0-.05,0-.07,0-.02,0-.05,0-.07,0-.02,0-.05,0-.07,0-.02,0-.05,0-.07,0-.02,0-.05,0-.07,0-.02,0-.05,0-.07,0-.02,0-.05,0-.07,0-.02,0-.05,0-.07,0-.02,0-.05,0-.07,0-.02,0-.05,0-.07,0-.02,0-.05,0-.07,0-.02,0-.05,0-.07,0-.02,0-.05,0-.07,0-.02,0-.05,0-.07,0-.02,0-.05,0-.07,0-.02,0-.05,0-.07,0-.02,0-.05,0-.07,0-.02,0-.05,0-.07,0-.02,0-.05,0-.07,0-.02,0-.05,0-.07,0-.02,0-.05,0-.07,0-.02,0-.05,0-.07,0-.02,0-.05,0-.07,0-.02,0-.05,0-.07,0-.02,0-.05,0-.07,0-.02,0-.05,0-.07,0-.02,0-.05,0-.07,0-.02,0-.05,0-.07,0-.02,0-.05,0-.07,0-.02,0-.05,0-.07,0-.02,0-.05,0-.07,0-.02,0-.05,0-.07,0-.02,0-.05,0-.07,0-.02,0-.05,0-.07,0-.02,0-.05,0-.07,0-.02,0-.05,0-.07,0-.02,0-.05,0-.07,0-.02,0-.05,0-.07,0-.02,0-.05,0-.07,0-.02,0-.05,0-.07,0-.02,0-.05,0-.07,0-.02,0-.05,0-.07,0-.02,0-.05,0-.07,0-.02,0-.05,0-.07,0-.02,0-.05,0-.07,0-.02,0-.05,0-.07,0-.02,0-.05,0-.07,0-.02,0-.05,0-.07,0-.02,0-.05,0-.07,0-.02,0-.05,0-.07,0-.02,0-.05,0-.07,0-.02,0-.05,0-.07,0-.02,0-.05,0-.07,0-.02,0-.05,0-.07,0-.02,0-.05,0-.07,0-.02,0-.05,0-.07,0-.02,0-.05,0-.07,0-.02,0-.05,0-.07,0-.02,0-.05,0-.07,0-.02,0-.05,0-.07,0-.02,0-.05,0-.07,0-.02,0-.05,0-.07,0-.02,0-.05,0-.07,0-.02,0-.05,0-.07,0-.02,0-.05,0-.07,0-.02,0-.05,0-.07,0-.02,0-.05,0-.07,0-.02,0-.05,0-.07,0-.02,0-.05,0-.07,0-.02,0-.05,0-.07,0-.02,0-.05,0-.07,0-.02,0-.05,0-.07,0-.02,0-.05,0-.07,0-.02,0-.05,0-.07,0-.02,0-.05,0-.07,0-.02,0-.05,0-.07,0-.02,0-.05,0-.07,0-.02,0-.05,0-.07,0-.02,0-.05,0-.07,0-.02,0-.05,0-.07,0-.02,0-.05,0-.07,0-.02,0-.05,0-.07,0-.12,0-.25-.03-.37-.24-1.3-.94-2.33-2.04-2.99-2.52-1.53-6.41-.57-8.02-.07l-27.52,9.45V16.77c0-.32-.03-.62-.11-.92-.64-2.47-3.25-3.5-5.28-3.63-2.55-.17-4.96.61-7.33,2.37-.81.6-1.58,1.32-2.43,2.26l-1.71,1.9V4.64c0-.07,0-.15,0-.21-.03-.44-.14-.83-.31-1.2-1.47-3.04-5.28-3.76-8.11-2.9-1.73.53-3.06,1.11-4.76,2.06L55.86,39.92c-3.86,2.19-9.19,3.36-13.4,4.14-6.62,1.22-19.04-5.29-25.71-8.8-3.3-1.73-4.93-2.57-5.97-2.82-3.96-.94-7.73,1.28-9.74,3.45-.62.67-.99,1.54-1.03,2.39,0,.05,0,.12,0,.18,0,.03,0,.07,0,.1v.05s0,.07,0,.1v.04s0,.07,0,.1v.05s0,.07,0,.1v.04s0,.07,0,.1v.05s0,.07,0,.1v.04s0,.07,0,.1v.05s0,.07,0,.1v.04s0,.07,0,.1v.05s0,.07,0,.1v.04s0,.07,0,.1v.05s0,.07,0,.1v.04s0,.07,0,.1v.05s0,.07,0,.1v.04s0,.07,0,.1v.05s0,.07,0,.1v.04s0,.07,0,.1v.05s0,.07,0,.1v.04s0,.07,0,.1v.05s0,.07,0,.1v.04s0,.07,0,.1v.04s0,.07,0,.1v.05s0,.07,0,.1v.04s0,.07,0,.1v.05s0,.07,0,.1v.04s0,.07,0,.1v.05s0,.07,0,.1v.04s0,.07,0,.1v.05s0,.07,0,.1v.04s0,.07,0,.1v.05s0,.07,0,.1v.04s0,.07,0,.1v.05s0,.07,0,.1v.04s0,.07,0,.1v.05s0,.07,0,.1v.04s0,.07,0,.1v.05s0,.07,0,.1v.04s0,.07,0,.1v.05s0,.07,0,.1v.04s0,.07,0,.1v.05s0,.07,0,.1v.04s0,.07,0,.1v.05s0,.07,0,.1v.04s0,.07,0,.1v.05s0,.07,0,.1v.04s0,.07,0,.1v.05s0,.07,0,.1v.04s0,.07,0,.1v.05s0,.07,0,.1v.04s0,.07,0,.1v.05s0,.07,0,.1v.04s0,.07,0,.1v.04s0,.07,0,.1v.04s0,.07,0,.1v.04s0,.07,0,.1v.05s0,.07,0,.1v.04s0,.07,0,.1v.05s0,.07,0,.1v.04s0,.07,0,.1v.05s0,.07,0,.1v.04s0,.07,0,.1v.05s0,.07,0,.1v.04s0,.07,0,.1v.05s0,.07,0,.1v.04s0,.07,0,.1v.05s0,.07,0,.1v.04s0,.07,0,.1v.05s0,.07,0,.1v.04s0,.07,0,.1v.05s0,.07,0,.1v.04s0,.07,0,.1v.05s0,.07,0,.1v.04s0,.07,0,.1v.05s0,.07,0,.1v.04s0,.07,0,.1v.05s0,.07,0,.1v.04s0,.07,0,.1v.05s0,.07,0,.1v.04s0,.07,0,.1v.05s0,.07,0,.1v.04s0,.07,0,.1v.05s0,.07,0,.1v.04s0,.07,0,.1v.05s0,.07,0,.1v.04s0,.07,0,.1v.04s0,.07,0,.1v.04s0,.07,0,.1v.04s0,.07,0,.1v.05s0,.07,0,.1v.04s0,.07,0,.1v.05s0,.07,0,.1v.04s0,.07,0,.1v.05s0,.07,0,.1v.04s0,.07,0,.1v.05s0,.07,0,.1v.04s0,.07,0,.1v.05s0,.07,0,.1v.04s0,.07,0,.1v.05s0,.07,0,.1v.04s0,.07,0,.1v.05s0,.07,0,.1v.04s0,.07,0,.1v.05s0,.07,0,.1v.04s0,.07,0,.1v.05s0,.07,0,.1v.04s0,.07,0,.1v.05s0,.07,0,.1v.04s0,.07,0,.1v.05s0,.07,0,.1v.04s0,.07,0,.1v.05s0,.07,0,.1v.04s0,.07,0,.1v.05s0,.07,0,.1v.04s0,.07,0,.1v.05s0,.07,0,.1v.04s0,.07,0,.1v.05s0,.07,0,.1v.04s0,.07,0,.1v.04s0,.07,0,.1v.04s0,.07,0,.1v.04s0,.07,0,.1v.05s0,.07,0,.1v.04s0,.07,0,.1v.05s0,.07,0,.1v.04s0,.07,0,.1v.05s0,.07,0,.1v.04s0,.07,0,.1v.05s0,.07,0,.1v.04s0,.07,0,.1v.05s0,.07,0,.1v.04s0,.07,0,.1v.05s0,.07,0,.1v.04s0,.07,0,.1v.05s0,.07,0,.1v.04s0,.07,0,.1v.05s0,.07,0,.1v.04s0,.07,0,.1v.05s0,.07,0,.1v.04s0,.07,0,.1v.05s0,.07,0,.1v.04s0,.07,0,.1v.05s0,.07,0,.1v.04s0,.07,0,.1v.05s0,.07,0,.1v.04s0,.07,0,.1v.05s0,.07,0,.1v.04s0,.07,0,.1v.05s0,.07,0,.1v.04s0,.07,0,.1v.05s0,.07,0,.1v.04s0,.07,0,.1v.04s0,.07,0,.1v.04s0,.07,0,.1v.04s0,.07,0,.1v.05s0,.07,0,.1v.04s0,.07,0,.1v.05s0,.07,0,.1v.04s0,.07,0,.1v.05s0,.07,0,.1v.04s0,.07,0,.1v.05s0,.07,0,.1v.04s0,.07,0,.1v.05s0,.07,0,.1v.04s0,.07,0,.1v.05s0,.07,0,.1v.04s0,.07,0,.1v.05s0,.07,0,.1v.04s0,.07,0,.1v.05s0,.07,0,.1v.04s0,.07,0,.1v.05s0,.07,0,.1v.04s0,.07,0,.1v.05s0,.07,0,.1v.04s0,.07,0,.1v.05s0,.07,0,.1v.04s0,.07,0,.1v.05s0,.07,0,.1v.04s0,.07,0,.1v.05s0,.07,0,.1v.04s0,.07,0,.1v.05s0,.07,0,.1v.04s0,.07,0,.1v.05s0,.07,0,.1v.04s0,.07,0,.1v.04s0,.07,0,.1v.04s0,.07,0,.1v.04s0,.07,0,.1v.05s0,.07,0,.1v.04s0,.07,0,.1v.05s0,.07,0,.1v.04s0,.07,0,.1v.05s0,.07,0,.1v.04s0,.07,0,.1v.05s0,.07,0,.1v.04s0,.07,0,.1v.05s0,.07,0,.1v.04s0,.07,0,.1v.05s0,.07,0,.1v.04s0,.07,0,.1v.05s0,.07,0,.1v.04s0,.07,0,.1v.05s0,.07,0,.1v.04s0,.07,0,.1v.05s0,.07,0,.1v.04s0,.07,0,.1v.05s0,.07,0,.1v.04s0,.07,0,.1v.05s0,.07,0,.1v.04s0,.07,0,.1v.05s0,.07,0,.1v.04s0,.07,0,.1v.05s0,.07,0,.1v.04s0,.07,0,.1v.05s0,.07,0,.1v.04s0,.07,0,.1v.05s0,.07,0,.1v.04s0,.07,0,.1v.04s0,.07,0,.1v.04s0,.07,0,.1v.04s0,.07,0,.1v.05s0,.07,0,.1v.04s0,.07,0,.1v.05s0,.07,0,.1v.04s0,.07,0,.1v.05s0,.07,0,.1v.04s0,.07,0,.1v.05s0,.07,0,.1v.04s0,.07,0,.1v.05s0,.07,0,.1v.04s0,.07,0,.1v.05s0,.07,0,.1v.04s0,.07,0,.1v.05s0,.07,0,.1v.04s0,.07,0,.1v.05s0,.07,0,.1v.04s0,.07,0,.1v.05s0,.07,0,.1v.04s0,.07,0,.1v.05s0,.07,0,.1v.04s0,.07,0,.1v.05s0,.07,0,.1v.04s0,.07,0,.1v.05s0,.07,0,.1v.04s0,.07,0,.1v.05s0,.07,0,.1v.04s0,.07,0,.1v.05s0,.07,0,.1v.04s0,.07,0,.1v.05s0,.07,0,.1v.04s0,.07,0,.1v.04s0,.07,0,.1v.04s0,.07,0,.1v.04s0,.07,0,.1v.05s0,.07,0,.1v.04s0,.07,0,.1v.05s0,.07,0,.1v.04s0,.07,0,.1v.05s0,.07,0,.1v.04s0,.07,0,.1v.05s0,.07,0,.1v.04s0,.07,0,.1v.05s0,.07,0,.1v.04s0,.07,0,.1v.05s0,.07,0,.1v.04s0,.07,0,.1v.05s0,.07,0,.1v.04s0,.07,0,.1v.05s0,.07,0,.1v.04s0,.07,0,.1v.05s0,.07,0,.1v.04s0,.07,0,.1v.05s0,.07,0,.1v.04s0,.07,0,.1v.05s0,.07,0,.1v.04s0,.07,0,.1v.05s0,.07,0,.1v.04s0,.07,0,.1v.05s0,.07,0,.1v.04s0,.07,0,.1v.05s0,.07,0,.1v.04s0,.07,0,.1v.05s0,.07,0,.1v.04s0,.07,0,.1v.04s0,.07,0,.1v.04s0,.07,0,.1v.04s0,.07,0,.1v.05s0,.07,0,.1v.04s0,.07,0,.1v.05s0,.07,0,.1v.04s0,.07,0,.1v.05s0,.07,0,.1v.04s0,.07,0,.1v.05s0,.07,0,.1v.04s0,.07,0,.1v.05s0,.07,0,.1v.04s0,.07,0,.1v.05s0,.07,0,.1v.04s0,.07,0,.1v.05s0,.07,0,.1v.04s0,.07,0,.1v.05s0,.07,0,.1v.04s0,.07,0,.1v.05s0,.07,0,.1v.04s0,.07,0,.1v.05s0,.07,0,.1v.04s0,.07,0,.1v.05s0,.07,0,.1v.04s0,.07,0,.1v.05s0,.07,0,.1v.04s0,.07,0,.1v.05s0,.07,0,.1v.04s0,.07,0,.1v.05s0,.07,0,.1v.04s0,.07,0,.1v.05s0,.07,0,.1v.05s0,.07,0,.1v.04s0,.07,0,.1v.04s0,.07,0,.1v.04s0,.07,0,.1v.05s0,.07,0,.1v.04s0,.07,0,.1v.05s0,.07,0,.1v.04s0,.07,0,.1v.05s0,.07,0,.1v.04s0,.07,0,.1v.05s0,.07,0,.1v.04s0,.07,0,.1v.05s0,.07,0,.1v.04s0,.07,0,.1v.05s0,.07,0,.1v.04s0,.07,0,.1v.05s0,.07,0,.1v.04s0,.07,0,.1v.05s0,.07,0,.1v.04s0,.07,0,.1v.05s0,.07,0,.1v.04s0,.07,0,.1v.05s0,.07,0,.1v.04s0,.07,0,.1v.05s0,.07,0,.1v.04s0,.07,0,.1v.05s0,.07,0,.1v.04s0,.07,0,.1v.05s0,.07,0,.1v.04s0,.07,0,.1v.05s0,.07,0,.1v.04s0,.07,0,.1v.05s0,.07,0,.1v.05s0,.07,0,.1v.04s0,.07,0,.1v.04s0,.07,0,.1v.04s0,.07,0,.1v.05s0,.07,0,.1v.04s0,.07,0,.1v.05s0,.07,0,.1v.04s0,.07,0,.1v.05s0,.07,0,.1v.04s0,.07,0,.1v.05s0,.07,0,.1v.04s0,.07,0,.1v.05s0,.07,0,.1v.04s0,.07,0,.1v.05s0,.07,0,.1v.04s0,.07,0,.1v.05s0,.07,0,.1v.04s0,.07,0,.1v.05s0,.07,0,.1v.04s0,.07,0,.1v.05s0,.07,0,.1v.04s0,.07,0,.1v.05s0,.07,0,.1v.04s0,.07,0,.1v.05s0,.07,0,.1v.04s0,.07,0,.1v.05s0,.07,0,.1v.04s0,.07,0,.1v.05s0,.07,0,.1v.04s0,.07,0,.1v.05s0,.07,0,.1v.04s0,.07,0,.1v.05s0,.07,0,.1v.05s0,.07,0,.1v.04s0,.07,0,.1v.05s0,.07,0,.1v.04s0,.07,0,.1v.05s0,.07,0,.1v.04s0,.07,0,.1v.05s0,.07,0,.1v.04s0,.07,0,.1v.05s0,.07,0,.1v.04s0,.07,0,.1v.05s0,.07,0,.1v.04s0,.07,0,.1v.05s0,.07,0,.1v.04s0,.07,0,.1v.05s0,.07,0,.1v.04s0,.07,0,.1v.05s0,.07,0,.1v.04s0,.07,0,.1v.05s0,.07,0,.1v.04s0,.07,0,.1v.05s0,.07,0,.1v.04s0,.07,0,.1v.05s0,.07,0,.1v.04s0,.07,0,.1v.05s0,.07,0,.1v.04s0,.07,0,.1v.05s0,.07,0,.1v.04s0,.07,0,.1v.05s0,.07,0,.1v.04s0,.07,0,.1v.05s0,.07,0,.1v.04s0,.07,0,.1v.05s0,.07,0,.1v.05s0,.07,0,.1v.04s0,.07,0,.1v.05s0,.07,0,.1v.04s0,.07,0,.1v.05s0,.07,0,.1v.04s0,.07,0,.1v.05s0,.07,0,.1v.04s0,.07,0,.1v.05s0,.07,0,.1v.04s0,.07,0,.1v.05s0,.07,0,.1v.04s0,.07,0,.1v.05s0,.07,0,.1v.04s0,.07,0,.1v.05s0,.07,0,.1v.04s0,.07,0,.1v.05s0,.07,0,.1v.04s0,.07,0,.1v.05s0,.07,0,.1v.04s0,.07,0,.1v.05s0,.07,0,.1v.04s0,.07,0,.1v.05s0,.07,0,.1v.04s0,.07,0,.1v.05s0,.07,0,.1v.04s0,.07,0,.1v.05s0,.07,0,.1v.04s0,.07,0,.1v.05s0,.07,0,.1v.04s0,.07,0,.1v.05s0,.07,0,.1v.04s0,.07,0,.1v.05s0,.07,0,.1v.05s0,.07,0,.1v.04s0,.07,0,.1v.05s0,.07,0,.1v.04s0,.07,0,.1v.05s0,.07,0,.1v.04s0,.07,0,.1v.05s0,.07,0,.1v.04s0,.07,0,.1v.05s0,.07,0,.1v.04s0,.07,0,.1v.05s0,.07,0,.1v.04s0,.07,0,.1v.05s0,.07,0,.1v.04s0,.07,0,.1v.05s0,.07,0,.1v.04s0,.07,0,.1v.05s0,.07,0,.1v.04s0,.07,0,.1v.05s0,.07,0,.1v.04s0,.07,0,.1v.05s0,.07,0,.1v.04s0,.07,0,.1v.05s0,.07,0,.1v.04s0,.07,0,.1v.05s0,.07,0,.1v.04s0,.07,0,.1v.05s0,.07,0,.1v.04s0,.07,0,.1v.05s0,.07,0,.1v.04s0,.07,0,.1v.05s0,.07,0,.1v.04s0,.07,0,.1v.05s0,.07,0,.1v.05s0,.07,0,.1v.04s0,.07,0,.1v.05s0,.07,0,.1v.04s0,.07,0,.1v.05s0,.07,0,.1v.04s0,.07,0,.1v.05s0,.07,0,.1v.04s0,.07,0,.1v.05s0,.07,0,.1v.04s0,.07,0,.1v.05s0,.07,0,.1v.04s0,.07,0,.1v.05s0,.07,0,.1v.04s0,.07,0,.1v.05s0,.07,0,.1v.04s0,.07,0,.1v.05s0,.07,0,.1v.04s0,.07,0,.1v.05s0,.07,0,.1H0c-.08,1.43.65,2.78,1.9,3.46l.99.55c2.02,1.12,4.11,2.27,6.45,3.13,1.74.64,3.41,1.33,5.03,2,6.6,2.73,13.42,5.56,25.44,4.99,7.67-.37,15.4-2.09,22.96-5.12l4.66-1.87v36.12c0,.44.07.86.2,1.26.23.73.8,1.75,2.2,2.43,2.28,1.12,5.91.85,8.15.04l27.97-9.63v32.01c-.01.32,0,.61.07.89.49,2.4,3.06,3.62,5.23,3.74.25.01.49.02.73.02,2.07,0,3.92-.48,6.14-1.25l103.96-35.84c1.69-.58,3.07-1.61,4.12-3.07.42-.58.65-1.22.68-1.89h0c0-.05,0-.11,0-.16,0-.03,0-.05,0-.07,0-.03,0-.05,0-.07,0-.03,0-.05,0-.07,0-.03,0-.05,0-.07,0-.03,0-.05,0-.07,0-.03,0-.05,0-.07,0-.03,0-.05,0-.07,0-.03,0-.05,0-.07,0-.03,0-.05,0-.07,0-.03,0-.05,0-.07,0-.03,0-.05,0-.07,0-.03,0-.05,0-.07,0-.03,0-.05,0-.07,0-.03,0-.05,0-.07,0-.03,0-.05,0-.07,0-.03,0-.05,0-.07,0-.03,0-.05,0-.07,0-.03,0-.05,0-.07,0-.03,0-.05,0-.07,0-.03,0-.05,0-.07,0-.03,0-.05,0-.07,0-.03,0-.05,0-.07,0-.03,0-.05,0-.07,0-.03,0-.05,0-.07,0-.03,0-.05,0-.07,0-.03,0-.05,0-.07,0-.03,0-.05,0-.07,0-.03,0-.05,0-.07,0-.03,0-.05,0-.07,0-.03,0-.05,0-.07,0-.03,0-.05,0-.07,0-.03,0-.05,0-.07,0-.03,0-.05,0-.07,0-.03,0-.05,0-.07,0-.03,0-.05,0-.07,0-.03,0-.05,0-.07,0-.03,0-.05,0-.07,0-.03,0-.05,0-.07,0-.03,0-.05,0-.07,0-.03,0-.05,0-.07,0-.03,0-.05,0-.07,0-.03,0-.05,0-.07,0-.03,0-.05,0-.07,0-.03,0-.05,0-.07,0-.03,0-.05,0-.07,0-.03,0-.05,0-.07,0-.03,0-.05,0-.07,0-.03,0-.05,0-.07,0-.03,0-.05,0-.07,0-.03,0-.05,0-.07,0-.03,0-.05,0-.07,0-.03,0-.05,0-.07,0-.03,0-.05,0-.07,0-.03,0-.05,0-.07,0-.03,0-.05,0-.07,0-.03,0-.05,0-.07,0-.03,0-.05,0-.07,0-.03,0-.05,0-.07,0-.03,0-.05,0-.07,0-.03,0-.05,0-.07,0-.03,0-.05,0-.07,0-.03,0-.05,0-.07,0-.03,0-.05,0-.07,0-.03,0-.05,0-.07,0-.03,0-.05,0-.07,0-.03,0-.05,0-.07,0-.03,0-.05,0-.07,0-.03,0-.05,0-.07,0-.03,0-.05,0-.07,0-.03,0-.05,0-.07,0-.03,0-.05,0-.07,0-.03,0-.05,0-.07,0-.03,0-.05,0-.07,0-.03,0-.05,0-.07,0-.03,0-.05,0-.07,0-.03,0-.05,0-.07,0-.03,0-.05,0-.07,0-.03,0-.05,0-.07,0-.03,0-.05,0-.07,0-.03,0-.05,0-.07,0-.03,0-.05,0-.07,0-.03,0-.05,0-.07,0-.03,0-.05,0-.07,0-.03,0-.05,0-.07,0-.03,0-.05,0-.07,0-.03,0-.05,0-.07,0-.03,0-.05,0-.07,0-.03,0-.05,0-.07,0-.03,0-.05,0-.07,0-.03,0-.05,0-.07,0-.03,0-.05,0-.07,0-.03,0-.05,0-.07,0-.03,0-.05,0-.07,0-.03,0-.05,0-.07,0-.03,0-.05,0-.07,0-.03,0-.05,0-.07,0-.03,0-.05,0-.07,0-.03,0-.05,0-.07,0-.03,0-.05,0-.07,0-.03,0-.05,0-.07,0-.03,0-.05,0-.07,0-.03,0-.05,0-.07,0-.03,0-.05,0-.07,0-.03,0-.05,0-.07,0-.03,0-.05,0-.07,0-.03,0-.05,0-.07,0-.03,0-.05,0-.07,0-.03,0-.05,0-.07,0-.03,0-.05,0-.07,0-.03,0-.05,0-.07,0-.03,0-.05,0-.07,0-.03,0-.05,0-.07,0-.03,0-.05,0-.07,0-.03,0-.05,0-.07,0-.03,0-.05,0-.07,0-.03,0-.05,0-.07,0-.03,0-.05,0-.07,0-.03,0-.05,0-.07,0-.03,0-.05,0-.07,0-.03,0-.05,0-.07,0-.03,0-.05,0-.07,0-.03,0-.05,0-.07,0-.03,0-.05,0-.07,0-.03,0-.05,0-.07,0-.03,0-.05,0-.07,0-.03,0-.05,0-.07,0-.03,0-.05,0-.07,0-.03,0-.05,0-.07,0-.03,0-.05,0-.07,0-.03,0-.05,0-.07,0-.03,0-.05,0-.07,0-.03,0-.05,0-.07,0-.03,0-.05,0-.07,0-.03,0-.05,0-.07,0-.03,0-.05,0-.07,0-.03,0-.05,0-.07,0-.03,0-.05,0-.07,0-.03,0-.05,0-.07,0-.03,0-.05,0-.07,0-.03,0-.05,0-.07,0-.03,0-.05,0-.07,0-.03,0-.05,0-.07,0-.03,0-.05,0-.07,0-.03,0-.05,0-.07,0-.03,0-.05,0-.07,0-.03,0-.05,0-.07,0-.03,0-.05,0-.07,0-.03,0-.05,0-.07,0-.03,0-.05,0-.07,0-.03,0-.05,0-.07,0-.03,0-.05,0-.07,0-.03,0-.05,0-.07,0-.03,0-.05,0-.07,0-.03,0-.05,0-.07,0-.03,0-.05,0-.07,0-.03,0-.05,0-.07,0-.03,0-.05,0-.07,0-.03,0-.05,0-.07,0-.03,0-.05,0-.07,0-.03,0-.05,0-.07,0-.03,0-.05,0-.07,0-.03,0-.05,0-.07,0-.03,0-.05,0-.07,0-.03,0-.05,0-.07,0-.03,0-.05,0-.07,0-.03,0-.05,0-.07,0-.03,0-.05,0-.07,0-.03,0-.05,0-.07,0-.03,0-.05,0-.07,0-.03,0-.05,0-.07,0-.03,0-.05,0-.07,0-.03,0-.05,0-.07,0-.03,0-.05,0-.07,0-.03,0-.05,0-.07,0-.03,0-.05,0-.07,0-.03,0-.05,0-.07,0-.03,0-.05,0-.07,0-.03,0-.05,0-.07,0-.03,0-.05,0-.07,0-.03,0-.05,0-.07,0-.03,0-.05,0-.07,0-.03,0-.05,0-.07,0-.03,0-.05,0-.07,0-.03,0-.05,0-.07,0-.03,0-.05,0-.07,0-.03,0-.05,0-.07,0-.03,0-.05,0-.07,0-.03,0-.05,0-.07,0-.03,0-.05,0-.07,0-.03,0-.05,0-.07,0-.03,0-.05,0-.07,0-.03,0-.05,0-.07,0-.03,0-.05,0-.07,0-.03,0-.05,0-.07,0-.03,0-.05,0-.07,0-.03,0-.05,0-.07,0-.03,0-.05,0-.07,0-.03,0-.05,0-.07,0-.03,0-.05,0-.07,0-.03,0-.05,0-.07,0-.03,0-.05,0-.07,0-.03,0-.05,0-.07,0-.03,0-.05,0-.07,0-.03,0-.05,0-.07,0-.03,0-.05,0-.07,0-.03,0-.05,0-.07,0-.03,0-.05,0-.07,0-.03,0-.05,0-.07,0-.03,0-.05,0-.07,0-.03,0-.05,0-.07,0-.03,0-.05,0-.07,0-.03,0-.05,0-.07,0-.03,0-.05,0-.07,0-.03,0-.05,0-.07,0-.03,0-.05,0-.07,0-.03,0-.05,0-.07,0-.03,0-.05,0-.07,0-.03,0-.05,0-.07,0-.03,0-.05,0-.07,0-.03,0-.05,0-.07,0-.03,0-.05,0-.07,0-.03,0-.05,0-.07,0-.03,0-.05,0-.07,0-.03,0-.05,0-.07,0-.03,0-.05,0-.07,0-.03,0-.05,0-.07,0-.03,0-.05,0-.07,0-.03,0-.05,0-.07,0-.03,0-.05,0-.07,0-.03,0-.05,0-.07,0-.03,0-.05,0-.07,0-.03,0-.05,0-.07,0-.03,0-.05,0-.07,0-.03,0-.05,0-.07,0-.03,0-.05,0-.07,0-.03,0-.05,0-.07,0-.03,0-.05,0-.07,0-.03,0-.05,0-.07,0-.03,0-.05,0-.07,0-.03,0-.05,0-.07,0-.03,0-.05,0-.07,0-.03,0-.05,0-.07,0-.03,0-.05,0-.07,0-.03,0-.05,0-.07,0-.03,0-.05,0-.07,0-.03,0-.05,0-.07,0-.03,0-.05,0-.07,0-.03,0-.05,0-.07,0-.03,0-.05,0-.07,0-.03,0-.05,0-.07,0-.03,0-.05,0-.07,0-.03,0-.05,0-.07,0-.03,0-.05,0-.07,0-.03,0-.05,0-.07,0-.03,0-.05,0-.07,0-.03,0-.05,0-.07,0-.03,0-.05,0-.07,0-.03,0-.05,0-.07,0-.03,0-.05,0-.07,0-.03,0-.05,0-.07,0-.03,0-.05,0-.07,0-.03,0-.05,0-.07,0-.03,0-.05,0-.07,0-.03,0-.05,0-.07,0-.03,0-.05,0-.07,0-.03,0-.05,0-.07,0-.03,0-.05,0-.07,0-.03,0-.05,0-.07,0-.03,0-.05,0-.07,0-.03,0-.05,0-.07,0-.03,0-.05,0-.07,0-.03,0-.05,0-.07,0-.03,0-.05,0-.07,0-.03,0-.05,0-.07,0-.03,0-.05,0-.07,0-.03,0-.05,0-.07,0-.03,0-.05,0-.07,0-.03,0-.05,0-.07,0-.03,0-.05,0-.07,0-.03,0-.05,0-.07,0-.03,0-.05,0-.07,0-.03,0-.05,0-.07,0-.03,0-.05,0-.07,0-.03,0-.05,0-.07,0-.03,0-.05,0-.07,0-.03,0-.05,0-.07,0-.03,0-.05,0-.07,0-.03,0-.05,0-.07,0-.03,0-.05,0-.07,0-.03,0-.05,0-.07,0-.03,0-.05,0-.07,0-.03,0-.05,0-.07,0-.03,0-.05,0-.07,0-.03,0-.05,0-.07,0-.03,0-.05,0-.07,0-.03,0-.05,0-.07,0-.03,0-.05,0-.07,0-.03,0-.05,0-.07,0-.03,0-.05,0-.07,0-.03,0-.05,0-.07,0-.03,0-.05,0-.07,0-.03,0-.05,0-.07,0-.03,0-.05,0-.07,0-.03,0-.05,0-.07,0-.03,0-.05,0-.07,0-.03,0-.05,0-.07,0-.03,0-.05,0-.07,0-.03,0-.05,0-.07,0-.03,0-.05,0-.07,0-.03,0-.05,0-.07,0-.03,0-.05,0-.07,0-.03,0-.05,0-.07,0-.03,0-.05,0-.07,0-.03,0-.05,0-.07,0-.03,0-.05,0-.07,0-.03,0-.05,0-.07,0-.03,0-.05,0-.07,0-.03,0-.05,0-.07,0-.03,0-.05,0-.07,0-.03,0-.05,0-.07,0-.03,0-.05,0-.07,0-.03,0-.05,0-.07,0-.03,0-.05,0-.07,0-.03,0-.05,0-.07,0-.03,0-.05,0-.07,0-.03,0-.05,0-.07,0-.03,0-.05,0-.07,0-.03,0-.05,0-.07,0-.03,0-.05,0-.07,0-.03,0-.05,0-.07,0-.03,0-.05,0-.07,0-.03,0-.05,0-.07,0-.03,0-.05,0-.07,0-.03,0-.05,0-.07,0-.03,0-.05,0-.07,0-.03,0-.05,0-.07,0-.03,0-.05,0-.07,0-.03,0-.05,0-.07,0-.03,0-.05,0-.07,0-.03,0-.05,0-.07,0-.03,0-.05,0-.07,0-.03,0-.05,0-.07,0-.03,0-.05,0-.07,0-.03,0-.05,0-.07,0-.03,0-.05,0-.07,0-.03,0-.05,0-.07,0-.03,0-.05,0-.07,0-.03,0-.05,0-.07,0-.03,0-.05,0-.07,0-.03,0-.05,0-.07,0-.03,0-.05,0-.07,0-.03,0-.05,0-.07,0-.03,0-.05,0-.07,0-.03,0-.05,0-.07,0-.03,0-.05,0-.07,0-.03,0-.05,0-.07,0-.03,0-.05,0-.07,0-.03,0-.05,0-.07,0-.03,0-.05,0-.07,0-.03,0-.05,0-.07,0-.03,0-.05,0-.07,0-.03,0-.05,0-.07,0-.03,0-.05,0-.07,0-.03,0-.05,0-.07,0-.03,0-.05,0-.07,0-.03,0-.05,0-.07,0-.03,0-.05,0-.07,0-.03,0-.05,0-.07,0-.03,0-.05,0-.07,0-.03,0-.05,0-.07,0-.03,0-.05,0-.07,0-.03,0-.05,0-.07,0-.03,0-.05,0-.07,0-.03,0-.05,0-.07,0-.03,0-.05,0-.07,0-.03,0-.05,0-.07,0-.03,0-.05,0-.07,0-.03,0-.05,0-.07,0-.03,0-.05,0-.07,0-.03,0-.05,0-.07,0-.03,0-.05,0-.07,0-.03,0-.05,0-.07,0-.03,0-.05,0-.07,0-.03,0-.05,0-.07,0-.03,0-.05,0-.07,0-.03,0-.05,0-.07,0-.03,0-.05,0-.07,0-.03,0-.05,0-.07,0-.03,0-.05,0-.07,0-.03,0-.05,0-.07,0-.03,0-.05,0-.07,0-.03,0-.05,0-.07,0-.03,0-.05,0-.07,0-.03,0-.05,0-.07,0-.03,0-.05,0-.07,0-.03,0-.05,0-.07,0-.03,0-.05,0-.07,0-.03,0-.05,0-.07,0-.03,0-.05,0-.07,0-.03,0-.05,0-.07,0-.03,0-.05,0-.07,0-.03,0-.05,0-.07,0-.03,0-.05,0-.07,0-.03,0-.05,0-.07,0-.03,0-.05,0-.07,0-.03,0-.05,0-.07,0-.03,0-.05,0-.07,0-.03,0-.05,0-.07,0-.03,0-.05,0-.07,0-.03,0-.05,0-.07,0-.03,0-.05,0-.07,0-.03,0-.05,0-.07,0-.03,0-.05,0-.07,0-.03,0-.05,0-.07,0-.03,0-.05,0-.07,0-.03,0-.05,0-.07,0-.03,0-.05,0-.07,0-.03,0-.05,0-.07,0-.03,0-.05,0-.07,0-.03,0-.05,0-.07,0-.03,0-.05,0-.07,0-.03,0-.05,0-.07,0-.03,0-.05,0-.07,0-.03,0-.05,0-.07,0-.03,0-.05,0-.07,0-.03,0-.05,0-.07,0-.03,0-.05,0-.07,0-.03,0-.05,0-.07,0-.03,0-.05,0-.07,0-.03,0-.05,0-.07,0-.03,0-.05,0-.07,0-.03,0-.05,0-.07,0-.03,0-.05,0-.07,0-.03,0-.05,0-.07,0-.03,0-.05,0-.07,0-.03,0-.05,0-.07,0-.03,0-.05,0-.07,0-.03,0-.05,0-.07,0-.03,0-.05,0-.07,0-.03,0-.05,0-.07,0-.03,0-.05,0-.07,0-.03,0-.05,0-.07,0-.03,0-.05,0-.07,0-.03,0-.05,0-.07,0-.03,0-.05,0-.07,0-.03,0-.05,0-.07,0-.03,0-.05,0-.07,0-.03,0-.05,0-.07,0-.03,0-.05,0-.07,0-.03,0-.05,0-.07,0-.03,0-.05,0-.07,0-.03,0-.05,0-.07,0-.03,0-.05,0-.07,0-.03,0-.05,0-.07,0-.03,0-.05,0-.07,0-.03,0-.05,0-.07,0-.03,0-.05,0-.07,0-.03,0-.05,0-.07,0-.03,0-.05,0-.07,0-.03,0-.05,0-.07,0-.03,0-.05,0-.07,0-.03,0-.05,0-.07,0-.03,0-.05,0-.07,0-.03,0-.05,0-.07,0-.03,0-.05,0-.07,0-.03,0-.05,0-.07,0-.03,0-.05,0-.07,0-.03,0-.05,0-.07,0-.03,0-.05,0-.07,0-.03,0-.05,0-.07,0-.03,0-.05,0-.07,0-.03,0-.05,0-.07,0-.03,0-.05,0-.07,0-.03,0-.05,0-.07,0-.03,0-.05,0-.07,0-.03,0-.05,0-.07,0-.03,0-.05,0-.07,0-.03,0-.05,0-.07,0-.03,0-.05,0-.07,0-.03,0-.05,0-.07,0-.03,0-.05,0-.07,0-.03,0-.05,0-.07,0-.03,0-.05,0-.07,0-.03,0-.05,0-.07,0-.03,0-.05,0-.07,0-.03,0-.05,0-.07,0-.03,0-.05,0-.07,0-.03,0-.05,0-.07,0-.03,0-.05,0-.07,0-.03,0-.05,0-.07,0-.03,0-.05,0-.07,0-.03,0-.05,0-.07,0-.03,0-.05,0-.07,0-.03,0-.05,0-.07,0-.03,0-.05,0-.07,0-.03,0-.05,0-.07,0-.03,0-.05,0-.07,0-.03,0-.05,0-.07,0-.03,0-.05,0-.07,0-.03,0-.05,0-.07,0-.03,0-.05,0-.07,0-.03,0-.05,0-.07,0-.03,0-.05,0-.07,0-.03,0-.05,0-.07,0-.03,0-.05,0-.07,0-.03,0-.05,0-.07,0-.03,0-.05,0-.07,0-.03,0-.05,0-.07,0-.03,0-.05,0-.07,0-.03,0-.05,0-.07,0-.03,0-.05,0-.07,0-.03,0-.05,0-.07,0-.03,0-.05,0-.07,0-.03,0-.05,0-.07,0-.03,0-.05,0-.07,0-.03,0-.05,0-.07,0-.03,0-.05,0-.07,0-.03,0-.05,0-.07,0-.03,0-.05,0-.07,0-.03,0-.05,0-.07,0-.03,0-.05,0-.07,0-.03,0-.05,0-.07,0-.03,0-.05,0-.07,0-.03,0-.05,0-.07,0-.03,0-.05,0-.07,0-.03,0-.05,0-.07,0-.03,0-.05,0-.07,0-.03,0-.05,0-.07,0-.03,0-.05,0-.07,0-.03,0-.05,0-.07,0-.03,0-.05,0-.07,0-.03,0-.05,0-.07,0-.03,0-.05,0-.07,0-.03,0-.05,0-.07,0-.03,0-.05,0-.07,0-.03,0-.05,0-.07,0-.03,0-.05,0-.07,0-.03,0-.05,0-.07,0-.03,0-.05,0-.07,0-.03,0-.05,0-.07,0-.03,0-.05,0-.07,0-.03,0-.05,0-.07,0-.03,0-.05,0-.07,0-.03,0-.05,0-.07,0-.03,0-.05,0-.07,0-.03,0-.05,0-.07,0-.03,0-.05,0-.07,0-.03,0-.05,0-.07,0-.03,0-.05,0-.07,0-.03,0-.05,0-.07,0-.03,0-.05,0-.07,0-.03,0-.05,0-.07,0-.03,0-.05,0-.07,0-.03,0-.05,0-.07,0-.03,0-.05,0-.07,0-.03,0-.05,0-.07,0-.03,0-.05,0-.07,0-.03,0-.05,0-.07,0-.03,0-.05,0-.07,0-.03,0-.05,0-.07,0-.03,0-.05,0-.07,0-.03,0-.05,0-.07,0-.03,0-.05,0-.07,0-.03,0-.05,0-.07,0-.03,0-.05,0-.07,0-.03,0-.05,0-.07,0-.03,0-.05,0-.07,0-.03,0-.05,0-.07,0-.03,0-.05,0-.07,0-.03,0-.05,0-.07,0-.03,0-.05,0-.07,0-.03,0-.05,0-.07,0-.03,0-.05,0-.07,0-.03,0-.05,0-.07,0-.03,0-.05,0-.07,0-.03,0-.05,0-.07,0-.03,0-.05,0-.07,0-.03,0-.05,0-.07,0-.03,0-.05,0-.07,0-.03,0-.05,0-.07,0-.03,0-.05,0-.07,0-.03,0-.05,0-.07,0-.03,0-.05,0-.07,0-.03,0-.05,0-.07,0-.03,0-.05,0-.07,0-.03,0-.05,0-.07,0-.03,0-.05,0-.07,0-.03,0-.05,0-.07,0-.03,0-.05,0-.07,0-.03,0-.05,0-.07,0-.03,0-.05,0-.07,0-.03,0-.05,0-.07,0-.03,0-.05,0-.07,0-.03,0-.05,0-.07,0-.03,0-.05,0-.07,0-.03,0-.05,0-.07,0-.03,0-.05,0-.07,0-.03,0-.05,0-.07,0-.03,0-.05,0-.07,0-.03,0-.05,0-.07,0-.03,0-.05,0-.07,0-.03,0-.05,0-.07,0-.03,0-.05,0-.07,0-.03,0-.05,0-.07,0-.03,0-.05,0-.07,0-.03,0-.05,0-.07,0-.03,0-.05,0-.07,0-.03,0-.05,0-.07,0-.03,0-.05,0-.07,0-.03,0-.05,0-.07,0-.03,0-.05,0-.07,0-.03,0-.05,0-.07,0-.03,0-.05,0-.07,0-.03,0-.05,0-.07,0-.03,0-.05,0-.07,0-.03,0-.05,0-.07,0-.03,0-.05,0-.07,0-.03,0-.05,0-.07,0-.03,0-.05,0-.07,0-.03,0-.05,0-.07,0-.03,0-.05,0-.07,0-.03,0-.05,0-.07,0-.03,0-.05,0-.07,0-.03,0-.05,0-.07,0-.03,0-.05,0-.07,0-.03,0-.05,0-.07,0-.03,0-.05,0-.07,0-.03,0-.05,0-.07,0-.03,0-.05,0-.07,0-.03,0-.05,0-.07,0-.03,0-.05,0-.07,0-.03,0-.05,0-.07,0-.03,0-.05,0-.07,0-.03,0-.05,0-.07,0-.03,0-.05,0-.07,0-.03,0-.05,0-.07,0-.03,0-.05,0-.07,0-.03,0-.05,0-.07,0-.03,0-.05,0-.07,0-.03,0-.05,0-.07,0-.03,0-.05,0-.07,0-.03,0-.05,0-.07,0-.03,0-.05,0-.07,0-.03,0-.05,0-.07,0-.03,0-.05,0-.07,0-.03,0-.05,0-.07,0-.03,0-.05,0-.07,0-.03,0-.05,0-.07,0-.03,0-.05,0-.07,0-.03,0-.05,0-.07,0-.03,0-.05,0-.07,0-.03,0-.05,0-.07,0-.03,0-.05,0-.07,0-.03,0-.05,0-.07,0-.03,0-.05,0-.07,0-.03,0-.05,0-.07,0-.03,0-.05,0-.07,0-.03,0-.05,0-.07,0-.03,0-.05,0-.07,0-.03,0-.05,0-.07,0-.03,0-.05,0-.07,0-.03,0-.05,0-.07,0-.03,0-.05,0-.07,0-.03,0-.05,0-.07,0-.03,0-.05,0-.07,0-.03,0-.05,0-.07,0-.03,0-.05,0-.07,0-.03,0-.05,0-.07,0-.03,0-.05,0-.07,0-.03,0-.05,0-.07,0-.03,0-.05,0-.07,0-.03,0-.05,0-.07,0-.03,0-.05,0-.07,0-.03,0-.05,0-.07,0-.03,0-.05,0-.07,0-.03,0-.05,0-.07,0-.03,0-.05,0-.07,0-.03,0-.05,0-.07,0-.03,0-.05,0-.07,0-.03,0-.05,0-.07,0-.03,0-.05,0-.07,0-.03,0-.05,0-.07,0-.03,0-.05,0-.07,0-.03,0-.05,0-.07,0-.03,0-.05,0-.07,0-.03,0-.05,0-.07,0-.03,0-.05,0-.07,0-.03,0-.05,0-.07,0-.03,0-.05,0-.07,0-.03,0-.05,0-.07,0-.03,0-.05,0-.07,0-.03,0-.05,0-.07,0-.03,0-.05,0-.07,0-.03,0-.05,0-.07,0-.03,0-.05,0-.07,0-.03,0-.05,0-.07,0-.03,0-.05,0-.07,0-.03,0-.05,0-.07,0-.03,0-.05,0-.07,0-.03,0-.05,0-.07,0-.03,0-.05,0-.07,0-.03,0-.05,0-.07,0-.03,0-.05,0-.07,0-.03,0-.05,0-.07,0-.03,0-.05,0-.07,0-.03,0-.05,0-.07,0-.03,0-.05,0-.07,0-.03,0-.05,0-.07,0-.03,0-.05,0-.07,0-.03,0-.05,0-.07,0-.03,0-.05,0-.07,0-.03,0-.05,0-.07,0-.03,0-.05,0-.07,0-.03,0-.05,0-.07,0-.03,0-.05,0-.07,0-.03,0-.05,0-.07,0-.03,0-.05,0-.07,0-.03,0-.05,0-.07,0-.03,0-.05,0-.07,0-.03,0-.05,0-.07,0-.03,0-.05,0-.07,0-.03,0-.05,0-.07,0-.03,0-.05,0-.07,0-.03,0-.05,0-.07,0-.03,0-.05,0-.07,0-.03,0-.05,0-.07,0-.03,0-.05,0-.07,0-.03,0-.05,0-.07,0-.03,0-.05,0-.07,0-.03,0-.05,0-.07,0-.03,0-.05,0-.07,0-.03,0-.05,0-.07,0-.03,0-.05,0-.07,0-.03,0-.05,0-.07,0-.03,0-.05,0-.07,0-.03,0-.05,0-.07,0-.03,0-.05,0-.07,0-.03,0-.05,0-.07,0-.03,0-.05,0-.07,0-.03,0-.05,0-.07,0-.03,0-.05,0-.07,0-.03,0-.05,0-.07,0-.03,0-.05,0-.07,0-.03,0-.05,0-.07,0-.03,0-.05,0-.07,0-.03,0-.05,0-.07,0-.03,0-.05,0-.07,0-.03,0-.05,0-.07,0-.03,0-.05,0-.07,0-.03,0-.05,0-.07,0-.03,0-.05,0-.07,0-.03,0-.05,0-.07,0-.03,0-.05,0-.07,0-.03,0-.05,0-.07,0-.03,0-.05,0-.07,0-.03,0-.05,0-.07,0-.03,0-.05,0-.07,0-.03,0-.05,0-.07,0-.03,0-.05,0-.07,0-.03,0-.05,0-.07,0-.03,0-.05,0-.07,0-.03,0-.05,0-.07,0-.03,0-.05,0-.07,0-.03,0-.05,0-.07,0-.03,0-.05,0-.07,0-.03,0-.05,0-.07,0-.03,0-.05,0-.07,0-.03,0-.05,0-.07,0-.03,0-.05,0-.07,0-.03,0-.05,0-.07,0-.03,0-.05,0-.07,0-.03,0-.05,0-.07,0-.03,0-.05,0-.07,0-.03,0-.05,0-.07,0-.03,0-.05,0-.07,0-.03,0-.05,0-.07,0-.03,0-.05,0-.07,0-.03,0-.05,0-.07,0-.03,0-.05,0-.07,0-.03,0-.05,0-.07,0-.03,0-.05,0-.07,0-.03,0-.05,0-.07,0-.03,0-.05,0-.07,0-.03,0-.05,0-.07,0-.03,0-.05,0-.07,0-.03,0-.05,0-.07,0-.03,0-.05,0-.07,0-.03,0-.05,0-.07,0-.03,0-.05,0-.07,0-.03,0-.05,0-.07,0-.03,0-.05,0-.07,0-.03,0-.05,0-.07,0-.03,0-.05,0-.07,0-.03,0-.05,0-.07,0-.03,0-.05,0-.07,0-.03,0-.05,0-.07,0-.03,0-.05,0-.07,0-.03,0-.05,0-.07,0-.03,0-.05,0-.07,0-.03,0-.05,0-.07,0-.03,0-.05,0-.07,0-.03,0-.05,0-.07,0-.03,0-.05,0-.07,0-.03,0-.05,0-.07,0-.03,0-.05,0-.07,0-.03,0-.05,0-.07,0-.03,0-.05,0-.07,0-.03,0-.05,0-.07,0-.03,0-.05,0-.07,0-.03,0-.05,0-.07,0-.03,0-.05,0-.07,0-.03,0-.05,0-.07,0-.03,0-.05,0-.07,0-.03,0-.05,0-.07,0-.03,0-.05,0-.07,0-.03,0-.05,0-.07,0-.03,0-.05,0-.07,0-.03,0-.05,0-.07,0-.03,0-.05,0-.07,0-.03,0-.05,0-.07,0-.03,0-.05,0-.07,0-.03,0-.05,0-.07,0-.03,0-.05,0-.07,0-.03,0-.05,0-.07,0-.03,0-.05,0-.07,0-.03,0-.05,0-.07,0-.03,0-.05,0-.07,0-.03,0-.05,0-.07,0-.03,0-.05,0-.07,0-.03,0-.05,0-.07,0-.03,0-.05,0-.07,0-.03,0-.05,0-.07,0-.03,0-.05,0-.07,0-.03,0-.05,0-.07,0-.03,0-.05,0-.07,0-.03,0-.05,0-.07,0-.03,0-.05,0-.07,0-.03,0-.05,0-.07,0-.03,0-.05,0-.07,0-.03,0-.05,0-.07,0-.03,0-.05,0-.07,0-.03,0-.05,0-.07,0-.03,0-.05,0-.07,0-.03,0-.05,0-.07,0-.03,0-.05,0-.07,0-.03,0-.05,0-.07,0-.03,0-.05,0-.07,0-.03,0-.05,0-.07,0-.03,0-.05,0-.07,0-.03,0-.05,0-.07,0-.03,0-.05,0-.07,0-.03,0-.05,0-.07,0-.03,0-.05,0-.07,0-.03,0-.05,0-.07,0-.03,0-.05,0-.07,0-.03,0-.05,0-.07,0-.03,0-.05,0-.07,0-.03,0-.05,0-.07,0-.03,0-.05,0-.07,0-.03,0-.05,0-.07,0-.03,0-.05,0-.07,0-.03,0-.05,0-.07,0-.03,0-.05,0-.07,0-.03,0-.05,0-.07,0-.03,0-.05,0-.07,0-.03,0-.05,0-.07,0-.03,0-.05,0-.07,0-.03,0-.05,0-.07,0-.03,0-.05,0-.07,0-.03,0-.05,0-.07,0-.03,0-.05,0-.07,0-.03,0-.05,0-.07,0-.03,0-.05,0-.07,0-.03,0-.05,0-.07,0-.03,0-.05,0-.07,0-.03,0-.05,0-.07,0-.03,0-.05,0-.07,0-.03,0-.05,0-.07,0-.03,0-.05,0-.07,0-.03,0-.05,0-.07,0-.03,0-.05,0-.07,0-.03,0-.05,0-.07,0-.03,0-.05,0-.07,0-.03,0-.05,0-.07,0-.03,0-.05,0-.07,0-.03,0-.05,0-.07,0-.03,0-.05,0-.07,0-.03,0-.05,0-.07,0-.03,0-.05,0-.07,0-.03,0-.05,0-.07,0-.03,0-.05,0-.07,0-.03,0-.05,0-.07,0-.03,0-.05,0-.07,0-.03,0-.05,0-.07,0-.03,0-.05,0-.07,0-.03,0-.05,0-.07,0-.03,0-.05,0-.07,0-.03,0-.05,0-.07,0-.03,0-.05,0-.07,0-.03,0-.05,0-.07,0-.03,0-.05,0-.07,0-.03,0-.05,0-.07,0-.03,0-.05,0-.07,0-.03,0-.05,0-.07,0-.03,0-.05,0-.07,0-.03,0-.05,0-.07,0-.03,0-.05,0-.07,0-.03,0-.05,0-.07,0-.03,0-.05,0-.07,0-.03,0-.05,0-.07,0-.03,0-.05,0-.07,0-.03,0-.05,0-.07,0-.03,0-.05,0-.07,0-.03,0-.05,0-.07,0-.03,0-.05,0-.07,0-.03,0-.05,0-.07,0-.03,0-.05,0-.07,0-.03,0-.05,0-.07,0-.03,0-.05,0-.07,0-.03,0-.05,0-.07,0-.03,0-.05,0-.07,0-.03,0-.05,0-.07,0-.03,0-.05,0-.07,0-.03,0-.05,0-.07,0-.03,0-.05,0-.07,0-.03,0-.05,0-.07,0-.03,0-.05,0-.07,0-.03,0-.05,0-.07,0-.03,0-.05,0-.07,0-.03,0-.05,0-.07,0-.03,0-.05,0-.07,0-.03,0-.05,0-.07,0-.03,0-.05,0-.07,0-.03,0-.05,0-.07,0-.03,0-.05,0-.07,0-.03,0-.05,0-.07,0-.03,0-.05,0-.07,0-.03,0-.05,0-.07,0-.03,0-.05,0-.07,0-.03,0-.05,0-.07,0-.03,0-.05,0-.07,0-.03,0-.05,0-.07,0-.03,0-.05,0-.07,0-.03,0-.05,0-.07,0-.03,0-.05,0-.07,0-.03,0-.05,0-.07,0-.03,0-.05,0-.07,0-.03,0-.05,0-.07,0-.03,0-.05,0-.07,0-.03,0-.05,0-.07,0-.03,0-.05,0-.07,0-.03,0-.05,0-.07,0-.03,0-.05,0-.07,0-.03,0-.05,0-.07,0-.03,0-.05,0-.07,0-.03,0-.05,0-.07,0-.03,0-.05,0-.07,0-.03,0-.05,0-.07,0-.03,0-.05,0-.07,0-.03,0-.05,0-.07,0-.03,0-.05,0-.07,0-.03,0-.05,0-.07,0-.03,0-.05,0-.07,0-.03,0-.05,0-.07,0-.03,0-.05,0-.07,0-.03,0-.05,0-.07,0-.03,0-.05,0-.07,0-.03,0-.05,0-.07,0-.03,0-.05,0-.07,0-.03,0-.05,0-.07,0-.03,0-.05,0-.07,0-.03,0-.05,0-.07,0-.03,0-.05,0-.07,0-.03,0-.05,0-.07,0-.03,0-.05,0-.07,0-.03,0-.05,0-.07,0-.03,0-.05,0-.07,0-.03,0-.05,0-.07,0-.03,0-.05,0-.07,0-.03,0-.05,0-.07,0-.03,0-.05,0-.07,0-.03,0-.05,0-.07,0-.03,0-.05,0-.07,0-.03,0-.05,0-.07,0-.03,0-.05,0-.07,0-.03,0-.05,0-.07,0-.03,0-.05,0-.07,0-.03,0-.05,0-.07,0-.03,0-.05,0-.07,0-.03,0-.05,0-.07,0-.03,0-.05,0-.07,0-.03,0-.05,0-.07,0-.03,0-.05,0-.07,0-.03,0-.05,0-.07,0-.03,0-.05,0-.07,0-.03,0-.05,0-.07,0-.02,0-.05,0-.07.1-1.42-.78-2.8-2.3-3.61ZM131.8,70.13c.06,3.2-.04,5.38-2.08,6.54l-58.61,36.71v-26.86c1.39.01,2.83-.24,3.84-.6l56.78-20.51.07,4.72ZM87.78,73.61l60.75-54.14s0,.08,0,.11c0,.04,0,.11,0,.15,0,.04,0,.11,0,.15,0,.04,0,.11,0,.15,0,.04,0,.11,0,.15,0,.04,0,.11,0,.15,0,.04,0,.11,0,.15,0,.04,0,.11,0,.15,0,.04,0,.11,0,.15,0,.04,0,.11,0,.15,0,.04,0,.11,0,.15,0,.04,0,.11,0,.15,0,.04,0,.11,0,.15,0,.04,0,.11,0,.15,0,.04,0,.11,0,.15,0,.04,0,.11,0,.15,0,.04,0,.11,0,.15,0,.04,0,.11,0,.15,0,.04,0,.11,0,.15,0,.04,0,.11,0,.15,0,.04,0,.11,0,.15,0,.04,0,.11,0,.15,0,.04,0,.11,0,.15,0,.04,0,.11,0,.15,0,.04,0,.11,0,.15,0,.04,0,.11,0,.15,0,.04,0,.11,0,.15,0,.04,0,.11,0,.15,0,.04,0,.11,0,.15,0,.04,0,.11,0,.15,0,.04,0,.11,0,.15,0,.04,0,.11,0,.15,0,.04,0,.11,0,.15,0,.04,0,.11,0,.15,0,.04,0,.11,0,.15,0,.04,0,.11,0,.15,0,.04,0,.11,0,.15,0,.04,0,.11,0,.15,0,.04,0,.11,0,.15,0,.04,0,.11,0,.15,0,.04,0,.11,0,.15,0,.04,0,.11,0,.15,0,.04,0,.11,0,.15,0,.04,0,.11,0,.15,0,.04,0,.11,0,.15,0,.04,0,.11,0,.15,0,.04,0,.11,0,.15,0,.04,0,.11,0,.15,0,.04,0,.11,0,.15,0,.04,0,.11,0,.15,0,.04,0,.11,0,.15,0,.04,0,.11,0,.15,0,.04,0,.11,0,.15,0,.04,0,.11,0,.15,0,.04,0,.11,0,.15,0,.04,0,.11,0,.15,0,.04,0,.11,0,.15,0,.04,0,.11,0,.15,0,.04,0,.11,0,.15,0,.04,0,.11,0,.15,0,.04,0,.11,0,.15,0,.04,0,.11,0,.15,0,.04,0,.11,0,.15,0,.04,0,.11,0,.15,0,.04,0,.11,0,.15,0,.04,0,.11,0,.15,0,.04,0,.11,0,.15,0,.04,0,.11,0,.15,0,.04,0,.11,0,.15,0,.04,0,.11,0,.15,0,.04,0,.11,0,.15,0,.04,0,.11,0,.15,0,.04,0,.11,0,.15,0,.04,0,.11,0,.15,0,.04,0,.11,0,.15,0,.04,0,.11,0,.15,0,.04,0,.11,0,.15,0,.04,0,.11,0,.15,0,.04,0,.11,0,.15,0,.04,0,.11,0,.15,0,.04,0,.11,0,.15,0,.04,0,.11,0,.15,0,.04,0,.11,0,.15,0,.04,0,.11,0,.15,0,.04,0,.11,0,.15,0,.04,0,.11,0,.15,0,.04,0,.11,0,.15,0,.04,0,.11,0,.15,0,.04,0,.11,0,.15,0,.04,0,.11,0,.15,0,.04,0,.11,0,.15,0,.04,0,.11,0,.15,0,.04,0,.11,0,.15,0,.04,0,.11,0,.15,0,.04,0,.11,0,.15,0,.04,0,.11,0,.15,0,.04,0,.11,0,.15,0,.04,0,.11,0,.15,0,.04,0,.11,0,.15,0,.04,0,.11,0,.15,0,.04,0,.11,0,.15,0,.04,0,.11,0,.15,0,.04,0,.11,0,.15,0,.04,0,.11,0,.15,0,.04,0,.11,0,.15,0,.04,0,.11,0,.15,0,.04,0,.11,0,.15,0,.04,0,.11,0,.15,0,.04,0,.11,0,.15,0,.04,0,.11,0,.15,0,.04,0,.11,0,.15,0,.04,0,.11,0,.15,0,.04,0,.11,0,.15,0,.04,0,.11,0,.15,0,.04,0,.11,0,.15,0,.04,0,.11,0,.15,0,.04,0,.11,0,.15,0,.04,0,.11,0,.15,0,.04,0,.11,0,.15,0,.04,0,.11,0,.15,0,.04,0,.11,0,.15,0,.04,0,.11,0,.15,0,.04,0,.11,0,.15,0,.04,0,.11,0,.15,0,.04,0,.11,0,.15,0,.04,0,.11,0,.15,0,.04,0,.11,0,.15,0,.04,0,.11,0,.15,0,.04,0,.11,0,.15,0,.04,0,.11,0,.15,0,.04,0,.11,0,.15,0,.04,0,.11,0,.15,0,.04,0,.11,0,.15,0,.04,0,.11,0,.15,0,.04,0,.11,0,.15,0,.04,0,.11,0,.15,0,.04,0,.11,0,.15,0,.04,0,.11,0,.15,0,.04,0,.11,0,.15,0,.04,0,.11,0,.15,0,.04,0,.11,0,.15,0,.04,0,.11,0,.15,0,.04,0,.11,0,.15,0,.04,0,.11,0,.15,0,.04,0,.11,0,.15,0,.04,0,.11,0,.15,0,.04,0,.11,0,.15,0,.04,0,.11,0,.15,0,.04,0,.11,0,.15,0,.04,0,.11,0,.15,0,.04,0,.11,0,.15,0,.04,0,.11,0,.15,0,.04,0,.11,0,.15,0,.04,0,.11,0,.15,0,.04,0,.11,0,.15,0,.04,0,.11,0,.15,0,.04,0,.11,0,.15,0,.04,0,.11,0,.15,0,.04,0,.11,0,.15,0,.04,0,.11,0,.15,0,.04,0,.11,0,.15,0,.04,0,.11,0,.15,0,.04,0,.11,0,.15,0,.04,0,.11,0,.15,0,.04,0,.11,0,.15,0,.04,0,.11,0,.15,0,.04,0,.11,0,.15,0,.04,0,.11,0,.15,0,.04,0,.11,0,.15,0,.04,0,.11,0,.15,0,.04,0,.11,0,.15,0,.04,0,.11,0,.15,0,.04,0,.11,0,.15,0,.04,0,.11,0,.15,0,.04,0,.11,0,.15,0,.04,0,.11,0,.15,0,.04,0,.11,0,.15,0,.04,0,.11,0,.15,0,.04,0,.11,0,.15,0,.04,0,.11,0,.15,0,.04,0,.11,0,.15,0,.04,0,.11,0,.15,0,.04,0,.11,0,.15,0,.04,0,.11,0,.15,0,.04,0,.11,0,.15,0,.04,0,.11,0,.15,0,.04,0,.11,0,.15,0,.04,0,.11,0,.15,0,.04,0,.11,0,.15,0,.04,0,.11,0,.15,0,.04,0,.11,0,.15,0,.04,0,.11,0,.15,0,.04,0,.11,0,.15,0,.04,0,.11,0,.15,0,.04,0,.11,0,.15,0,.04,0,.11,0,.15,0,.04,0,.11,0,.15,0,.04,0,.11,0,.15,0,.04,0,.11,0,.15,0,.04,0,.11,0,.15,0,.04,0,.11,0,.15,0,.04,0,.11,0,.15,0,.04,0,.11,0,.15,0,.04,0,.11,0,.15,0,.04,0,.11,0,.15,0,.04,0,.11,0,.15,0,.04,0,.11,0,.15,0,.04,0,.11,0,.15,0,.04,0,.11,0,.15,0,.04,0,.11,0,.15,0,.04,0,.11,0,.15,0,.04,0,.11,0,.15,0,.04,0,.11,0,.15,0,.04,0,.11,0,.15,0,.04,0,.11,0,.15,0,.04,0,.11,0,.15,0,.04,0,.11,0,.15,0,.04,0,.11,0,.15,0,.04,0,.11,0,.15,0,.04,0,.11,0,.15,0,.04,0,.11,0,.15,0,.01,0,.12,0,.13,0,.18.04.36.09.53l-60.84,20.88ZM186.11,46.37s.01-.01.02-.02c0,.01,0,.02,0,.03,0,.02,0,.05,0,.07,0,.02,0,.05,0,.07,0,.03,0,.05,0,.07,0,.02,0,.05,0,.07,0,.02,0,.05,0,.07,0,.02,0,.05,0,.07,0,.03,0,.05,0,.07,0,.02,0,.05,0,.07,0,.02,0,.05,0,.07,0,.02,0,.05,0,.07,0,.03,0,.05,0,.07,0,.03,0,.05,0,.07,0,.02,0,.05,0,.07,0,.02,0,.05,0,.07,0,.03,0,.05,0,.07,0,.02,0,.05,0,.07,0,.02,0,.05,0,.07,0,.02,0,.05,0,.07,0,.03,0,.05,0,.07,0,.03,0,.05,0,.07,0,.02,0,.05,0,.07,0,.03,0,.05,0,.07,0,.02,0,.05,0,.07,0,.02,0,.05,0,.07,0,.02,0,.05,0,.07,0,.03,0,.05,0,.07,0,.02,0,.05,0,.07,0,.02,0,.05,0,.07,0,.02,0,.05,0,.07,0,.03,0,.05,0,.07,0,.02,0,.05,0,.07,0,.02,0,.05,0,.07,0,.02,0,.05,0,.07,0,.03,0,.05,0,.07,0,.02,0,.05,0,.07,0,.02,0,.05,0,.07,0,.02,0,.05,0,.07,0,.03,0,.05,0,.07,0,.02,0,.05,0,.07,0,.02,0,.05,0,.07,0,.02,0,.05,0,.07,0,.03,0,.05,0,.07,0,.02,0,.05,0,.07,0,.02,0,.05,0,.07,0,.02,0,.05,0,.07,0,.03,0,.05,0,.07,0,.02,0,.05,0,.07,0,.02,0,.05,0,.07,0,.02,0,.05,0,.07,0,.03,0,.05,0,.07,0,.02,0,.05,0,.07,0,.02,0,.05,0,.07,0,.02,0,.05,0,.07,0,.02,0,.05,0,.07,0,.02,0,.05,0,.07,0,.02,0,.05,0,.07,0,.03,0,.05,0,.07,0,.02,0,.05,0,.07,0,.02,0,.05,0,.07,0,.02,0,.05,0,.07,0,.03,0,.05,0,.07,0,.02,0,.05,0,.07,0,.02,0,.05,0,.07,0,.02,0,.05,0,.07,0,.03,0,.05,0,.07,0,.02,0,.05,0,.07,0,.02,0,.05,0,.07,0,.02,0,.05,0,.07,0,.03,0,.05,0,.07,0,.03,0,.05,0,.07,0,.02,0,.05,0,.07,0,.02,0,.05,0,.07,0,.03,0,.05,0,.07,0,.02,0,.05,0,.07,0,.02,0,.05,0,.07,0,.02,0,.05,0,.07,0,.03,0,.05,0,.07,0,.03,0,.05,0,.07,0,.02,0,.05,0,.07,0,.02,0,.05,0,.07,0,.03,0,.05,0,.07,0,.02,0,.05,0,.07,0,.02,0,.05,0,.07,0,.02,0,.05,0,.07,0,.03,0,.05,0,.07,0,.02,0,.05,0,.07,0,.02,0,.05,0,.07,0,.03,0,.05,0,.07,0,.02,0,.05,0,.07,0,.02,0,.05,0,.07,0,.02,0,.05,0,.07,0,.03,0,.05,0,.07,0,.02,0,.05,0,.07,0,.02,0,.05,0,.07,0,.02,0,.05,0,.07,0,.03,0,.05,0,.07,0,.02,0,.05,0,.07,0,.02,0,.05,0,.07,0,.02,0,.05,0,.07,0,.03,0,.05,0,.07,0,.02,0,.05,0,.07,0,.02,0,.05,0,.07,0,.02,0,.05,0,.07,0,.03,0,.05,0,.07,0,.02,0,.05,0,.07,0,.02,0,.05,0,.07,0,.02,0,.05,0,.07,0,.03,0,.05,0,.07,0,.02,0,.05,0,.07,0,.02,0,.05,0,.07,0,.02,0,.05,0,.07,0,.03,0,.05,0,.07,0,.02,0,.05,0,.07,0,.02,0,.05,0,.07,0,.02,0,.05,0,.07,0,.03,0,.05,0,.07,0,.03,0,.05,0,.07,0,.02,0,.05,0,.07,0,.03,0,.05,0,.07,0,.02,0,.05,0,.07,0,.02,0,.05,0,.07,0,.02,0,.05,0,.07,0,.03,0,.05,0,.07,0,.02,0,.05,0,.07,0,.02,0,.05,0,.07,0,.02,0,.05,0,.07,0,.03,0,.05,0,.07,0,.02,0,.05,0,.07,0,.02,0,.05,0,.07,0,.02,0,.05,0,.07,0,.03,0,.05,0,.07,0,.02,0,.05,0,.07,0,.02,0,.05,0,.07,0,.02,0,.05,0,.07,0,.03,0,.05,0,.07,0,.03,0,.05,0,.07,0,.02,0,.05,0,.07,0,.02,0,.05,0,.07,0,.03,0,.05,0,.07,0,.02,0,.05,0,.07,0,.02,0,.05,0,.07,0,.02,0,.05,0,.07,0,.03,0,.05,0,.07,0,.02,0,.05,0,.07,0,.02,0,.05,0,.07,0,.02,0,.05,0,.07,0,.03,0,.05,0,.07,0,.02,0,.05,0,.07,0,.02,0,.05,0,.07,0,.02,0,.05,0,.07,0,.03,0,.05,0,.07,0,.02,0,.05,0,.07,0,.02,0,.05,0,.07,0,.03,0,.05,0,.07,0,.02,0,.05,0,.07,0,.02,0,.05,0,.07,0,.02,0,.05,0,.07,0,.03,0,.05,0,.07,0,.02,0,.05,0,.07,0,.02,0,.05,0,.07,0,.02,0,.05,0,.07,0,.03,0,.05,0,.07,0,.02,0,.05,0,.07,0,.02,0,.05,0,.07,0,.02,0,.05,0,.07,0,.03,0,.05,0,.07,0,.02,0,.05,0,.07,0,.02,0,.05,0,.07,0,.02,0,.05,0,.07,0,.03,0,.05,0,.07,0,.02,0,.05,0,.07,0,.02,0,.05,0,.07,0,.02,0,.05,0,.07,0,.03,0,.05,0,.07,0,.03,0,.05,0,.07,0,.02,0,.05,0,.07,0,.02,0,.05,0,.07,0,.03,0,.05,0,.07,0,.02,0,.05,0,.07,0,.02,0,.05,0,.07,0,.02,0,.05,0,.07,0,.03,0,.05,0,.07,0,.03,0,.05,0,.07,0,.02,0,.05,0,.07,0,.03,0,.05,0,.07,0,.02,0,.05,0,.07,0,.02,0,.05,0,.07,0,.02,0,.05,0,.07,0,.03,0,.05,0,.07,0,.02,0,.05,0,.07,0,.02,0,.05,0,.07,0,.02,0,.05,0,.07,0,.03,0,.05,0,.07,0,.02,0,.05,0,.07,0,.02,0,.05,0,.07,0,.02,0,.05,0,.07,0,.03,0,.05,0,.07,0,.02,0,.05,0,.07,0,.02,0,.05,0,.07,0,.02,0,.05,0,.07,0,.03,0,.05,0,.07,0,.02,0,.05,0,.07,0,.02,0,.05,0,.07,0,.02,0,.05,0,.07,0,.03,0,.05,0,.07,0,.02,0,.05,0,.07,0,.02,0,.05,0,.07,0,.02,0,.05,0,.07,0,.03,0,.05,0,.07,0,.02,0,.05,0,.07,0,.02,0,.05,0,.07,0,.02,0,.05,0,.07,0,.03,0,.05,0,.07,0,.03,0,.05,0,.07,0,.02,0,.05,0,.07,0,.02,0,.05,0,.07,0,.03,0,.05,0,.07,0,.02,0,.05,0,.07,0,.02,0,.05,0,.07,0,.03,0,.05,0,.07,0,.02,0,.05,0,.07,0,.02,0,.05,0,.07,0,.02,0,.05,0,.07,0,.03,0,.05,0,.07,0,.02,0,.05,0,.07,0,.02,0,.05,0,.07,0,.02,0,.05,0,.07,0,.03,0,.05,0,.07,0,.02,0,.05,0,.07,0,.02,0,.05,0,.07,0,.02,0,.05,0,.07,0,.03,0,.05,0,.07,0,.02,0,.05,0,.07,0,.02,0,.05,0,.07,0,.02,0,.05,0,.07,0,.03,0,.05,0,.07,0,.02,0,.05,0,.07,0,.02,0,.05,0,.07,0,.02,0,.05,0,.07,0,.03,0,.05,0,.07,0,.03,0,.05,0,.07,0,.02,0,.05,0,.07,0,.02,0,.05,0,.07,0,.03,0,.05,0,.07,0,.02,0,.05,0,.07,0,.02,0,.05,0,.07,0,.02,0,.05,0,.07,0,.03,0,.05,0,.07,0,.02,0,.05,0,.07,0,.02,0,.05,0,.07,0,.03,0,.05,0,.07,0,.02,0,.05,0,.07,0,.02,0,.05,0,.07,0,.02,0,.05,0,.07,0,.03,0,.05,0,.07,0,.02,0,.05,0,.07,0,.02,0,.05,0,.07,0,.02,0,.05,0,.07,0,.03,0,.05,0,.07,0,.02,0,.05,0,.07,0,.02,0,.05,0,.07,0,.02,0,.05,0,.07,0,.03,0,.05,0,.07,0,.02,0,.05,0,.07,0,.02,0,.05,0,.07,0,.02,0,.05,0,.07,0,.03,0,.05,0,.07,0,.02,0,.05,0,.07,0,.02,0,.05,0,.07,0,.02,0,.05,0,.07,0,.03,0,.05,0,.07,0,.03,0,.05,0,.07,0,.02,0,.05,0,.07,0,.02,0,.05,0,.07,0,.03,0,.05,0,.07,0,.02,0,.05,0,.07,0,.02,0,.05,0,.07,0,.02,0,.05,0,.07,0,.03,0,.05,0,.07,0,.03,0,.05,0,.07,0,.02,0,.05,0,.07,0,.02,0,.05,0,.07,0,.03,0,.05,0,.07,0,.02,0,.05,0,.07,0,.02,0,.05,0,.07,0,.03,0,.05,0,.07,0,.02,0,.05,0,.07,0,.02,0,.05,0,.07,0,.02,0,.05,0,.07,0,.03,0,.05,0,.07,0,.02,0,.05,0,.07,0,.02,0,.05,0,.07,0,.02,0,.05,0,.07,0,.03,0,.05,0,.07,0,.02,0,.05,0,.07,0,.02,0,.05,0,.07,0,.02,0,.05,0,.07,0,.03,0,.05,0,.07,0,.02,0,.05,0,.07,0,.02,0,.05,0,.07,0,.02,0,.05,0,.07,0,.03,0,.05,0,.07,0,.02,0,.05,0,.07,0,.02,0,.05,0,.07,0,.02,0,.05,0,.07,0,.03,0,.05,0,.07,0,.02,0,.05,0,.07,0,.02,0,.05,0,.07,0,.02,0,.05,0,.07,0,.03,0,.05,0,.07,0,.02,0,.05,0,.07,0,.02,0,.05,0,.07,0,.02,0,.05,0,.07,0,.03,0,.05,0,.07,0,.02,0,.05,0,.07,0,.02,0,.05,0,.07,0,.03,0,.05,0,.07,0,.02,0,.05,0,.07,0,.02,0,.05,0,.07,0,.02,0,.05,0,.07,0,.03,0,.05,0,.07,0,.02,0,.05,0,.07,0,.02,0,.05,0,.07,0,.02,0,.05,0,.07,0,.03,0,.05,0,.07,0,.02,0,.05,0,.07,0,.02,0,.05,0,.07,0,.02,0,.05,0,.07,0,.03,0,.05,0,.07,0,.02,0,.05,0,.07,0,.02,0,.05,0,.07,0,.02,0,.05,0,.07,0,.03,0,.05,0,.07,0,.02,0,.05,0,.07,0,.02,0,.05,0,.07,0,.02,0,.05,0,.07,0,.03,0,.05,0,.07,0,.03,0,.05,0,.07,0,.02,0,.05,0,.07,0,.02,0,.05,0,.07,0,.03,0,.05,0,.07,0,.02,0,.05,0,.07,0,.02,0,.05,0,.07,0,.02,0,.05,0,.07,0,.03,0,.05,0,.07,0,.02,0,.05,0,.07,0,.02,0,.05,0,.07,0,.02,0,.05,0,.07,0,.03,0,.05,0,.07,0,.02,0,.05,0,.07,0,.02,0,.05,0,.07,0,.03,0,.05,0,.07,0,.02,0,.05,0,.07,0,.02,0,.05,0,.07,0,.02,0,.05,0,.07,0,.03,0,.05,0,.07,0,.02,0,.05,0,.07,0,.02,0,.05,0,.07,0,.02,0,.05,0,.07,0,.03,0,.05,0,.07,0,.02,0,.05,0,.07,0,.02,0,.05,0,.07,0,.02,0,.05,0,.07,0,.03,0,.05,0,.07,0,.02,0,.05,0,.07,0,.02,0,.05,0,.07,0,.02,0,.05,0,.07,0,.03,0,.05,0,.07,0,.02,0,.05,0,.07,0,.02,0,.05,0,.07,0,.02,0,.05,0,.07,0,.03,0,.05,0,.07,0,.02,0,.05,0,.07,0,.02,0,.05,0,.07,0,.02,0,.05,0,.07,0,.03,0,.05,0,.07,0,.03,0,.05,0,.07,0,.02,0,.05,0,.07,0,.02,0,.05,0,.07,0,.03,0,.05,0,.07,0,.02,0,.05,0,.07,0,.02,0,.05,0,.07,0,.03,0,.05,0,.07,0,.02,0,.05,0,.07,0,.02,0,.05,0,.07,0,.02,0,.05,0,.07,0,.03,0,.05,0,.07,0,.02,0,.05,0,.07,0,.02,0,.05,0,.07,0,.02,0,.05,0,.07,0,.03,0,.05,0,.07,0,.02,0,.05,0,.07,0,.02,0,.05,0,.07,0,.02,0,.05,0,.07,0,.03,0,.05,0,.07,0,.02,0,.05,0,.07,0,.02,0,.05,0,.07,0,.02,0,.05,0,.07,0,.03,0,.05,0,.07,0,.02,0,.05,0,.07,0,.02,0,.05,0,.07,0,.02,0,.05,0,.07,0,.03,0,.05,0,.07,0,.02,0,.05,0,.07,0,.02,0,.05,0,.07,0,.02,0,.05,0,.07,0,.03,0,.05,0,.07,0,.02,0,.05,0,.07,0,.02,0,.05,0,.07,0,.02,0,.05,0,.07,0,.03,0,.05,0,.07,0,.02,0,.05,0,.07,0,.02,0,.05,0,.07,0,.02,0,.05,0,.07,0,.02,0,.05,0,.07,0,.02,0,.05,0,.07,0,.02,0,.05,0,.07,0,.03,0,.05,0,.07,0,.02,0,.05,0,.07,0,.02,0,.05,0,.07,0,.02,0,.05,0,.07,0,.03,0,.05,0,.07,0,.02,0,.05,0,.07,0,.02,0,.05,0,.07,0,.02,0,.05,0,.07,0,.03,0,.05,0,.07,0,.02,0,.05,0,.07,0,.02,0,.05,0,.07,0,.02,0,.05,0,.07,0,.03,0,.05,0,.07,0,.02,0,.05,0,.07,0,.02,0,.05,0,.07,0,.02,0,.05,0,.07,0,.03,0,.05,0,.07,0,.03,0,.05,0,.07,0,.02,0,.05,0,.07,0,.12,0,.24.03.37.01.06.03.12.04.18,0,.02.02.03.02.04l-60.91,21.06,60.8-53.86ZM61.43,117.73c-7.18,2.88-14.51,4.51-21.78,4.86-11.19.54-17.35-2.01-23.86-4.71-1.65-.69-3.36-1.39-5.17-2.06-2.08-.76-3.96-1.8-5.94-2.9l-1.01-.58s0-.12,0-.14c0-.06,0-.12,0-.15,0-.06,0-.12,0-.15,0-.06,0-.12,0-.15,0-.06,0-.12,0-.15,0-.06,0-.12,0-.15,0-.06,0-.12,0-.15,0-.06,0-.12,0-.15,0-.06,0-.12,0-.15,0-.06,0-.12,0-.15,0-.06,0-.12,0-.15,0-.06,0-.12,0-.15,0-.06,0-.12,0-.15,0-.06,0-.12,0-.15,0-.06,0-.12,0-.15,0-.06,0-.12,0-.15,0-.06,0-.12,0-.15,0-.06,0-.12,0-.15,0-.06,0-.12,0-.15,0-.06,0-.12,0-.15,0-.06,0-.12,0-.15,0-.06,0-.12,0-.15,0-.06,0-.12,0-.15,0-.06,0-.12,0-.15,0-.06,0-.12,0-.15,0-.06,0-.12,0-.15,0-.06,0-.12,0-.15,0-.06,0-.12,0-.15,0-.06,0-.12,0-.15,0-.06,0-.12,0-.15,0-.06,0-.12,0-.15,0-.06,0-.12,0-.15,0-.06,0-.12,0-.15,0-.06,0-.12,0-.15,0-.06,0-.12,0-.15,0-.06,0-.12,0-.15,0-.06,0-.12,0-.15,0-.06,0-.12,0-.15,0-.06,0-.12,0-.15,0-.06,0-.12,0-.15,0-.06,0-.12,0-.15,0-.06,0-.12,0-.15,0-.06,0-.12,0-.15,0-.06,0-.12,0-.15,0-.06,0-.12,0-.15,0-.06,0-.12,0-.15,0-.06,0-.12,0-.15,0-.06,0-.12,0-.15,0-.06,0-.12,0-.15,0-.06,0-.12,0-.15,0-.06,0-.12,0-.15,0-.06,0-.12,0-.15,0-.06,0-.12,0-.15,0-.06,0-.12,0-.15,0-.06,0-.12,0-.15,0-.06,0-.12,0-.15,0-.06,0-.12,0-.15,0-.06,0-.12,0-.15,0-.06,0-.12,0-.15,0-.06,0-.12,0-.15,0-.06,0-.12,0-.15,0-.06,0-.12,0-.15,0-.06,0-.12,0-.15,0-.06,0-.12,0-.15,0-.06,0-.12,0-.15,0-.06,0-.12,0-.15,0-.06,0-.12,0-.15,0-.06,0-.12,0-.15,0-.06,0-.12,0-.15,0-.06,0-.12,0-.15,0-.06,0-.12,0-.15,0-.06,0-.12,0-.15,0-.06,0-.12,0-.15,0-.06,0-.12,0-.15,0-.06,0-.12,0-.15,0-.06,0-.12,0-.15,0-.06,0-.12,0-.15,0-.06,0-.12,0-.15,0-.06,0-.12,0-.15,0-.06,0-.12,0-.15,0-.06,0-.12,0-.15,0-.06,0-.12,0-.15,0-.06,0-.12,0-.15,0-.06,0-.12,0-.15,0-.06,0-.12,0-.15,0-.06,0-.12,0-.15,0-.06,0-.12,0-.15,0-.06,0-.12,0-.15,0-.06,0-.12,0-.15,0-.06,0-.12,0-.15,0-.06,0-.12,0-.15,0-.06,0-.12,0-.15,0-.06,0-.12,0-.15,0-.06,0-.12,0-.15,0-.06,0-.12,0-.15,0-.06,0-.12,0-.15,0-.06,0-.12,0-.15,0-.06,0-.12,0-.15,0-.06,0-.12,0-.15,0-.06,0-.12,0-.15,0-.06,0-.12,0-.15,0-.06,0-.12,0-.15,0-.06,0-.12,0-.15,0-.06,0-.12,0-.15,0-.06,0-.12,0-.15,0-.06,0-.12,0-.15,0-.06,0-.12,0-.15,0-.06,0-.12,0-.15,0-.06,0-.12,0-.15,0-.06,0-.12,0-.15,0-.06,0-.12,0-.15,0-.06,0-.12,0-.15,0-.06,0-.12,0-.15,0-.06,0-.12,0-.15,0-.06,0-.12,0-.15,0-.06,0-.12,0-.15,0-.06,0-.12,0-.15,0-.06,0-.12,0-.15,0-.06,0-.12,0-.15,0-.06,0-.12,0-.15,0-.06,0-.12,0-.15,0-.06,0-.12,0-.15,0-.06,0-.12,0-.15,0-.06,0-.12,0-.15,0-.06,0-.12,0-.15,0-.06,0-.12,0-.15,0-.06,0-.12,0-.15,0-.06,0-.12,0-.15,0-.06,0-.12,0-.15,0-.06,0-.12,0-.15,0-.06,0-.12,0-.15,0-.06,0-.12,0-.15,0-.06,0-.12,0-.15,0-.06,0-.12,0-.15,0-.06,0-.12,0-.15,0-.06,0-.12,0-.15,0-.06,0-.12,0-.15,0-.06,0-.12,0-.15,0-.06,0-.12,0-.15,0-.06,0-.12,0-.15,0-.06,0-.12,0-.15,0-.06,0-.12,0-.15,0-.06,0-.12,0-.15,0-.06,0-.12,0-.15,0-.06,0-.12,0-.15,0-.06,0-.12,0-.15,0-.06,0-.12,0-.15,0-.06,0-.12,0-.15,0-.06,0-.12,0-.15,0-.06,0-.12,0-.15,0-.06,0-.12,0-.15,0-.06,0-.12,0-.15,0-.06,0-.12,0-.15,0-.06,0-.12,0-.15,0-.06,0-.12,0-.15,0-.06,0-.12,0-.15,0-.06,0-.12,0-.15,0-.06,0-.12,0-.15,0-.06,0-.12,0-.15,0-.06,0-.12,0-.15,0-.06,0-.12,0-.15,0-.06,0-.12,0-.15,0-.06,0-.12,0-.15,0-.06,0-.12,0-.15,0-.06,0-.12,0-.15,0-.06,0-.12,0-.15,0-.06,0-.12,0-.15,0-.06,0-.12,0-.15,0-.06,0-.12,0-.15,0-.06,0-.12,0-.15,0-.06,0-.12,0-.15,0-.06,0-.12,0-.15,0-.06,0-.12,0-.15,0-.06,0-.12,0-.15,0-.06,0-.12,0-.15,0-.06,0-.12,0-.15,0-.06,0-.12,0-.15,0-.06,0-.12,0-.15,0-.06,0-.12,0-.15,0-.06,0-.12,0-.15,0-.06,0-.12,0-.15,0-.06,0-.12,0-.15,0-.06,0-.12,0-.15,0-.06,0-.12,0-.15,0-.06,0-.12,0-.15,0-.06,0-.12,0-.15,0-.06,0-.12,0-.15,0-.06,0-.12,0-.15,0-.06,0-.12,0-.15,0-.06,0-.12,0-.15,0-.06,0-.12,0-.15,0-.06,0-.12,0-.15,0-.06,0-.12,0-.15,0-.06,0-.12,0-.15,0-.06,0-.12,0-.15,0-.06,0-.12,0-.15,0-.06,0-.12,0-.15,0-.06,0-.12,0-.15,0-.06,0-.12,0-.15,0-.06,0-.12,0-.15,0-.06,0-.12,0-.15,0-.06,0-.12,0-.15,0-.06,0-.12,0-.15,0-.06,0-.12,0-.15,0-.06,0-.12,0-.15,0-.06,0-.12,0-.15,0-.06,0-.12,0-.15,0-.06,0-.12,0-.15,0-.06,0-.12,0-.15,0-.06,0-.12,0-.15,0-.06,0-.12,0-.15,0-.06,0-.12,0-.15,0-.06,0-.12,0-.15,0-.06,0-.12,0-.15,0-.06,0-.12,0-.15,0-.06,0-.12,0-.15,0-.06,0-.12,0-.15,0-.06,0-.12,0-.15,0-.06,0-.12,0-.15,0-.06,0-.12,0-.15,0-.06,0-.12,0-.15,0-.06,0-.12,0-.15,0-.06,0-.12,0-.15,0-.06,0-.12,0-.15,0-.06,0-.12,0-.15,0-.06,0-.12,0-.15,0-.06,0-.12,0-.15,0-.06,0-.12,0-.15,0-.06,0-.12,0-.15,0-.06,0-.12,0-.15,0-.06,0-.12,0-.15,0-.06,0-.12,0-.15,0-.06,0-.12,0-.15,0-.06,0-.12,0-.15,0-.06,0-.12,0-.15,0-.06,0-.12,0-.15,0-.06,0-.12,0-.15,0-.06,0-.12,0-.15,0-.06,0-.12,0-.15,0-.06,0-.12,0-.15,0-.06,0-.12,0-.15,0-.06,0-.12,0-.15,0-.06,0-.12,0-.15,0-.06,0-.12,0-.15,0-.06,0-.12,0-.15,0-.06,0-.12,0-.15,0-.06,0-.12,0-.15,0-.06,0-.12,0-.15,0-.06,0-.12,0-.15,0-.06,0-.12,0-.15,0-.06,0-.12,0-.15,0-.06,0-.12,0-.15,0-.06,0-.12,0-.15,0-.06,0-.12,0-.15,0-.06,0-.12,0-.15,0-.06,0-.12,0-.15,0-.06,0-.12,0-.15,0-.06,0-.12,0-.15,0-.06,0-.12,0-.15,0-.06,0-.12,0-.15,0-.06,0-.12,0-.15,0-.06,0-.12,0-.15,0-.06,0-.12,0-.15,0-.06,0-.12,0-.15,0-.06,0-.12,0-.15,0-.06,0-.12,0-.15,0-.06,0-.12,0-.15,0-.06,0-.12,0-.15,0-.06,0-.12,0-.15,0-.06,0-.12,0-.15,0-.06,0-.12,0-.15,0-.06,0-.12,0-.15,0-.06,0-.12,0-.15,0-.06,0-.12,0-.15,0-.06,0-.12,0-.15,0-.06,0-.12,0-.15,0-.06,0-.12,0-.15,0-.06,0-.12,0-.15,0-.06,0-.12,0-.15,0-.06,0-.12,0-.15,0-.06,0-.12,0-.15,0-.06,0-.12,0-.15,0-.06,0-.12,0-.15,0-.06,0-.12,0-.15,0-.06,0-.12,0-.15,0-.06,0-.12,0-.15,0-.06,0-.12,0-.15,0-.06,0-.12,0-.15,0-.06,0-.12,0-.15,0-.06,0-.12,0-.15,0-.06,0-.12,0-.15,0-.06,0-.12,0-.15,0-.06,0-.12,0-.15,0-.06,0-.12,0-.15,0-.06,0-.12,0-.15,0-.06,0-.12,0-.15,0-.06,0-.12,0-.15,0-.06,0-.12,0-.15,0-.06,0-.12,0-.15,0-.06,0-.12,0-.15,0-.06,0-.12,0-.15,0-.06,0-.12,0-.15,0-.06,0-.12,0-.15,0-.06,0-.12,0-.15,0-.06,0-.12,0-.15,0-.06,0-.12,0-.15,0-.06,0-.12,0-.15,0-.06,0-.12,0-.15,0-.06,0-.12,0-.15,0-.06,0-.12,0-.15,0-.06,0-.12,0-.15,0-.06,0-.12,0-.15,0-.06,0-.12,0-.15,0-.06,0-.12,0-.15,0-.06,0-.12,0-.15,0-.06,0-.12,0-.15,0-.06,0-.12,0-.15,0-.06,0-.12,0-.15,0-.06,0-.12,0-.15,0-.06,0-.12,0-.15,0-.06,0-.12,0-.15,0-.06,0-.12,0-.15,0-.06,0-.12,0-.15,0-.06,0-.12,0-.15,0-.06,0-.12,0-.15,0-.06,0-.12,0-.15,0-.06,0-.12,0-.15,0-.06,0-.12,0-.15,0-.06,0-.12,0-.15,0-.06,0-.12,0-.15,0-.06,0-.12,0-.15,0-.06,0-.12,0-.15,0-.06,0-.12,0-.15,0-.06,0-.12,0-.15,0-.06,0-.12,0-.15,0-.06,0-.12,0-.15,0-.06,0-.12,0-.15,0-.06,0-.12,0-.15,0-.06,0-.12,0-.15,0-.06,0-.12,0-.15,0-.06,0-.12,0-.15,0-.06,0-.12,0-.15,0-.06,0-.12,0-.15,0-.06,0-.12,0-.15,0-.06,0-.12,0-.15,0-.06,0-.12,0-.15,0-.06,0-.12,0-.15,0-.06,0-.12,0-.15,0-.06,0-.12,0-.15,0-.06,0-.12,0-.15,0-.06,0-.12,0-.15,0-.06,0-.12,0-.15,0-.06,0-.12,0-.15,0-.06,0-.12,0-.15,0-.06,0-.12,0-.15,0-.06,0-.12,0-.15,0-.06,0-.12,0-.15,0-.06,0-.12,0-.15,0-.06,0-.12,0-.15,0-.06,0-.12,0-.15,0-.06,0-.12,0-.15,0-.06,0-.12,0-.15,0-.06,0-.12,0-.15,0-.06,0-.12,0-.15,0-.06,0-.12,0-.15,0-.06,0-.12,0-.15,0-.06,0-.12,0-.15,0-.06,0-.12,0-.15,0-.06,0-.12,0-.15,0-.06,0-.12,0-.15,0-.06,0-.12,0-.15,0-.06,0-.12,0-.15,0-.06,0-.12,0-.15,0-.06,0-.12,0-.15,0-.06,0-.12,0-.15,0-.06,0-.12,0-.15,0-.06,0-.12,0-.15,0-.06,0-.12,0-.15,0-.06,0-.12,0-.15,0-.06,0-.12,0-.15,0-.06,0-.12,0-.15,0-.06,0-.12,0-.15,0-.06,0-.12,0-.15,0-.06,0-.12,0-.15,0-.06,0-.12,0-.15,0-.06,0-.12,0-.15,0-.06,0-.12,0-.15,0-.06,0-.12,0-.15,0-.06,0-.12,0-.15,0-.06,0-.12,0-.15,0-.06,0-.12,0-.15,0-.06,0-.12,0-.15,0-.06,0-.12,0-.15,0-.06,0-.12,0-.15,0-.06,0-.12,0-.15,0-.06,0-.12,0-.15,0-.06,0-.12,0-.15,0-.06,0-.12,0-.15,0-.06,0-.12,0-.15,0-.06,0-.12,0-.15,0-.06,0-.12,0-.15,0-.06,0-.12,0-.15,0-.06,0-.12,0-.15,0-.06,0-.12,0-.15,0-.06,0-.12,0-.15,0-.06,0-.12,0-.15,0-.06,0-.12,0-.15,0-.06,0-.12,0-.15,0-.06,0-.12,0-.15,0-.06,0-.12,0-.15,0-.06,0-.12,0-.15,0-.06,0-.12,0-.15,0-.06,0-.12,0-.15,0-.06,0-.12,0-.15,0-.06,0-.12,0-.15,0-.06,0-.12,0-.15,0-.06,0-.12,0-.15,0-.06,0-.12,0-.15,0-.06,0-.12,0-.15,0-.06,0-.12,0-.15,0-.06,0-.12,0-.15,0-.06,0-.12,0-.15,0-.06,0-.12,0-.15,0-.06,0-.12,0-.15,0-.06,0-.12,0-.15,0-.06,0-.12,0-.15,0-.06,0-.12,0-.15,0-.06,0-.12,0-.15,0-.06,0-.12,0-.15,0-.06,0-.12,0-.15,0-.06,0-.12,0-.15,0-.06,0-.12,0-.15,0-.06,0-.12,0-.15,0-.06,0-.12,0-.15,0-.06,0-.12,0-.15,0-.06,0-.12,0-.15,0-.06,0-.12,0-.15,0-.06,0-.12,0-.15,0-.06,0-.12,0-.15,0-.06,0-.12,0-.15,0-.06,0-.12,0-.15,0-.06,0-.12,0-.15,0-.06,0-.12,0-.15,0-.06,0-.12,0-.15,0-.06,0-.12,0-.15,0-.06,0-.12,0-.15,0-.06,0-.12,0-.15,0-.06,0-.12,0-.15,0-.06,0-.12,0-.15,0-.06,0-.12,0-.15,0-.06,0-.12,0-.15,0-.06,0-.12,0-.15,0-.06,0-.12,0-.15,0-.06,0-.12,0-.15,0-.06,0-.12,0-.15,0-.06,0-.12,0-.15,0-.06,0-.12,0-.15,0-.06,0-.12,0-.15,0-.06,0-.12,0-.15,0-.06,0-.12,0-.15,0-.06,0-.12,0-.15,0-.06,0-.12,0-.15,0-.06,0-.12,0-.15,0-.06,0-.12,0-.15,0-.06,0-.12,0-.15,0-.06,0-.12,0-.15,0-.06,0-.12,0-.15,0-.06,0-.12,0-.15,0-.06,0-.12,0-.15,0-.06,0-.12,0-.15,0-.06,0-.12,0-.15,0-.06,0-.12,0-.15,0-.06,0-.12,0-.15,0-.06,0-.12,0-.15,0-.06,0-.12,0-.15,0-.06,0-.12,0-.15,0-.06,0-.12,0-.15,0-.06,0-.12,0-.15,0-.06,0-.12,0-.15,0-.06,0-.12,0-.15,0-.06,0-.12,0-.15,0-.06,0-.12,0-.15,0-.06,0-.12,0-.15,0-.06,0-.12,0-.15,0-.06,0-.12,0-.15,0-.06,0-.12,0-.15,0-.06,0-.12,0-.15,0-.06,0-.12,0-.15,0-.06,0-.12,0-.15,0-.06,0-.12,0-.15,0,0,0,0,0-.01,5.91,3.19,21.23,11.4,23.43,12.2,11.48,4.22,25.14.1,35.44-5.72L131.42,7.51c.08-.05.17-.11.25-.16,0,.02,0,.03,0,.05,0,0,0,.01,0,.02,0,0,0,.01,0,.02h0s0-.01,0-.02c0,.02,0,.04,0,.06,0,.02,0,.05,0,.07,0,0,0,.01,0,.02,0,0,0,.01,0,.02h0s0-.01,0-.02c0,.02,0,.04,0,.06,0,.02,0,.05,0,.07,0,0,0,.01,0,.02,0,0,0,.01,0,.02h0s0-.01,0-.02c0,.02,0,.04,0,.06,0,.02,0,.05,0,.07,0,0,0,.01,0,.02,0,0,0,.01,0,.02h0s0-.01,0-.02c0,.02,0,.04,0,.06,0,.02,0,.05,0,.07,0,0,0,.01,0,.02,0,0,0,.01,0,.02h0s0-.01,0-.02c0,.02,0,.04,0,.06,0,.02,0,.05,0,.07,0,0,0,.01,0,.02,0,0,0,.01,0,.02h0s0-.01,0-.02c0,.02,0,.04,0,.06,0,.02,0,.05,0,.07,0,0,0,.01,0,.02,0,0,0,.01,0,.02h0s0-.01,0-.02c0,.02,0,.04,0,.06,0,.02,0,.05,0,.07,0,0,0,.01,0,.02,0,0,0,.01,0,.02h0s0-.01,0-.02c0,.02,0,.04,0,.06,0,.02,0,.05,0,.07,0,0,0,.01,0,.02,0,0,0,.01,0,.02h0s0-.01,0-.02c0,.02,0,.04,0,.06,0,.02,0,.05,0,.07,0,0,0,.01,0,.02,0,0,0,.01,0,.02h0s0-.01,0-.02c0,.02,0,.04,0,.06,0,.02,0,.05,0,.07,0,0,0,.01,0,.02,0,0,0,.01,0,.02h0s0-.01,0-.02c0,.02,0,.04,0,.06,0,.02,0,.05,0,.07,0,0,0,.01,0,.02,0,0,0,.01,0,.02h0s0-.01,0-.02c0,.02,0,.04,0,.06,0,.02,0,.05,0,.07,0,0,0,.01,0,.02,0,0,0,.01,0,.02h0s0-.01,0-.02c0,.02,0,.04,0,.06,0,.02,0,.05,0,.07,0,0,0,.01,0,.02,0,0,0,.01,0,.02h0s0-.01,0-.02c0,.02,0,.04,0,.06,0,.02,0,.05,0,.07,0,0,0,.01,0,.02,0,0,0,.01,0,.02h0s0-.01,0-.02c0,.02,0,.04,0,.06,0,.02,0,.05,0,.07,0,0,0,.01,0,.02,0,0,0,.01,0,.02h0s0-.01,0-.02c0,.02,0,.04,0,.06,0,.02,0,.05,0,.07,0,0,0,.01,0,.02,0,0,0,.01,0,.02h0s0-.01,0-.02c0,.02,0,.04,0,.06,0,.02,0,.05,0,.07,0,0,0,.01,0,.02,0,0,0,.01,0,.02h0s0-.01,0-.02c0,.02,0,.04,0,.06,0,.02,0,.05,0,.07,0,0,0,.01,0,.02,0,0,0,.01,0,.02h0s0-.01,0-.02c0,.02,0,.04,0,.06,0,.02,0,.05,0,.07,0,0,0,.01,0,.02,0,0,0,.01,0,.02h0s0-.01,0-.02c0,.02,0,.04,0,.06,0,.02,0,.05,0,.07,0,0,0,.01,0,.02,0,0,0,.01,0,.02h0s0-.01,0-.02c0,.02,0,.04,0,.06,0,.02,0,.05,0,.07,0,0,0,.01,0,.02,0,0,0,.01,0,.02h0s0-.01,0-.02c0,.02,0,.04,0,.06,0,.02,0,.05,0,.07,0,0,0,.01,0,.02,0,0,0,.01,0,.02h0s0-.01,0-.02c0,.02,0,.04,0,.06,0,.02,0,.05,0,.07,0,0,0,.01,0,.02,0,0,0,.01,0,.02h0s0-.01,0-.02c0,.02,0,.04,0,.06,0,.02,0,.05,0,.07,0,0,0,.01,0,.02,0,0,0,.01,0,.02h0s0-.01,0-.02c0,.02,0,.04,0,.06,0,.02,0,.05,0,.07,0,0,0,.01,0,.02,0,0,0,.01,0,.02h0s0-.01,0-.02c0,.02,0,.04,0,.06,0,.02,0,.05,0,.07,0,0,0,.01,0,.02,0,0,0,.01,0,.02h0s0-.01,0-.02c0,.02,0,.04,0,.06,0,.02,0,.05,0,.07,0,0,0,.01,0,.02,0,0,0,.01,0,.02h0s0-.01,0-.02c0,.02,0,.04,0,.06,0,.02,0,.05,0,.07,0,0,0,.01,0,.02,0,0,0,.01,0,.02h0s0-.01,0-.02c0,.02,0,.04,0,.06,0,.02,0,.05,0,.07,0,0,0,.01,0,.02,0,0,0,.01,0,.02h0s0-.01,0-.02c0,.02,0,.04,0,.06,0,.02,0,.05,0,.07,0,0,0,.01,0,.02,0,0,0,.01,0,.02h0s0-.01,0-.02c0,.02,0,.04,0,.06,0,.02,0,.05,0,.07,0,0,0,.01,0,.02,0,0,0,.01,0,.02h0s0-.01,0-.02c0,.02,0,.04,0,.06,0,.02,0,.05,0,.07,0,0,0,.01,0,.02,0,0,0,.01,0,.02h0s0-.01,0-.02c0,.02,0,.04,0,.06,0,.02,0,.05,0,.07,0,0,0,.01,0,.02,0,0,0,.01,0,.02h0s0-.01,0-.02c0,.02,0,.04,0,.06,0,.02,0,.05,0,.07,0,0,0,.01,0,.02,0,0,0,.01,0,.02h0s0-.01,0-.02c0,.02,0,.04,0,.06,0,.02,0,.05,0,.07,0,0,0,.01,0,.02,0,0,0,.01,0,.02h0s0-.01,0-.02c0,.02,0,.04,0,.06,0,.02,0,.05,0,.07,0,0,0,.01,0,.02,0,0,0,.01,0,.02h0s0-.01,0-.02c0,.02,0,.04,0,.06,0,.02,0,.05,0,.07,0,0,0,.01,0,.02,0,0,0,.01,0,.02h0s0-.01,0-.02c0,.02,0,.04,0,.06,0,.02,0,.05,0,.07,0,0,0,.01,0,.02,0,0,0,.01,0,.02h0s0-.01,0-.02c0,.02,0,.04,0,.06,0,.02,0,.05,0,.07,0,0,0,.01,0,.02,0,0,0,.01,0,.02h0s0-.01,0-.02c0,.02,0,.04,0,.06,0,.02,0,.05,0,.07,0,0,0,.01,0,.02,0,0,0,.01,0,.02h0s0-.01,0-.02c0,.02,0,.04,0,.06,0,.02,0,.05,0,.07,0,0,0,.01,0,.02,0,0,0,.01,0,.02h0s0-.01,0-.02c0,.02,0,.04,0,.06,0,.02,0,.05,0,.07,0,0,0,.01,0,.02,0,0,0,.01,0,.02h0s0-.01,0-.02c0,.02,0,.04,0,.06,0,.02,0,.05,0,.07,0,0,0,.01,0,.02,0,0,0,.01,0,.02h0s0-.01,0-.02c0,.02,0,.04,0,.06,0,.02,0,.05,0,.07,0,0,0,.01,0,.02,0,0,0,.01,0,.02h0s0-.01,0-.02c0,.02,0,.04,0,.06,0,.02,0,.05,0,.07,0,0,0,.01,0,.02,0,0,0,.01,0,.02h0s0-.01,0-.02c0,.02,0,.04,0,.06,0,.02,0,.05,0,.07,0,0,0,.01,0,.02,0,0,0,.01,0,.02h0s0-.01,0-.02c0,.02,0,.04,0,.06,0,.02,0,.05,0,.07,0,0,0,.01,0,.02,0,0,0,.01,0,.02h0s0-.01,0-.02c0,.02,0,.04,0,.06,0,.02,0,.05,0,.07,0,0,0,.01,0,.02,0,0,0,.01,0,.02h0s0-.01,0-.02c0,.02,0,.04,0,.06,0,.02,0,.05,0,.07,0,0,0,.01,0,.02,0,0,0,.01,0,.02h0s0-.01,0-.02c0,.02,0,.04,0,.06,0,.02,0,.05,0,.07,0,0,0,.01,0,.02,0,0,0,.01,0,.02h0s0-.01,0-.02c0,.02,0,.04,0,.06,0,.02,0,.05,0,.07,0,0,0,.01,0,.02,0,0,0,.01,0,.02h0s0-.01,0-.02c0,.02,0,.04,0,.06,0,.02,0,.05,0,.07,0,0,0,.01,0,.02,0,0,0,.01,0,.02h0s0-.01,0-.02c0,.02,0,.04,0,.06,0,.02,0,.05,0,.07,0,0,0,.01,0,.02,0,0,0,.01,0,.02h0s0-.01,0-.02c0,.02,0,.04,0,.06,0,.02,0,.05,0,.07,0,0,0,.01,0,.02,0,0,0,.01,0,.02h0s0-.01,0-.02c0,.02,0,.04,0,.06,0,.02,0,.05,0,.07,0,0,0,.01,0,.02,0,0,0,.01,0,.02h0s0-.01,0-.02c0,.02,0,.04,0,.06,0,.02,0,.05,0,.07,0,0,0,.01,0,.02,0,0,0,.01,0,.02h0s0-.01,0-.02c0,.02,0,.04,0,.06,0,.02,0,.05,0,.07,0,0,0,.01,0,.02,0,0,0,.01,0,.02h0s0-.01,0-.02c0,.02,0,.04,0,.06,0,.02,0,.05,0,.07,0,0,0,.01,0,.02,0,0,0,.01,0,.02h0s0-.01,0-.02c0,.02,0,.04,0,.06,0,.02,0,.05,0,.07,0,0,0,.01,0,.02,0,0,0,.01,0,.02h0s0-.01,0-.02c0,.02,0,.04,0,.06,0,.02,0,.05,0,.07,0,0,0,.01,0,.02,0,0,0,.01,0,.02h0s0-.01,0-.02c0,.02,0,.04,0,.06,0,.02,0,.05,0,.07,0,0,0,.01,0,.02,0,0,0,.01,0,.02h0s0-.01,0-.02c0,.02,0,.04,0,.06,0,.02,0,.05,0,.07,0,0,0,.01,0,.02,0,0,0,.01,0,.02h0s0-.01,0-.02c0,.02,0,.04,0,.06,0,.02,0,.05,0,.07,0,0,0,.01,0,.02,0,0,0,.01,0,.02h0s0-.01,0-.02c0,.02,0,.04,0,.06,0,.02,0,.05,0,.07,0,0,0,.01,0,.02,0,0,0,.01,0,.02h0s0-.01,0-.02c0,.02,0,.04,0,.06,0,.02,0,.05,0,.07,0,0,0,.01,0,.02,0,0,0,.01,0,.02h0s0-.01,0-.02c0,.02,0,.04,0,.06,0,.02,0,.05,0,.07,0,0,0,.01,0,.02,0,0,0,.01,0,.02h0s0-.01,0-.02c0,.02,0,.04,0,.06,0,.02,0,.05,0,.07,0,0,0,.01,0,.02,0,0,0,.01,0,.02h0s0-.01,0-.02c0,.02,0,.04,0,.06,0,.02,0,.05,0,.07,0,0,0,.01,0,.02,0,0,0,.01,0,.02h0s0-.01,0-.02c0,.02,0,.04,0,.06,0,.02,0,.05,0,.07,0,0,0,.01,0,.02,0,0,0,.01,0,.02h0s0-.01,0-.02c0,.02,0,.04,0,.06,0,.02,0,.05,0,.07,0,0,0,.01,0,.02,0,0,0,.01,0,.02h0s0-.01,0-.02c0,.02,0,.04,0,.06,0,.02,0,.05,0,.07,0,0,0,.01,0,.02,0,0,0,.01,0,.02h0s0-.01,0-.02c0,.02,0,.04,0,.06,0,.02,0,.05,0,.07,0,0,0,.01,0,.02,0,0,0,.01,0,.02h0s0-.01,0-.02c0,.02,0,.04,0,.06,0,.02,0,.05,0,.07,0,0,0,.01,0,.02,0,0,0,.01,0,.02h0s0-.01,0-.02c0,.02,0,.04,0,.06,0,.02,0,.05,0,.07,0,0,0,.01,0,.02,0,0,0,.01,0,.02h0s0-.01,0-.02c0,.02,0,.04,0,.06,0,.02,0,.05,0,.07,0,0,0,.01,0,.02,0,0,0,.01,0,.02h0s0-.01,0-.02c0,.02,0,.04,0,.06,0,.02,0,.05,0,.07,0,0,0,.01,0,.02,0,0,0,.01,0,.02h0s0-.01,0-.02c0,.02,0,.04,0,.06,0,.02,0,.05,0,.07,0,0,0,.01,0,.02,0,0,0,.01,0,.02h0s0-.01,0-.02c0,.02,0,.04,0,.06,0,.02,0,.05,0,.07,0,0,0,.01,0,.02,0,0,0,.01,0,.02h0s0-.01,0-.02c0,.02,0,.04,0,.06,0,.02,0,.05,0,.07,0,0,0,.01,0,.02,0,0,0,.01,0,.02h0s0-.01,0-.02c0,.02,0,.04,0,.06,0,.02,0,.05,0,.07,0,0,0,.01,0,.02,0,0,0,.01,0,.02h0s0-.01,0-.02c0,.02,0,.04,0,.06,0,.02,0,.05,0,.07,0,0,0,.01,0,.02,0,0,0,.01,0,.02h0s0-.01,0-.02c0,.02,0,.04,0,.06,0,.02,0,.05,0,.07,0,0,0,.01,0,.02,0,0,0,.01,0,.02h0s0-.01,0-.02c0,.02,0,.04,0,.06,0,.02,0,.05,0,.07,0,0,0,.01,0,.02,0,0,0,.01,0,.02h0s0-.01,0-.02c0,.02,0,.04,0,.06,0,.02,0,.05,0,.07,0,0,0,.01,0,.02,0,0,0,.01,0,.02h0s0-.01,0-.02c0,.02,0,.04,0,.06,0,.02,0,.05,0,.07,0,0,0,.01,0,.02,0,0,0,.01,0,.02h0s0-.01,0-.02c0,.02,0,.04,0,.06,0,.02,0,.05,0,.07,0,0,0,.01,0,.02,0,0,0,.01,0,.02h0s0-.01,0-.02c0,.02,0,.04,0,.06,0,.02,0,.05,0,.07,0,0,0,.01,0,.02,0,0,0,.01,0,.02h0s0-.01,0-.02c0,.02,0,.04,0,.06,0,.02,0,.05,0,.07,0,0,0,.01,0,.02,0,0,0,.01,0,.02h0s0-.01,0-.02c0,.02,0,.04,0,.06,0,.02,0,.05,0,.07,0,0,0,.01,0,.02,0,0,0,.01,0,.02h0s0-.01,0-.02c0,.02,0,.04,0,.06,0,.02,0,.05,0,.07,0,0,0,.01,0,.02,0,0,0,.01,0,.02h0s0-.01,0-.02c0,.02,0,.04,0,.06,0,.02,0,.05,0,.07,0,0,0,.01,0,.02,0,0,0,.01,0,.02h0s0-.01,0-.02c0,.02,0,.04,0,.06,0,.02,0,.05,0,.07,0,0,0,.01,0,.02,0,0,0,.01,0,.02h0s0-.01,0-.02c0,.02,0,.04,0,.06,0,.02,0,.05,0,.07,0,0,0,.01,0,.02,0,0,0,.01,0,.02h0s0-.01,0-.02c0,.02,0,.04,0,.06,0,.02,0,.05,0,.07,0,0,0,.01,0,.02,0,0,0,.01,0,.02h0s0-.01,0-.02c0,.02,0,.04,0,.06,0,.02,0,.05,0,.07,0,0,0,.01,0,.02,0,0,0,.01,0,.02h0s0-.01,0-.02c0,.02,0,.04,0,.06,0,.02,0,.05,0,.07,0,0,0,.01,0,.02,0,0,0,.01,0,.02h0s0-.01,0-.02c0,.02,0,.04,0,.06,0,.02,0,.05,0,.07,0,0,0,.01,0,.02,0,0,0,.01,0,.02h0s0-.01,0-.02c0,.02,0,.04,0,.06,0,.02,0,.05,0,.07,0,0,0,.01,0,.02,0,0,0,.01,0,.02h0s0-.01,0-.02c0,.02,0,.04,0,.06,0,.02,0,.05,0,.07,0,0,0,.01,0,.02,0,0,0,.01,0,.02h0s0-.01,0-.02c0,.02,0,.04,0,.06,0,.02,0,.05,0,.07,0,0,0,.01,0,.02,0,0,0,.01,0,.02h0s0-.01,0-.02c0,.02,0,.04,0,.06,0,.03,0,.05,0,.08h0v.6c0,.4.01.8.01.8,0,.05.03.1.04.15l-58.97,53.24c-1.89,1.7-3.66,3.14-5.23,5.02-.46.54-.71,1.2-.67,1.89,0,0,0,0,0,.02l.03,31.51-5.45,2.18ZM76.78,155.67c-1.51.55-4.11.72-5.31.12-.18-.09-.3-.19-.32-.25-.02-.05-.02-.11-.02-.25,0-.04,0-.11,0-.15,0-.04,0-.11,0-.15,0-.04,0-.11,0-.15,0-.04,0-.11,0-.15,0-.04,0-.11,0-.15,0-.04,0-.11,0-.15,0-.04,0-.11,0-.15,0-.04,0-.11,0-.15,0-.04,0-.11,0-.15,0-.04,0-.11,0-.15,0-.04,0-.11,0-.15,0-.04,0-.11,0-.15,0-.04,0-.11,0-.15,0-.04,0-.11,0-.15,0-.04,0-.11,0-.15,0-.04,0-.11,0-.15,0-.04,0-.11,0-.15,0-.04,0-.11,0-.15,0-.04,0-.11,0-.15,0-.04,0-.11,0-.15,0-.04,0-.11,0-.15,0-.04,0-.11,0-.15,0-.04,0-.11,0-.15,0-.04,0-.11,0-.15,0-.04,0-.11,0-.15,0-.04,0-.11,0-.15,0-.04,0-.11,0-.15,0-.04,0-.11,0-.15,0-.04,0-.11,0-.15,0-.04,0-.11,0-.15,0-.04,0-.11,0-.15,0-.04,0-.11,0-.15,0-.04,0-.11,0-.15,0-.04,0-.11,0-.15,0-.04,0-.11,0-.15,0-.04,0-.11,0-.15,0-.04,0-.11,0-.15,0-.04,0-.11,0-.15,0-.04,0-.11,0-.15,0-.04,0-.11,0-.15,0-.04,0-.11,0-.15,0-.04,0-.11,0-.15,0-.04,0-.11,0-.15,0-.04,0-.11,0-.15,0-.04,0-.11,0-.15,0-.04,0-.11,0-.15,0-.04,0-.11,0-.15,0-.04,0-.11,0-.15,0-.04,0-.11,0-.15,0-.04,0-.11,0-.15,0-.04,0-.11,0-.15,0-.04,0-.11,0-.15,0-.04,0-.11,0-.15,0-.04,0-.11,0-.15,0-.04,0-.11,0-.15,0-.04,0-.11,0-.15,0-.04,0-.11,0-.15,0-.04,0-.11,0-.15,0-.04,0-.11,0-.15,0-.04,0-.11,0-.15,0-.04,0-.11,0-.15,0-.04,0-.11,0-.15,0-.04,0-.11,0-.15,0-.04,0-.11,0-.15,0-.04,0-.11,0-.15,0-.04,0-.11,0-.15,0-.04,0-.11,0-.15,0-.04,0-.11,0-.15,0-.04,0-.11,0-.15,0-.04,0-.11,0-.15,0-.04,0-.11,0-.15,0-.04,0-.11,0-.15,0-.04,0-.11,0-.15,0-.04,0-.11,0-.15,0-.04,0-.11,0-.15,0-.04,0-.11,0-.15,0-.04,0-.11,0-.15,0-.04,0-.11,0-.15,0-.04,0-.11,0-.15,0-.04,0-.11,0-.15,0-.04,0-.11,0-.15,0-.04,0-.11,0-.15,0-.04,0-.11,0-.15,0-.04,0-.11,0-.15,0-.04,0-.11,0-.15,0-.04,0-.11,0-.15,0-.04,0-.11,0-.15,0-.04,0-.11,0-.15,0-.04,0-.11,0-.15,0-.04,0-.11,0-.15,0-.04,0-.11,0-.15,0-.04,0-.11,0-.15,0-.04,0-.11,0-.15,0-.04,0-.11,0-.15,0-.04,0-.11,0-.15,0-.04,0-.11,0-.15,0-.04,0-.11,0-.15,0-.04,0-.11,0-.15,0-.04,0-.11,0-.15,0-.04,0-.11,0-.15,0-.04,0-.11,0-.15,0-.04,0-.11,0-.15,0-.04,0-.11,0-.15,0-.04,0-.11,0-.15,0-.04,0-.11,0-.15,0-.04,0-.11,0-.15,0-.04,0-.11,0-.15,0-.04,0-.11,0-.15,0-.04,0-.11,0-.15,0-.04,0-.11,0-.15,0-.04,0-.11,0-.15,0-.04,0-.11,0-.15,0-.04,0-.11,0-.15,0-.04,0-.11,0-.15,0-.04,0-.11,0-.15,0-.04,0-.11,0-.15,0-.04,0-.11,0-.15,0-.04,0-.11,0-.15,0-.04,0-.11,0-.15,0-.04,0-.11,0-.15,0-.04,0-.11,0-.15,0-.04,0-.11,0-.15,0-.04,0-.11,0-.15,0-.04,0-.11,0-.15,0-.04,0-.11,0-.15,0-.04,0-.11,0-.15,0-.04,0-.11,0-.15,0-.04,0-.11,0-.15,0-.04,0-.11,0-.15,0-.04,0-.11,0-.15,0-.04,0-.11,0-.15,0-.04,0-.11,0-.15,0-.04,0-.11,0-.15,0-.04,0-.11,0-.15,0-.04,0-.11,0-.15,0-.04,0-.11,0-.15,0-.04,0-.11,0-.15,0-.04,0-.11,0-.15,0-.04,0-.11,0-.15,0-.04,0-.11,0-.15,0-.04,0-.11,0-.15,0-.04,0-.11,0-.15,0-.04,0-.11,0-.15,0-.04,0-.11,0-.15,0-.04,0-.11,0-.15,0-.04,0-.11,0-.15,0-.04,0-.11,0-.15,0-.04,0-.11,0-.15,0-.04,0-.11,0-.15,0-.04,0-.11,0-.15,0-.04,0-.11,0-.15,0-.04,0-.11,0-.15,0-.04,0-.11,0-.15,0-.04,0-.11,0-.15,0-.04,0-.11,0-.15,0-.04,0-.11,0-.15,0-.04,0-.11,0-.15,0-.04,0-.11,0-.15,0-.04,0-.11,0-.15,0-.04,0-.11,0-.15,0-.04,0-.11,0-.15,0-.04,0-.11,0-.15,0-.04,0-.11,0-.15,0-.04,0-.11,0-.15,0-.04,0-.11,0-.15,0-.04,0-.11,0-.15,0-.04,0-.11,0-.15,0-.04,0-.11,0-.15,0-.04,0-.11,0-.15,0-.04,0-.11,0-.15,0-.04,0-.11,0-.15,0-.04,0-.11,0-.15,0-.04,0-.11,0-.15,0-.04,0-.11,0-.15,0-.04,0-.11,0-.15,0-.04,0-.11,0-.15,0-.04,0-.11,0-.15,0-.04,0-.11,0-.15,0-.04,0-.11,0-.15,0-.04,0-.11,0-.15,0-.04,0-.11,0-.15,0-.04,0-.11,0-.15,0-.04,0-.11,0-.15,0-.04,0-.11,0-.15,0-.04,0-.11,0-.15,0-.04,0-.11,0-.15,0-.04,0-.11,0-.15,0-.04,0-.11,0-.15,0-.04,0-.11,0-.15,0-.04,0-.11,0-.15,0-.04,0-.11,0-.15,0-.04,0-.11,0-.15,0-.04,0-.11,0-.15,0-.04,0-.11,0-.15,0-.04,0-.11,0-.15,0-.04,0-.11,0-.15,0-.04,0-.11,0-.15,0-.04,0-.11,0-.15,0-.04,0-.11,0-.15,0-.04,0-.11,0-.15,0-.04,0-.11,0-.15,0-.04,0-.11,0-.15,0-.04,0-.11,0-.15,0-.04,0-.11,0-.15,0-.04,0-.11,0-.15,0-.04,0-.11,0-.15,0-.04,0-.11,0-.15,0-.04,0-.11,0-.15,0-.04,0-.11,0-.15,0-.04,0-.11,0-.15,0-.04,0-.11,0-.15,0-.04,0-.11,0-.15,0-.04,0-.11,0-.15,0-.04,0-.11,0-.15,0-.04,0-.11,0-.15,0-.04,0-.11,0-.15,0-.04,0-.11,0-.15,0-.04,0-.11,0-.15,0-.04,0-.11,0-.15,0-.04,0-.11,0-.15,0-.04,0-.11,0-.15,0-.04,0-.11,0-.15,0-.04,0-.11,0-.15,0-.04,0-.11,0-.15,0-.04,0-.11,0-.15,0-.04,0-.11,0-.15,0-.04,0-.11,0-.15,0-.04,0-.11,0-.15,0-.04,0-.11,0-.15,0-.04,0-.11,0-.15,0-.04,0-.11,0-.15,0-.04,0-.11,0-.15,0-.04,0-.11,0-.15,0-.04,0-.11,0-.15,0-.04,0-.11,0-.15,0-.04,0-.11,0-.15,0-.04,0-.11,0-.15,0-.04,0-.11,0-.15,0-.04,0-.11,0-.15,0-.04,0-.11,0-.15,0-.04,0-.11,0-.15,0-.04,0-.11,0-.15,0-.04,0-.11,0-.15,0-.04,0-.11,0-.15,0-.04,0-.11,0-.15,0-.04,0-.11,0-.15,0-.04,0-.11,0-.15,0-.04,0-.11,0-.15,0-.04,0-.11,0-.15,0-.04,0-.11,0-.15,0-.04,0-.11,0-.15,0-.04,0-.11,0-.15,0-.04,0-.11,0-.15,0-.04,0-.11,0-.15,0-.02,0-.05,0-.07l60.48-37.88c4.02-2.28,3.93-6.6,3.87-9.76l-.09-5.97,33.67-12.16-62.11,54.3c-.81.72-1.6,1.79-1.58,2.8l.03,36.8-28.61,9.85ZM223.22,72.65s0,.06,0,.1c0,.02,0,.03,0,.05,0,.03,0,.06,0,.1,0,.02,0,.03,0,.05,0,.03,0,.06,0,.1,0,.02,0,.03,0,.05,0,.03,0,.06,0,.1,0,.02,0,.03,0,.05,0,.03,0,.06,0,.1,0,.02,0,.03,0,.05,0,.03,0,.06,0,.1,0,.02,0,.03,0,.05,0,.03,0,.06,0,.1,0,.02,0,.03,0,.05,0,.03,0,.06,0,.1,0,.02,0,.03,0,.05,0,.03,0,.06,0,.1,0,.02,0,.03,0,.05,0,.03,0,.06,0,.1,0,.02,0,.03,0,.05,0,.03,0,.06,0,.1,0,.02,0,.03,0,.05,0,.03,0,.06,0,.1,0,.02,0,.03,0,.05,0,.03,0,.06,0,.1,0,.02,0,.03,0,.05,0,.03,0,.06,0,.1,0,.02,0,.03,0,.05,0,.03,0,.06,0,.1,0,.02,0,.03,0,.05,0,.03,0,.06,0,.1,0,.02,0,.03,0,.05,0,.03,0,.06,0,.1,0,.02,0,.03,0,.05,0,.03,0,.06,0,.1,0,.02,0,.03,0,.05,0,.03,0,.06,0,.1,0,.02,0,.03,0,.05,0,.03,0,.06,0,.1,0,.02,0,.03,0,.05,0,.03,0,.06,0,.1,0,.02,0,.03,0,.05,0,.03,0,.06,0,.1,0,.02,0,.03,0,.05,0,.03,0,.06,0,.1,0,.02,0,.03,0,.05,0,.03,0,.06,0,.1,0,.02,0,.03,0,.05,0,.03,0,.06,0,.1,0,.02,0,.03,0,.05,0,.03,0,.06,0,.1,0,.02,0,.03,0,.05,0,.03,0,.06,0,.1,0,.02,0,.03,0,.05,0,.03,0,.06,0,.1,0,.02,0,.03,0,.05,0,.03,0,.06,0,.1,0,.02,0,.03,0,.05,0,.03,0,.06,0,.1,0,.02,0,.03,0,.05,0,.03,0,.06,0,.1,0,.02,0,.03,0,.05,0,.03,0,.06,0,.1,0,.02,0,.03,0,.05,0,.03,0,.06,0,.1,0,.02,0,.03,0,.05,0,.03,0,.06,0,.1,0,.02,0,.03,0,.05,0,.03,0,.06,0,.1,0,.02,0,.03,0,.05,0,.03,0,.06,0,.1,0,.02,0,.03,0,.05,0,.03,0,.06,0,.1,0,.02,0,.03,0,.05,0,.03,0,.06,0,.1,0,.02,0,.03,0,.05,0,.03,0,.06,0,.1,0,.02,0,.03,0,.05,0,.03,0,.06,0,.1,0,.02,0,.03,0,.05,0,.03,0,.06,0,.1,0,.02,0,.03,0,.05,0,.03,0,.06,0,.1,0,.02,0,.03,0,.05,0,.03,0,.06,0,.1,0,.02,0,.03,0,.05,0,.03,0,.06,0,.1,0,.02,0,.03,0,.05,0,.03,0,.06,0,.1,0,.02,0,.03,0,.05,0,.03,0,.06,0,.1,0,.02,0,.03,0,.05,0,.03,0,.06,0,.1,0,.02,0,.03,0,.05,0,.03,0,.06,0,.1,0,.02,0,.03,0,.05,0,.03,0,.06,0,.1,0,.02,0,.03,0,.05,0,.03,0,.06,0,.1,0,.02,0,.03,0,.05,0,.03,0,.06,0,.1,0,.02,0,.03,0,.05,0,.03,0,.06,0,.1,0,.02,0,.03,0,.05,0,.03,0,.06,0,.1,0,.02,0,.03,0,.05,0,.03,0,.06,0,.1,0,.02,0,.03,0,.05,0,.03,0,.06,0,.1,0,.02,0,.03,0,.05,0,.03,0,.06,0,.1,0,.02,0,.03,0,.05,0,.03,0,.06,0,.1,0,.02,0,.03,0,.05,0,.03,0,.06,0,.1,0,.02,0,.03,0,.05,0,.03,0,.06,0,.1,0,.02,0,.03,0,.05,0,.03,0,.06,0,.1,0,.02,0,.03,0,.05,0,.03,0,.06,0,.1,0,.02,0,.03,0,.05,0,.03,0,.06,0,.1,0,.02,0,.03,0,.05,0,.03,0,.06,0,.1,0,.02,0,.03,0,.05,0,.03,0,.06,0,.1,0,.02,0,.03,0,.05,0,.03,0,.06,0,.1,0,.02,0,.03,0,.05,0,.03,0,.06,0,.1,0,.02,0,.03,0,.05,0,.03,0,.06,0,.1,0,.02,0,.03,0,.05,0,.03,0,.06,0,.1,0,.02,0,.03,0,.05,0,.03,0,.06,0,.1,0,.02,0,.03,0,.05,0,.03,0,.06,0,.1,0,.02,0,.03,0,.05,0,.03,0,.06,0,.1,0,.02,0,.03,0,.05,0,.03,0,.06,0,.1,0,.02,0,.03,0,.05,0,.03,0,.06,0,.1,0,.02,0,.03,0,.05,0,.03,0,.06,0,.1,0,.02,0,.03,0,.05,0,.03,0,.06,0,.1,0,.02,0,.03,0,.05,0,.03,0,.06,0,.1,0,.02,0,.03,0,.05,0,.03,0,.06,0,.1,0,.02,0,.03,0,.05,0,.03,0,.06,0,.1,0,.02,0,.03,0,.05,0,.03,0,.06,0,.1,0,.02,0,.03,0,.05,0,.03,0,.06,0,.1,0,.02,0,.03,0,.05,0,.03,0,.06,0,.1,0,.02,0,.03,0,.05,0,.03,0,.06,0,.1,0,.02,0,.03,0,.05,0,.03,0,.06,0,.1,0,.02,0,.03,0,.05,0,.03,0,.06,0,.1,0,.02,0,.03,0,.05,0,.03,0,.06,0,.1,0,.02,0,.03,0,.05,0,.03,0,.06,0,.1,0,.02,0,.03,0,.05,0,.03,0,.06,0,.1,0,.02,0,.03,0,.05,0,.03,0,.06,0,.1,0,.02,0,.03,0,.05,0,.03,0,.06,0,.1,0,.02,0,.03,0,.05,0,.03,0,.06,0,.1,0,.02,0,.03,0,.05,0,.03,0,.06,0,.1,0,.02,0,.03,0,.05,0,.03,0,.06,0,.1,0,.02,0,.03,0,.05,0,.03,0,.06,0,.1,0,.02,0,.03,0,.05,0,.03,0,.06,0,.1,0,.02,0,.03,0,.05,0,.03,0,.06,0,.1,0,.02,0,.03,0,.05,0,.03,0,.06,0,.1,0,.02,0,.03,0,.05,0,.03,0,.06,0,.1,0,.02,0,.03,0,.05,0,.03,0,.06,0,.1,0,.02,0,.03,0,.05,0,.03,0,.06,0,.1,0,.02,0,.03,0,.05,0,.03,0,.06,0,.1,0,.02,0,.03,0,.05,0,.03,0,.06,0,.1,0,.02,0,.03,0,.05,0,.03,0,.06,0,.1,0,.02,0,.03,0,.05,0,.03,0,.06,0,.1,0,.02,0,.03,0,.05,0,.03,0,.06,0,.1,0,.02,0,.03,0,.05,0,.03,0,.06,0,.1,0,.02,0,.03,0,.05,0,.03,0,.06,0,.1,0,.02,0,.03,0,.05,0,.03,0,.06,0,.1,0,.02,0,.03,0,.05,0,.03,0,.06,0,.1,0,.02,0,.03,0,.05,0,.03,0,.06,0,.1,0,.02,0,.03,0,.05,0,.03,0,.06,0,.1,0,.02,0,.03,0,.05,0,.03,0,.06,0,.1,0,.02,0,.03,0,.05,0,.03,0,.06,0,.1,0,.02,0,.03,0,.05,0,.03,0,.06,0,.1,0,.02,0,.03,0,.05,0,.03,0,.06,0,.1,0,.02,0,.03,0,.05,0,.03,0,.06,0,.1,0,.02,0,.03,0,.05,0,.03,0,.06,0,.1,0,.02,0,.03,0,.05,0,.03,0,.06,0,.1,0,.02,0,.03,0,.05,0,.03,0,.06,0,.1,0,.02,0,.03,0,.05,0,.03,0,.06,0,.1,0,.02,0,.03,0,.05,0,.03,0,.06,0,.1,0,.02,0,.03,0,.05,0,.03,0,.06,0,.1,0,.02,0,.03,0,.05,0,.03,0,.06,0,.1,0,.02,0,.03,0,.05,0,.03,0,.06,0,.1,0,.02,0,.03,0,.05,0,.03,0,.06,0,.1,0,.02,0,.03,0,.05,0,.03,0,.06,0,.1,0,.02,0,.03,0,.05,0,.03,0,.06,0,.1,0,.02,0,.03,0,.05,0,.03,0,.06,0,.1,0,.02,0,.03,0,.05,0,.03,0,.06,0,.1,0,.02,0,.03,0,.05,0,.03,0,.06,0,.1,0,.02,0,.03,0,.05,0,.03,0,.06,0,.1,0,.02,0,.03,0,.05,0,.03,0,.06,0,.1,0,.02,0,.03,0,.05,0,.03,0,.06,0,.1,0,.02,0,.03,0,.05,0,.03,0,.06,0,.1,0,.02,0,.03,0,.05,0,.03,0,.06,0,.1,0,.02,0,.03,0,.05,0,.03,0,.06,0,.1,0,.02,0,.03,0,.05,0,.03,0,.06,0,.1,0,.02,0,.03,0,.05,0,.03,0,.06,0,.1,0,.02,0,.03,0,.05,0,.03,0,.06,0,.1,0,.02,0,.03,0,.05,0,.03,0,.06,0,.1,0,.02,0,.03,0,.05,0,.03,0,.06,0,.1,0,.02,0,.03,0,.05,0,.03,0,.06,0,.1,0,.02,0,.03,0,.05,0,.03,0,.06,0,.1,0,.02,0,.03,0,.05,0,.03,0,.06,0,.1,0,.02,0,.03,0,.05,0,.03,0,.06,0,.1,0,.02,0,.03,0,.05,0,.03,0,.06,0,.1,0,.02,0,.03,0,.05,0,.03,0,.06,0,.1,0,.02,0,.03,0,.05,0,.03,0,.06,0,.1,0,.02,0,.03,0,.05,0,.03,0,.06,0,.1,0,.02,0,.03,0,.05,0,.03,0,.06,0,.1,0,.02,0,.03,0,.05,0,.03,0,.06,0,.1,0,.02,0,.03,0,.05,0,.03,0,.06,0,.1,0,.02,0,.03,0,.05,0,.03,0,.06,0,.1,0,.02,0,.03,0,.05,0,.03,0,.06,0,.1,0,.02,0,.03,0,.05,0,.03,0,.06,0,.1,0,.02,0,.03,0,.05,0,.03,0,.06,0,.1,0,.02,0,.03,0,.05,0,.03,0,.06,0,.1,0,.02,0,.03,0,.05,0,.03,0,.06,0,.1,0,.02,0,.03,0,.05,0,.03,0,.06,0,.1,0,.02,0,.03,0,.05,0,.03,0,.06,0,.1,0,.02,0,.03,0,.05,0,.03,0,.06,0,.1,0,.02,0,.03,0,.05,0,.03,0,.06,0,.1,0,.02,0,.03,0,.05,0,.03,0,.06,0,.1,0,.02,0,.03,0,.05,0,.03,0,.06,0,.1,0,.02,0,.03,0,.05,0,.03,0,.06,0,.1,0,.02,0,.03,0,.05,0,.03,0,.06,0,.1,0,.02,0,.03,0,.05,0,.03,0,.06,0,.1,0,.02,0,.03,0,.05,0,.03,0,.06,0,.1,0,.02,0,.03,0,.05,0,.03,0,.06,0,.1,0,.02,0,.03,0,.05,0,.03,0,.06,0,.1,0,.02,0,.03,0,.05,0,.03,0,.06,0,.1,0,.02,0,.03,0,.05,0,.03,0,.06,0,.1,0,.02,0,.03,0,.05,0,.03,0,.06,0,.1,0,.02,0,.03,0,.05,0,.03,0,.06,0,.1,0,.02,0,.03,0,.05,0,.03,0,.06,0,.1,0,.02,0,.03,0,.05,0,.03,0,.06,0,.1,0,.02,0,.03,0,.05,0,.03,0,.06,0,.1,0,.02,0,.03,0,.05,0,.03,0,.06,0,.1,0,.02,0,.03,0,.05,0,.03,0,.06,0,.1,0,.02,0,.03,0,.05,0,.03,0,.06,0,.1,0,.02,0,.03,0,.05,0,.03,0,.06,0,.1,0,.02,0,.03,0,.05,0,.03,0,.06,0,.1,0,.02,0,.03,0,.05,0,.03,0,.06,0,.1,0,.02,0,.03,0,.05,0,.03,0,.06,0,.1,0,.02,0,.03,0,.05,0,.03,0,.06,0,.1,0,.02,0,.03,0,.05,0,.03,0,.06,0,.1,0,.02,0,.03,0,.05,0,.03,0,.06,0,.1,0,.02,0,.03,0,.05,0,.03,0,.06,0,.1,0,.02,0,.03,0,.05,0,.03,0,.06,0,.1,0,.02,0,.03,0,.05,0,.03,0,.06,0,.1,0,.02,0,.03,0,.05,0,.03,0,.06,0,.1,0,.02,0,.03,0,.05,0,.03,0,.06,0,.1,0,.02,0,.03,0,.05,0,.03,0,.06,0,.1,0,.02,0,.03,0,.05,0,.03,0,.06,0,.1,0,.02,0,.03,0,.05,0,.03,0,.06,0,.1,0,.02,0,.03,0,.05,0,.03,0,.06,0,.1,0,.02,0,.03,0,.05,0,.03,0,.06,0,.1,0,.02,0,.03,0,.05,0,.03,0,.06,0,.1,0,.02,0,.03,0,.05,0,.03,0,.06,0,.1,0,.02,0,.03,0,.05,0,.03,0,.06,0,.1,0,.02,0,.03,0,.05,0,.03,0,.06,0,.1,0,.02,0,.03,0,.05,0,.03,0,.06,0,.1,0,.02,0,.03,0,.05,0,.03,0,.06,0,.1,0,.02,0,.03,0,.05,0,.03,0,.06,0,.1,0,.02,0,.03,0,.05,0,.03,0,.06,0,.1,0,.02,0,.03,0,.05,0,.03,0,.06,0,.1,0,.02,0,.03,0,.05,0,.03,0,.06,0,.1,0,.02,0,.03,0,.05,0,.03,0,.06,0,.1,0,.02,0,.03,0,.05,0,.03,0,.06,0,.1,0,.02,0,.03,0,.05,0,.03,0,.06,0,.1,0,.02,0,.03,0,.05,0,.03,0,.06,0,.1,0,.02,0,.03,0,.05,0,.03,0,.06,0,.1,0,.02,0,.03,0,.05,0,.03,0,.06,0,.1,0,.02,0,.03,0,.05,0,.03,0,.06,0,.1,0,.02,0,.03,0,.05,0,.03,0,.06,0,.1,0,.02,0,.03,0,.05,0,.03,0,.06,0,.1,0,.02,0,.03,0,.05,0,.03,0,.06,0,.1,0,.02,0,.03,0,.05,0,.03,0,.06,0,.1,0,.02,0,.03,0,.05,0,.03,0,.06,0,.1,0,.02,0,.03,0,.05,0,.03,0,.06,0,.1,0,.02,0,.03,0,.05,0,.03,0,.06,0,.1,0,.02,0,.03,0,.05,0,.03,0,.06,0,.1,0,.02,0,.03,0,.05,0,.03,0,.06,0,.1,0,.02,0,.03,0,.05,0,.03,0,.06,0,.1,0,.02,0,.03,0,.05,0,.03,0,.06,0,.1,0,.02,0,.03,0,.05,0,.03,0,.06,0,.1,0,.02,0,.03,0,.05,0,.03,0,.06,0,.1,0,.02,0,.03,0,.05,0,.03,0,.06,0,.1,0,.02,0,.03,0,.05,0,.03,0,.06,0,.1,0,.02,0,.03,0,.05,0,.03,0,.06,0,.1,0,.02,0,.03,0,.05,0,.03,0,.06,0,.1,0,.02,0,.03,0,.05,0,.03,0,.06,0,.1,0,.02,0,.03,0,.05,0,.03,0,.06,0,.1,0,.02,0,.03,0,.05,0,.03,0,.06,0,.1,0,.02,0,.03,0,.05,0,.03,0,.06,0,.1,0,.02,0,.03,0,.05,0,.03,0,.06,0,.1,0,.02,0,.03,0,.05,0,.03,0,.06,0,.1,0,.02,0,.03,0,.05,0,.03,0,.06,0,.1,0,.02,0,.03,0,.05,0,.03,0,.06,0,.1,0,.02,0,.03,0,.05,0,.03,0,.06,0,.1,0,.02,0,.03,0,.05,0,.03,0,.06,0,.1,0,.02,0,.03,0,.05,0,.03,0,.06,0,.1,0,.02,0,.03,0,.05,0,.03,0,.06,0,.1,0,.02,0,.03,0,.05,0,.03,0,.06,0,.1,0,.02,0,.03,0,.05,0,.03,0,.06,0,.1,0,.02,0,.03,0,.05,0,.03,0,.06,0,.1,0,.02,0,.03,0,.05,0,.03,0,.06,0,.1,0,.02,0,.03,0,.05,0,.03,0,.06,0,.1,0,.02,0,.03,0,.05,0,.03,0,.06,0,.1,0,.02,0,.03,0,.05,0,.03,0,.06,0,.1,0,.02,0,.03,0,.05,0,.03,0,.06,0,.1,0,.02,0,.03,0,.05,0,.03,0,.06,0,.1,0,.02,0,.03,0,.05,0,.03,0,.06,0,.1,0,.02,0,.03,0,.05,0,.03,0,.06,0,.1,0,.02,0,.03,0,.05,0,.03,0,.06,0,.1,0,.02,0,.03,0,.05,0,.03,0,.06,0,.1,0,.02,0,.03,0,.05,0,.03,0,.06,0,.1,0,.02,0,.03,0,.05,0,.03,0,.06,0,.1,0,.02,0,.03,0,.05,0,.03,0,.06,0,.1,0,.02,0,.03,0,.05,0,.03,0,.06,0,.1,0,.02,0,.03,0,.05,0,.03,0,.06,0,.1,0,.02,0,.03,0,.05,0,.03,0,.06,0,.1,0,.02,0,.03,0,.05,0,.03,0,.06,0,.1,0,.02,0,.03,0,.05,0,.03,0,.06,0,.1,0,.02,0,.03,0,.05,0,.03,0,.06,0,.1,0,.02,0,.03,0,.05,0,.03,0,.06,0,.1,0,.02,0,.03,0,.05,0,.03,0,.06,0,.1,0,.02,0,.03,0,.05,0,.03,0,.06,0,.1,0,.02,0,.03,0,.05,0,.03,0,.06,0,.1,0,.02,0,.03,0,.05,0,.03,0,.06,0,.1,0,.02,0,.03,0,.05,0,.03,0,.06,0,.1,0,.02,0,.03,0,.05,0,.03,0,.06,0,.1,0,.02,0,.03,0,.05,0,.03,0,.06,0,.1,0,.02,0,.03,0,.05,0,.03,0,.06,0,.1,0,.02,0,.03,0,.05,0,.03,0,.06,0,.1,0,.02,0,.03,0,.05,0,.03,0,.06,0,.1,0,.02,0,.03,0,.05,0,.03,0,.06,0,.1,0,.02,0,.03,0,.05,0,.03,0,.06,0,.1,0,.02,0,.03,0,.05,0,.03,0,.06,0,.1,0,.02,0,.03,0,.05,0,.03,0,.06,0,.1,0,.02,0,.03,0,.05,0,.03,0,.06,0,.1,0,.02,0,.03,0,.05,0,.03,0,.06,0,.1,0,.02,0,.03,0,.05,0,.03,0,.06,0,.1,0,.02,0,.03,0,.05,0,.03,0,.06,0,.1,0,.02,0,.03,0,.05,0,.03,0,.06,0,.1,0,.02,0,.03,0,.05,0,.03,0,.06,0,.1,0,.02,0,.03,0,.05,0,.03,0,.06,0,.1,0,.02,0,.03,0,.05,0,.03,0,.06,0,.1,0,.02,0,.03,0,.05,0,.03,0,.06,0,.1,0,.02,0,.03,0,.05,0,.03,0,.06,0,.1,0,.02,0,.03,0,.05,0,.03,0,.06,0,.1,0,.02,0,.03,0,.05,0,.03,0,.06,0,.1,0,.02,0,.03,0,.05,0,.03,0,.06,0,.1,0,.02,0,.03,0,.05,0,.03,0,.06,0,.1,0,.02,0,.03,0,.05,0,.03,0,.06,0,.1,0,.02,0,.03,0,.05,0,.03,0,.06,0,.1,0,.02,0,.03,0,.05,0,.03,0,.06,0,.1,0,.02,0,.03,0,.05,0,.03,0,.06,0,.1,0,.02,0,.03,0,.05,0,.03,0,.06,0,.1,0,.02,0,.03,0,.05,0,.03,0,.06,0,.1,0,.02,0,.03,0,.05,0,.03,0,.06,0,.1,0,.02,0,.03,0,.05,0,.03,0,.06,0,.1,0,.02,0,.03,0,.05,0,.03,0,.06,0,.1,0,.02,0,.03,0,.05,0,.03,0,.06,0,.1,0,.02,0,.03,0,.05,0,.03,0,.06,0,.1,0,.02,0,.03,0,.05,0,.03,0,.06,0,.1,0,.02,0,.03,0,.05,0,.03,0,.06,0,.1,0,.02,0,.03,0,.05,0,.03,0,.06,0,.1,0,.02,0,.03,0,.05,0,.03,0,.06,0,.1,0,.02,0,.03,0,.05,0,.03,0,.06,0,.1,0,.02,0,.03,0,.05,0,.03,0,.06,0,.1,0,.02,0,.03,0,.05,0,.03,0,.06,0,.1,0,.02,0,.03,0,.05,0,.03,0,.06,0,.1,0,.02,0,.03,0,.05,0,.03,0,.06,0,.1,0,.02,0,.03,0,.05,0,.03,0,.06,0,.1,0,.02,0,.03,0,.05,0,.03,0,.06,0,.1,0,.02,0,.03,0,.05,0,.03,0,.06,0,.1,0,.02,0,.03,0,.05,0,.03,0,.06,0,.1,0,.02,0,.03,0,.05,0,.03,0,.06,0,.1,0,.02,0,.03,0,.05,0,.03,0,.06,0,.1,0,.02,0,.03,0,.05,0,.03,0,.06,0,.1,0,.02,0,.03,0,.05,0,.03,0,.06,0,.1,0,.02,0,.03,0,.05,0,.03,0,.06,0,.1,0,.02,0,.03,0,.05,0,.03,0,.06,0,.1,0,.02,0,.03,0,.05,0,.03,0,.06,0,.1,0,.02,0,.03,0,.05,0,.03,0,.06,0,.1,0,.02,0,.03,0,.05,0,.03,0,.06,0,.1,0,.02,0,.03,0,.05,0,.03,0,.06,0,.1,0,.02,0,.03,0,.05,0,.03,0,.06,0,.1,0,.02,0,.03,0,.05,0,.03,0,.06,0,.1,0,.02,0,.03,0,.05,0,.03,0,.06,0,.1,0,.02,0,.03,0,.05,0,.03,0,.06,0,.1,0,.02,0,.03,0,.05,0,.03,0,.06,0,.1,0,.02,0,.03,0,.05,0,.03,0,.06,0,.1,0,.02,0,.03,0,.05,0,.03,0,.06,0,.1,0,.02,0,.03,0,.05,0,.03,0,.06,0,.1,0,.02,0,.03,0,.05,0,.03,0,.06,0,.1,0,.02,0,.03,0,.05,0,.03,0,.06,0,.1,0,.02,0,.03,0,.05,0,.03,0,.06,0,.1,0,.02,0,.03,0,.05,0,.03,0,.06,0,.1,0,.02,0,.03,0,.05,0,.03,0,.06,0,.1,0,.02,0,.03,0,.05,0,.03,0,.06,0,.1,0,.02,0,.03,0,.05,0,.03,0,.06,0,.1,0,.02,0,.03,0,.05,0,.03,0,.06,0,.1,0,.02,0,.03,0,.05,0,.03,0,.06,0,.1,0,.02,0,.03,0,.05,0,.03,0,.06,0,.1,0,.02,0,.03,0,.05,0,.03,0,.06,0,.1,0,.02,0,.03,0,.05,0,.03,0,.06,0,.1,0,.02,0,.03,0,.05,0,.03,0,.06,0,.1,0,.02,0,.03,0,.05,0,.03,0,.06,0,.1,0,.02,0,.03,0,.05,0,.03,0,.06,0,.1,0,.02,0,.03,0,.05,0,.03,0,.06,0,.1,0,.02,0,.03,0,.05,0,.03,0,.06,0,.1,0,.02,0,.03,0,.05,0,.03,0,.06,0,.1,0,.02,0,.03,0,.05,0,.03,0,.06,0,.1,0,.02,0,.03,0,.05,0,.03,0,.06,0,.1,0,.02,0,.03,0,.05,0,.03,0,.06,0,.1,0,.02,0,.03,0,.05,0,.03,0,.06,0,.1,0,.02,0,.03,0,.05,0,.03,0,.06,0,.1,0,.02,0,.03,0,.05,0,.03,0,.06,0,.1,0,.02,0,.03,0,.05,0,.03,0,.06,0,.1,0,.02,0,.03,0,.05,0,.03,0,.06,0,.1,0,.02,0,.03,0,.05,0,.03,0,.06,0,.1,0,.02,0,.03,0,.05,0,.03,0,.06,0,.1,0,.02,0,.03,0,.05,0,.03,0,.06,0,.1,0,.02,0,.03,0,.05,0,.03,0,.06,0,.1,0,.02,0,.03,0,.05,0,.03,0,.06,0,.1,0,.02,0,.03,0,.05,0,.03,0,.06,0,.1,0,.02,0,.03,0,.05,0,.03,0,.06,0,.1,0,.02,0,.03,0,.05,0,.03,0,.06,0,.1,0,.02,0,.03,0,.05,0,.03,0,.06,0,.1,0,.02,0,.03,0,.05,0,.03,0,.06,0,.1,0,.02,0,.03,0,.05,0,.03,0,.06,0,.1,0,.02,0,.03,0,.05,0,.03,0,.06,0,.1,0,.02,0,.03,0,.05,0,.03,0,.06,0,.1,0,.02,0,.03,0,.05,0,.03,0,.06,0,.1,0,.02,0,.03,0,.05,0,.03,0,.06,0,.1,0,.02,0,.03,0,.05,0,.03,0,.06,0,.1,0,.02,0,.03,0,.05,0,.03,0,.06,0,.1,0,.02,0,.03,0,.05,0,.03,0,.06,0,.1,0,.02,0,.03,0,.05,0,.03,0,.06,0,.1,0,.02,0,.03,0,.05,0,.03,0,.06,0,.1,0,.02,0,.03,0,.05,0,.03,0,.06,0,.1,0,.02,0,.03,0,.05,0,.03,0,.06,0,.1,0,.02,0,.03,0,.05,0,.03,0,.06,0,.1,0,.02,0,.03,0,.05,0,.03,0,.06,0,.1,0,.02,0,.03,0,.05,0,.03,0,.06,0,.1,0,.02,0,.03,0,.05,0,.03,0,.06,0,.1,0,.02,0,.03,0,.05,0,.03,0,.06,0,.1,0,.02,0,.03,0,.05,0,.03,0,.06,0,.1,0,.02,0,.03,0,.05,0,.03,0,.06,0,.1,0,.02,0,.03,0,.05,0,.03,0,.06,0,.1,0,.02,0,.03,0,.05,0,.03,0,.06,0,.1,0,.02,0,.03,0,.05,0,.03,0,.06,0,.1,0,.02,0,.03,0,.05,0,.03,0,.06,0,.1,0,.02,0,.03,0,.05,0,.03,0,.06,0,.1,0,.02,0,.03,0,.05,0,.03,0,.06,0,.1,0,.02,0,.03,0,.05,0,.03,0,.06,0,.1,0,.02,0,.03,0,.05,0,.03,0,.06,0,.1,0,.02,0,.03,0,.05,0,.03,0,.06,0,.1,0,.02,0,.03,0,.05,0,.03,0,.06,0,.1,0,.02,0,.03,0,.05,0,.03,0,.06,0,.1,0,.02,0,.03,0,.05,0,.03,0,.06,0,.1,0,.02,0,.03,0,.05,0,.03,0,.06,0,.1,0,.02,0,.03,0,.05,0,.03,0,.06,0,.1,0,.02,0,.03,0,.05,0,.03,0,.06,0,.1,0,.02,0,.03,0,.05,0,.03,0,.06,0,.1,0,.02,0,.03,0,.05,0,.03,0,.06,0,.1,0,.02,0,.03,0,.05,0,.03,0,.06,0,.1,0,.02,0,.03,0,.05,0,.03,0,.06,0,.1,0,.02,0,.03,0,.05,0,.03,0,.06,0,.1,0,.02,0,.03,0,.05,0,.03,0,.06,0,.1,0,.02,0,.03,0,.05,0,.03,0,.06,0,.1,0,.02,0,.03,0,.05,0,.03,0,.06,0,.1,0,.02,0,.03,0,.05,0,.03,0,.06,0,.1,0,.02,0,.03,0,.05,0,.03,0,.06,0,.1,0,.02,0,.03,0,.05,0,.03,0,.06,0,.1,0,.02,0,.03,0,.05,0,.03,0,.06,0,.1,0,.02,0,.03,0,.05,0,.03,0,.06,0,.1,0,.02,0,.03,0,.05,0,.03,0,.06,0,.1,0,.02,0,.03,0,.05,0,.03,0,.06,0,.1,0,.02,0,.03,0,.05,0,.03,0,.06,0,.1,0,.02,0,.03,0,.05,0,.03,0,.06,0,.1,0,.02,0,.03,0,.05,0,.03,0,.06,0,.1,0,.02,0,.03,0,.05,0,.03,0,.06,0,.1,0,.02,0,.03,0,.05,0,.03,0,.06,0,.1,0,.02,0,.03,0,.05,0,.03,0,.06,0,.1,0,.02,0,.03,0,.05,0,.03,0,.06,0,.1,0,.02,0,.03,0,.05,0,.03,0,.06,0,.1,0,.02,0,.03,0,.05,0,.03,0,.06,0,.1,0,.02,0,.03,0,.05,0,.03,0,.06,0,.1,0,.02,0,.03,0,.05,0,.03,0,.06,0,.1,0,.02,0,.03,0,.05,0,.03,0,.06,0,.1,0,.02,0,.03,0,.05,0,.03,0,.06,0,.1,0,.02,0,.03,0,.05,0,.03,0,.06,0,.1,0,.02,0,.03,0,.05,0,.03,0,.06,0,.1,0,.02,0,.03,0,.05,0,.03,0,.06,0,.1,0,.02,0,.03,0,.05,0,.03,0,.06,0,.1,0,.02,0,.03,0,.05,0,.03,0,.06,0,.1,0,.02,0,.03,0,.05,0,.03,0,.06,0,.1,0,.02,0,.03,0,.05,0,.03,0,.06,0,.1,0,.02,0,.03,0,.05,0,.03,0,.06,0,.1,0,.02,0,.03,0,.05,0,.03,0,.06,0,.1,0,.02,0,.03,0,.05,0,.03,0,.06,0,.1,0,.02,0,.03,0,.05,0,.03,0,.06,0,.1,0,.02,0,.03,0,.05,0,.03,0,.06,0,.1,0,.02,0,.03,0,.05,0,.03,0,.06,0,.1,0,.02,0,.03,0,.05,0,.03,0,.06,0,.1,0,.02,0,.03,0,.05,0,.03,0,.06,0,.1,0,.02,0,.03,0,.05,0,.03,0,.06,0,.1,0,.02,0,.03,0,.05,0,.03,0,.06,0,.1,0,.02,0,.03,0,.05,0,.03,0,.06,0,.1,0,.02,0,.03,0,.05,0,.03,0,.06,0,.1,0,.02,0,.03,0,.05,0,.03,0,.06,0,.1,0,.02,0,.03,0,.05,0,.03,0,.06,0,.1,0,.02,0,.03,0,.05,0,.03,0,.06,0,.1,0,.02,0,.03,0,.05,0,.03,0,.06,0,.1,0,.02,0,.03,0,.05,0,.03,0,.06,0,.1,0,.02,0,.03,0,.05,0,.03,0,.06,0,.1,0,.02,0,.03,0,.05,0,.03,0,.06,0,.1,0,.02,0,.03,0,.05,0,.03,0,.06,0,.1,0,.02,0,.03,0,.05,0,.03,0,.06,0,.1,0,.02,0,.03,0,.05,0,.03,0,.06,0,.1,0,.02,0,.03,0,.05,0,.03,0,.06,0,.1,0,.02,0,.03,0,.05,0,.03,0,.06,0,.1,0,.02,0,.03,0,.05,0,.03,0,.06,0,.1,0,.02,0,.03,0,.05,0,.03,0,.06,0,.1,0,.02,0,.03,0,.05,0,.03,0,.06,0,.1,0,.02,0,.03,0,.05,0,.03,0,.06,0,.1,0,.02,0,.03,0,.05,0,.03,0,.06,0,.1,0,.02,0,.03,0,.05,0,.03,0,.06,0,.1,0,.02,0,.03,0,.05,0,.03,0,.06,0,.1,0,.02,0,.03,0,.05,0,.03,0,.06,0,.1,0,.02,0,.03,0,.05,0,.03,0,.06,0,.1,0,.02,0,.03,0,.05,0,.03,0,.06,0,.1,0,.02,0,.03,0,.05,0,.03,0,.06,0,.1,0,.02,0,.03,0,.05,0,.03,0,.06,0,.1,0,.02,0,.03,0,.05,0,.03,0,.06,0,.1,0,.02,0,.03,0,.05,0,.03,0,.06,0,.1,0,.02,0,.03,0,.05,0,.03,0,.06,0,.1,0,.02,0,.03,0,.05,0,.03,0,.06,0,.1,0,.02,0,.03,0,.05,0,.03,0,.06,0,.1,0,.02,0,.03,0,.05,0,.03,0,.06,0,.1,0,.02,0,.03,0,.05,0,.01,0,.02,0,.03-.6.83-1.36,1.4-2.32,1.73l-103.96,35.84c-2.11.73-3.68,1.13-5.48,1.03-.96-.05-1.78-.53-1.83-.81,0-.03,0-.11,0-.14,0-.03,0-.12,0-.15,0-.03,0-.12,0-.15,0-.03,0-.12,0-.15,0-.03,0-.12,0-.15,0-.03,0-.12,0-.15,0-.03,0-.12,0-.15,0-.03,0-.12,0-.15,0-.03,0-.12,0-.15,0-.03,0-.12,0-.15,0-.03,0-.12,0-.15,0-.03,0-.12,0-.15,0-.03,0-.12,0-.15,0-.03,0-.12,0-.15,0-.03,0-.12,0-.15,0-.03,0-.12,0-.15,0-.03,0-.12,0-.15,0-.03,0-.12,0-.15,0-.03,0-.12,0-.15,0-.03,0-.12,0-.15,0-.03,0-.12,0-.15,0-.03,0-.12,0-.15,0-.03,0-.12,0-.15,0-.03,0-.12,0-.15,0-.03,0-.12,0-.15,0-.03,0-.12,0-.15,0-.03,0-.12,0-.15,0-.03,0-.12,0-.15,0-.03,0-.12,0-.15,0-.03,0-.12,0-.15,0-.03,0-.12,0-.15,0-.03,0-.12,0-.15,0-.03,0-.12,0-.15,0-.03,0-.12,0-.15,0-.03,0-.12,0-.15,0-.03,0-.12,0-.15,0-.03,0-.12,0-.15,0-.03,0-.12,0-.15,0-.03,0-.12,0-.15,0-.03,0-.12,0-.15,0-.03,0-.12,0-.15,0-.03,0-.12,0-.15,0-.03,0-.12,0-.15,0-.03,0-.12,0-.15,0-.03,0-.12,0-.15,0-.03,0-.12,0-.15,0-.03,0-.12,0-.15,0-.03,0-.12,0-.15,0-.03,0-.12,0-.15,0-.03,0-.12,0-.15,0-.03,0-.12,0-.15,0-.03,0-.12,0-.15,0-.03,0-.12,0-.15,0-.03,0-.12,0-.15,0-.03,0-.12,0-.15,0-.03,0-.12,0-.15,0-.03,0-.12,0-.15,0-.03,0-.12,0-.15,0-.03,0-.12,0-.15,0-.03,0-.12,0-.15,0-.03,0-.12,0-.15,0-.03,0-.12,0-.15,0-.03,0-.12,0-.15,0-.03,0-.12,0-.15,0-.03,0-.12,0-.15,0-.03,0-.12,0-.15,0-.03,0-.12,0-.15,0-.03,0-.12,0-.15,0-.03,0-.12,0-.15,0-.03,0-.12,0-.15,0-.03,0-.12,0-.15,0-.03,0-.12,0-.15,0-.03,0-.12,0-.15,0-.03,0-.12,0-.15,0-.03,0-.12,0-.15,0-.03,0-.12,0-.15,0-.03,0-.12,0-.15,0-.03,0-.12,0-.15,0-.03,0-.12,0-.15,0-.03,0-.12,0-.15,0-.03,0-.12,0-.15,0-.03,0-.12,0-.15,0-.03,0-.12,0-.15,0-.03,0-.12,0-.15,0-.03,0-.12,0-.15,0-.03,0-.12,0-.15,0-.03,0-.12,0-.15,0-.03,0-.12,0-.15,0-.03,0-.12,0-.15,0-.03,0-.12,0-.15,0-.03,0-.12,0-.15,0-.03,0-.12,0-.15,0-.03,0-.12,0-.15,0-.03,0-.12,0-.15,0-.03,0-.12,0-.15,0-.03,0-.12,0-.15,0-.03,0-.12,0-.15,0-.03,0-.12,0-.15,0-.03,0-.12,0-.15,0-.03,0-.12,0-.15,0-.03,0-.12,0-.15,0-.03,0-.12,0-.15,0-.03,0-.12,0-.15,0-.03,0-.12,0-.15,0-.03,0-.12,0-.15,0-.03,0-.12,0-.15,0-.03,0-.12,0-.15,0-.03,0-.12,0-.15,0-.03,0-.12,0-.15,0-.03,0-.12,0-.15,0-.03,0-.12,0-.15,0-.03,0-.12,0-.15,0-.03,0-.12,0-.15,0-.03,0-.12,0-.15,0-.03,0-.12,0-.15,0-.03,0-.12,0-.15,0-.03,0-.12,0-.15,0-.03,0-.12,0-.15,0-.03,0-.12,0-.15,0-.03,0-.12,0-.15,0-.03,0-.12,0-.15,0-.03,0-.12,0-.15,0-.03,0-.12,0-.15,0-.03,0-.12,0-.15,0-.03,0-.12,0-.15,0-.03,0-.12,0-.15,0-.03,0-.12,0-.15,0-.03,0-.12,0-.15,0-.03,0-.12,0-.15,0-.03,0-.12,0-.15,0-.03,0-.12,0-.15,0-.03,0-.12,0-.15,0-.03,0-.12,0-.15,0-.03,0-.12,0-.15,0-.03,0-.12,0-.15,0-.03,0-.12,0-.15,0-.03,0-.12,0-.15,0-.03,0-.12,0-.15,0-.03,0-.12,0-.15,0-.03,0-.12,0-.15,0-.03,0-.12,0-.15,0-.03,0-.12,0-.15,0-.03,0-.12,0-.15,0-.03,0-.12,0-.15,0-.03,0-.12,0-.15,0-.03,0-.12,0-.15,0-.03,0-.12,0-.15,0-.03,0-.12,0-.15,0-.03,0-.12,0-.15,0-.03,0-.12,0-.15,0-.03,0-.12,0-.15,0-.03,0-.12,0-.15,0-.03,0-.12,0-.15,0-.03,0-.12,0-.15,0-.03,0-.12,0-.15,0-.03,0-.12,0-.15,0-.03,0-.12,0-.15,0-.03,0-.12,0-.15,0-.03,0-.12,0-.15,0-.03,0-.12,0-.15,0-.03,0-.12,0-.15,0-.03,0-.12,0-.15,0-.03,0-.12,0-.15,0-.03,0-.12,0-.15,0-.03,0-.12,0-.15,0-.03,0-.12,0-.15,0-.03,0-.12,0-.15,0-.03,0-.12,0-.15,0-.03,0-.12,0-.15,0-.03,0-.12,0-.15,0-.03,0-.12,0-.15,0-.03,0-.12,0-.15,0-.03,0-.12,0-.15,0-.03,0-.12,0-.15,0-.03,0-.12,0-.15,0-.03,0-.12,0-.15,0-.03,0-.12,0-.15,0-.03,0-.12,0-.15,0-.03,0-.12,0-.15,0-.03,0-.12,0-.15,0-.03,0-.12,0-.15,0-.03,0-.12,0-.15,0-.03,0-.12,0-.15,0-.03,0-.12,0-.15,0-.03,0-.12,0-.15,0-.03,0-.12,0-.15,0-.03,0-.12,0-.15,0-.03,0-.12,0-.15,0-.03,0-.12,0-.15,0-.03,0-.12,0-.15,0-.03,0-.12,0-.15,0-.03,0-.12,0-.15,0-.03,0-.12,0-.15,0-.03,0-.12,0-.15,0-.03,0-.12,0-.15,0-.03,0-.12,0-.15,0-.03,0-.12,0-.15,0-.03,0-.12,0-.15,0-.03,0-.12,0-.15,0-.03,0-.12,0-.15,0-.03,0-.12,0-.15,0-.03,0-.12,0-.15,0-.03,0-.12,0-.15,0-.03,0-.12,0-.15,0-.03,0-.12,0-.15,0-.03,0-.12,0-.15,0-.03,0-.12,0-.15,0-.03,0-.12,0-.15,0-.03,0-.12,0-.15,0-.03,0-.12,0-.15,0-.03,0-.12,0-.15,0-.03,0-.12,0-.15,0-.03,0-.12,0-.15,0-.03,0-.12,0-.15,0-.03,0-.12,0-.15,0-.03,0-.12,0-.15,0-.03,0-.12,0-.15,0-.03,0-.12,0-.15,0-.03,0-.12,0-.15,0-.03,0-.12,0-.15,0-.03,0-.12,0-.15,0-.03,0-.12,0-.15,0-.03,0-.12,0-.15,0-.03,0-.12,0-.15,0-.03,0-.12,0-.15,0-.03,0-.12,0-.15,0-.03,0-.12,0-.15,0-.03,0-.12,0-.15,0-.03,0-.12,0-.15,0-.03,0-.12,0-.15,0-.03,0-.12,0-.15,0-.03,0-.12,0-.15,0-.03,0-.12,0-.15,0-.03,0-.12,0-.15,0-.03,0-.13,0-.16,0-.04,0-.09,0-.13v-35.24c2.31-.19,6-1.66,7.92-2.32l103.96-35.84c.65-.22,1.22-.53,1.73-.9,0,.03,0,.06,0,.08,0,.02,0,.03,0,.05Z"/>
  </g>
</svg>