<?xml version="1.0" encoding="UTF-8"?>
<svg id="Layer_2" data-name="Layer 2" xmlns="http://www.w3.org/2000/svg" xmlns:xlink="http://www.w3.org/1999/xlink" viewBox="0 0 675 186.16">
  <defs>
    <style>
      .cls-1 {
        fill: #f4f5f7;
      }
    </style>
  </defs>
  <g id="Layer_1-2" data-name="Layer 1">
    <a xlink:href="v">
      <g>
        <path class="cls-1" d="M224.59,66.72c-2.28-1.22-4.58-.88-6.74-.35-.05.01-.1.03-.15.05l-27.9,9.64s0-.01,0-.02c0-.02,0-.05,0-.07,0-.02,0-.05,0-.07,0-.02,0-.05,0-.07,0-.02,0-.05,0-.07,0-.02,0-.05,0-.07,0-.02,0-.05,0-.07,0-.02,0-.05,0-.07,0-.02,0-.05,0-.07,0-.02,0-.05,0-.07,0-.02,0-.05,0-.07,0-.02,0-.05,0-.07,0-.02,0-.05,0-.07,0-.02,0-.05,0-.07,0-.02,0-.05,0-.07,0-.02,0-.05,0-.07,0-.02,0-.05,0-.07,0-.02,0-.05,0-.07,0-.02,0-.05,0-.07,0-.02,0-.05,0-.07,0-.02,0-.05,0-.07,0-.02,0-.05,0-.07,0-.02,0-.05,0-.07,0-.02,0-.05,0-.07,0-.02,0-.05,0-.07,0-.02,0-.05,0-.07,0-.02,0-.05,0-.07,0-.02,0-.05,0-.07,0-.02,0-.05,0-.07,0-.02,0-.05,0-.07,0-.02,0-.05,0-.07,0-.02,0-.05,0-.07,0-.02,0-.05,0-.07,0-.02,0-.05,0-.07,0-.02,0-.05,0-.07,0-.02,0-.05,0-.07,0-.02,0-.05,0-.07,0-.02,0-.05,0-.07,0-.02,0-.05,0-.07,0-.02,0-.05,0-.07,0-.02,0-.05,0-.07,0-.02,0-.05,0-.07,0-.02,0-.05,0-.07,0-.02,0-.05,0-.07,0-.02,0-.05,0-.07,0-.02,0-.05,0-.07,0-.02,0-.05,0-.07,0-.02,0-.05,0-.07,0-.02,0-.05,0-.07,0-.02,0-.05,0-.07,0-.02,0-.05,0-.07,0-.02,0-.05,0-.07,0-.02,0-.05,0-.07,0-.02,0-.05,0-.07,0-.02,0-.05,0-.07,0-.02,0-.05,0-.07,0-.02,0-.05,0-.07,0-.02,0-.05,0-.07,0-.02,0-.05,0-.07,0-.02,0-.05,0-.07,0-.02,0-.05,0-.07,0-.02,0-.05,0-.07,0-.02,0-.05,0-.07,0-.02,0-.05,0-.07,0-.02,0-.05,0-.07,0-.02,0-.05,0-.07,0-.02,0-.05,0-.07,0-.02,0-.05,0-.07,0-.02,0-.05,0-.07,0-.02,0-.05,0-.07,0-.02,0-.05,0-.07,0-.02,0-.05,0-.07,0-.02,0-.05,0-.07,0-.02,0-.05,0-.07,0-.02,0-.05,0-.07,0-.02,0-.05,0-.07,0-.02,0-.05,0-.07,0-.02,0-.05,0-.07,0-.02,0-.05,0-.07,0-.02,0-.05,0-.07,0-.02,0-.05,0-.07,0-.02,0-.05,0-.07,0-.02,0-.05,0-.07,0-.02,0-.05,0-.07,0-.02,0-.05,0-.07,0-.02,0-.05,0-.07,0-.02,0-.05,0-.07,0-.02,0-.05,0-.07,0-.02,0-.05,0-.07,0-.02,0-.05,0-.07,0-.02,0-.05,0-.07,0-.02,0-.05,0-.07,0-.02,0-.05,0-.07,0-.02,0-.05,0-.07,0-.02,0-.05,0-.07,0-.02,0-.05,0-.07,0-.02,0-.05,0-.07,0-.02,0-.05,0-.07,0-.02,0-.05,0-.07,0-.02,0-.05,0-.07,0-.02,0-.05,0-.07,0-.02,0-.05,0-.07,0-.02,0-.05,0-.07,0-.02,0-.05,0-.07,0-.02,0-.05,0-.07,0-.02,0-.05,0-.07,0-.02,0-.05,0-.07,0-.02,0-.05,0-.07,0-.02,0-.05,0-.07,0-.02,0-.05,0-.07,0-.02,0-.05,0-.07,0-.02,0-.05,0-.07,0-.02,0-.05,0-.07,0-.02,0-.05,0-.07,0-.02,0-.05,0-.07,0-.02,0-.05,0-.07,0-.02,0-.05,0-.07,0-.02,0-.05,0-.07,0-.02,0-.05,0-.07,0-.02,0-.05,0-.07,0-.02,0-.05,0-.07,0-.02,0-.05,0-.07,0-.02,0-.05,0-.07,0-.02,0-.05,0-.07,0-.02,0-.05,0-.07,0-.02,0-.05,0-.07,0-.02,0-.05,0-.07,0-.02,0-.05,0-.07,0-.02,0-.05,0-.07,0-.02,0-.05,0-.07,0-.02,0-.05,0-.07,0-.02,0-.05,0-.07,0-.02,0-.05,0-.07,0-.02,0-.05,0-.07,0-.02,0-.05,0-.07,0-.02,0-.05,0-.07,0-.02,0-.05,0-.07,0-.02,0-.05,0-.07,0-.02,0-.05,0-.07,0-.02,0-.05,0-.07,0-.02,0-.05,0-.07,0-.02,0-.05,0-.07,0-.02,0-.05,0-.07,0-.02,0-.05,0-.07,0-.02,0-.05,0-.07,0-.02,0-.05,0-.07,0-.02,0-.05,0-.07,0-.02,0-.05,0-.07,0-.02,0-.05,0-.07,0-.02,0-.05,0-.07,0-.02,0-.05,0-.07,0-.02,0-.05,0-.07,0-.02,0-.05,0-.07,0-.02,0-.05,0-.07,0-.02,0-.05,0-.07,0-.02,0-.05,0-.07,0-.02,0-.05,0-.07,0-.02,0-.05,0-.07,0-.02,0-.05,0-.07,0-.02,0-.05,0-.07,0-.02,0-.05,0-.07,0-.02,0-.05,0-.07,0-.02,0-.05,0-.07,0-.02,0-.05,0-.07,0-.02,0-.05,0-.07,0-.02,0-.05,0-.07,0-.02,0-.05,0-.07,0-.02,0-.05,0-.07,0-.02,0-.05,0-.07,0-.02,0-.05,0-.07,0-.02,0-.05,0-.07,0-.02,0-.05,0-.07,0-.02,0-.05,0-.07,0-.02,0-.05,0-.07,0-.02,0-.05,0-.07,0-.02,0-.05,0-.07,0-.02,0-.05,0-.07,0-.02,0-.05,0-.07,0-.02,0-.05,0-.07,0-.02,0-.05,0-.07,0-.02,0-.05,0-.07,0-.02,0-.05,0-.07,0-.02,0-.05,0-.07,0-.02,0-.05,0-.07,0-.02,0-.05,0-.07,0-.02,0-.05,0-.07,0-.02,0-.05,0-.07,0-.02,0-.05,0-.07,0-.02,0-.05,0-.07,0-.02,0-.05,0-.07,0-.02,0-.05,0-.07,0-.02,0-.05,0-.07,0-.02,0-.05,0-.07,0-.02,0-.05,0-.07,0-.02,0-.05,0-.07,0-.02,0-.05,0-.07,0-.02,0-.05,0-.07,0-.02,0-.05,0-.07,0-.02,0-.05,0-.07,0-.02,0-.05,0-.07,0-.02,0-.05,0-.07,0-.02,0-.05,0-.07,0-.02,0-.05,0-.07,0-.02,0-.05,0-.07,0-.02,0-.05,0-.07,0-.02,0-.05,0-.07,0-.02,0-.05,0-.07,0-.02,0-.05,0-.07,0-.02,0-.05,0-.07,0-.02,0-.05,0-.07,0-.02,0-.05,0-.07,0-.02,0-.05,0-.07,0-.02,0-.05,0-.07,0-.02,0-.05,0-.07,0-.02,0-.05,0-.07,0-.02,0-.05,0-.07,0-.02,0-.05,0-.07,0-.02,0-.05,0-.07,0-.02,0-.05,0-.07,0-.02,0-.05,0-.07,0-.02,0-.05,0-.07,0-.02,0-.05,0-.07,0-.02,0-.05,0-.07,0-.02,0-.05,0-.07,0-.02,0-.05,0-.07,0-.02,0-.05,0-.07,0-.02,0-.05,0-.07,0-.02,0-.05,0-.07,0-.02,0-.05,0-.07,0-.02,0-.05,0-.07,0-.02,0-.05,0-.07,0-.02,0-.05,0-.07,0-.02,0-.05,0-.07,0-.02,0-.05,0-.07,0-.02,0-.05,0-.07,0-.02,0-.05,0-.07,0-.02,0-.05,0-.07,0-.02,0-.05,0-.07,0-.02,0-.05,0-.07,0-.02,0-.05,0-.07,0-.02,0-.05,0-.07,0-.02,0-.05,0-.07,0-.02,0-.05,0-.07,0-.02,0-.05,0-.07,0-.02,0-.05,0-.07,0-.02,0-.05,0-.07,0-.02,0-.05,0-.07,0-.02,0-.05,0-.07,0-.02,0-.05,0-.07,0-.02,0-.05,0-.07,0-.02,0-.05,0-.07,0-.02,0-.05,0-.07,0-.02,0-.05,0-.07,0-.02,0-.05,0-.07,0-.02,0-.05,0-.07,0-.02,0-.05,0-.07,0-.02,0-.05,0-.07,0-.02,0-.05,0-.07,0-.02,0-.05,0-.07,0-.02,0-.05,0-.07,0-.02,0-.05,0-.07,0-.02,0-.05,0-.07,0-.02,0-.05,0-.07,0-.02,0-.05,0-.07,0-.02,0-.05,0-.07,0-.02,0-.05,0-.07,0-.02,0-.05,0-.07,0-.02,0-.05,0-.07,0-.02,0-.05,0-.07,0-.02,0-.05,0-.07,0-.02,0-.05,0-.07,0-.02,0-.05,0-.07,0-.02,0-.05,0-.07,0-.02,0-.05,0-.07,0-.02,0-.05,0-.07,0-.02,0-.05,0-.07,0-.02,0-.05,0-.07,0-.02,0-.05,0-.07,0-.02,0-.05,0-.07,0-.02,0-.05,0-.07,0-.02,0-.05,0-.07,0-.02,0-.05,0-.07,0-.02,0-.05,0-.07,0-.02,0-.05,0-.07,0-.02,0-.05,0-.07,0-.02,0-.05,0-.07,0-.02,0-.05,0-.07,0-.02,0-.05,0-.07,0-.02,0-.05,0-.07,0-.02,0-.05,0-.07,0-.02,0-.05,0-.07,0-.02,0-.05,0-.07,0-.02,0-.05,0-.07,0-.02,0-.05,0-.07,0-.02,0-.05,0-.07,0-.02,0-.05,0-.07,0-.02,0-.05,0-.07,0-.02,0-.05,0-.07,0-.02,0-.05,0-.07,0-.02,0-.05,0-.07,0-.02,0-.05,0-.07,0-.02,0-.05,0-.07,0-.02,0-.05,0-.07,0-.02,0-.05,0-.07,0-.02,0-.05,0-.07,0-.02,0-.05,0-.07,0-.02,0-.05,0-.07,0-.02,0-.05,0-.07,0-.02,0-.05,0-.07,0-.02,0-.05,0-.07,0-.02,0-.05,0-.07,0-.02,0-.05,0-.07,0-.02,0-.05,0-.07,0-.02,0-.05,0-.07,0-.02,0-.05,0-.07,0-.02,0-.05,0-.07,0-.02,0-.05,0-.07,0-.02,0-.05,0-.07,0-.02,0-.05,0-.07,0-.02,0-.05,0-.07,0-.02,0-.05,0-.07,0-.02,0-.05,0-.07,0-.02,0-.05,0-.07,0-.02,0-.05,0-.07,0-.02,0-.05,0-.07,0-.02,0-.05,0-.07,0-.02,0-.05,0-.07,0-.02,0-.05,0-.07,0-.02,0-.05,0-.07,0-.02,0-.05,0-.07,0-.02,0-.05,0-.07,0-.02,0-.05,0-.07,0-.02,0-.05,0-.07,0-.02,0-.05,0-.07,0-.02,0-.05,0-.07,0-.02,0-.05,0-.07,0-.02,0-.05,0-.07,0-.02,0-.05,0-.07,0-.02,0-.05,0-.07,0-.02,0-.05,0-.07,0-.02,0-.05,0-.07,0-.02,0-.05,0-.07,0-.02,0-.05,0-.07,0-.02,0-.05,0-.07,0-.02,0-.05,0-.07,0-.02,0-.05,0-.07,0-.02,0-.05,0-.07,0-.02,0-.05,0-.07,0-.02,0-.05,0-.07,0-.02,0-.05,0-.07,0-.02,0-.05,0-.07,0-.02,0-.05,0-.07,0-.02,0-.05,0-.07,0-.02,0-.05,0-.07,0-.02,0-.05,0-.07,0-.02,0-.05,0-.07,0-.02,0-.05,0-.07,0-.02,0-.05,0-.07,0-.02,0-.05,0-.07,0-.02,0-.05,0-.07,0-.02,0-.05,0-.07,0-.02,0-.05,0-.07,0-.02,0-.05,0-.07,0-.02,0-.05,0-.07,0-.02,0-.05,0-.07,0-.02,0-.05,0-.07,0-.02,0-.05,0-.07,0-.02,0-.05,0-.07,0-.02,0-.05,0-.07,0-.02,0-.05,0-.07,0-.02,0-.05,0-.07,0-.02,0-.05,0-.07,0-.02,0-.05,0-.07,0-.02,0-.05,0-.07,0-.02,0-.05,0-.07,0-.02,0-.05,0-.07,0-.02,0-.05,0-.07,0-.02,0-.05,0-.07,0-.02,0-.05,0-.07,0-.02,0-.05,0-.07,0-.02,0-.05,0-.07,0-.02,0-.05,0-.07,0-.02,0-.05,0-.07,0-.02,0-.05,0-.07,0-.02,0-.05,0-.07,0-.02,0-.05,0-.07,0-.02,0-.05,0-.07,0-.02,0-.05,0-.07,0-.02,0-.05,0-.07,0-.02,0-.05,0-.07,0-.02,0-.05,0-.07,0-.02,0-.05,0-.07,0-.02,0-.05,0-.07,0-.02,0-.05,0-.07,0-.02,0-.05,0-.07,0-.02,0-.05,0-.07,0-.02,0-.05,0-.07,0-.02,0-.05,0-.07,0-.02,0-.05,0-.07,0-.02,0-.05,0-.07,0-.02,0-.05,0-.07,0-.02,0-.05,0-.07,0-.02,0-.05,0-.07,0-.02,0-.05,0-.07,0-.02,0-.05,0-.07,0-.02,0-.05,0-.07,0-.02,0-.05,0-.07,0-.02,0-.05,0-.07,0-.02,0-.05,0-.07,0-.02,0-.05,0-.07,0-.02,0-.05,0-.07,0-.02,0-.05,0-.07,0-.02,0-.05,0-.07,0-.02,0-.05,0-.07,0-.02,0-.05,0-.07,0-.02,0-.05,0-.07,0-.02,0-.05,0-.07,0-.02,0-.05,0-.07,0-.02,0-.05,0-.07,0-.02,0-.05,0-.07,0-.02,0-.05,0-.07,0-.02,0-.05,0-.07,0-.02,0-.05,0-.07,0-.02,0-.05,0-.07,0-.02,0-.05,0-.07,0-.02,0-.05,0-.07,0-.02,0-.05,0-.07,0-.02,0-.05,0-.07,0-.02,0-.05,0-.07,0-.02,0-.05,0-.07,0-.02,0-.05,0-.07,0-.02,0-.05,0-.07,0-.02,0-.05,0-.07,0-.02,0-.05,0-.07,0-.02,0-.05,0-.07,0-.02,0-.05,0-.07,0-.02,0-.05,0-.07,0-.02,0-.05,0-.07,0-.02,0-.05,0-.07,0-.02,0-.05,0-.07,0-.12,0-.25-.03-.37-.24-1.3-.94-2.33-2.04-2.99-2.52-1.53-6.41-.57-8.02-.07l-27.52,9.45V16.77c0-.32-.03-.62-.11-.92-.64-2.47-3.25-3.5-5.28-3.63-2.55-.17-4.96.61-7.33,2.37-.81.6-1.58,1.32-2.43,2.26l-1.71,1.9V4.64c0-.07,0-.15,0-.21-.03-.44-.14-.83-.31-1.2-1.47-3.04-5.28-3.76-8.11-2.9-1.73.53-3.06,1.11-4.76,2.06L55.86,39.92c-3.86,2.19-9.19,3.36-13.4,4.14-6.62,1.22-19.04-5.29-25.71-8.8-3.3-1.73-4.93-2.57-5.97-2.82-3.96-.94-7.73,1.28-9.74,3.45-.62.67-.99,1.54-1.03,2.39,0,.05,0,.12,0,.18,0,.03,0,.07,0,.1v.05s0,.07,0,.1v.04s0,.07,0,.1v.05s0,.07,0,.1v.04s0,.07,0,.1v.05s0,.07,0,.1v.04s0,.07,0,.1v.05s0,.07,0,.1v.04s0,.07,0,.1v.05s0,.07,0,.1v.04s0,.07,0,.1v.05s0,.07,0,.1v.04s0,.07,0,.1v.05s0,.07,0,.1v.04s0,.07,0,.1v.05s0,.07,0,.1v.04s0,.07,0,.1v.05s0,.07,0,.1v.04s0,.07,0,.1v.05s0,.07,0,.1v.04s0,.07,0,.1v.04s0,.07,0,.1v.05s0,.07,0,.1v.04s0,.07,0,.1v.05s0,.07,0,.1v.04s0,.07,0,.1v.05s0,.07,0,.1v.04s0,.07,0,.1v.05s0,.07,0,.1v.04s0,.07,0,.1v.05s0,.07,0,.1v.04s0,.07,0,.1v.05s0,.07,0,.1v.04s0,.07,0,.1v.05s0,.07,0,.1v.04s0,.07,0,.1v.05s0,.07,0,.1v.04s0,.07,0,.1v.05s0,.07,0,.1v.04s0,.07,0,.1v.05s0,.07,0,.1v.04s0,.07,0,.1v.05s0,.07,0,.1v.04s0,.07,0,.1v.05s0,.07,0,.1v.04s0,.07,0,.1v.05s0,.07,0,.1v.04s0,.07,0,.1v.05s0,.07,0,.1v.04s0,.07,0,.1v.05s0,.07,0,.1v.04s0,.07,0,.1v.04s0,.07,0,.1v.04s0,.07,0,.1v.04s0,.07,0,.1v.05s0,.07,0,.1v.04s0,.07,0,.1v.05s0,.07,0,.1v.04s0,.07,0,.1v.05s0,.07,0,.1v.04s0,.07,0,.1v.05s0,.07,0,.1v.04s0,.07,0,.1v.05s0,.07,0,.1v.04s0,.07,0,.1v.05s0,.07,0,.1v.04s0,.07,0,.1v.05s0,.07,0,.1v.04s0,.07,0,.1v.05s0,.07,0,.1v.04s0,.07,0,.1v.05s0,.07,0,.1v.04s0,.07,0,.1v.05s0,.07,0,.1v.04s0,.07,0,.1v.05s0,.07,0,.1v.04s0,.07,0,.1v.05s0,.07,0,.1v.04s0,.07,0,.1v.05s0,.07,0,.1v.04s0,.07,0,.1v.05s0,.07,0,.1v.04s0,.07,0,.1v.05s0,.07,0,.1v.04s0,.07,0,.1v.04s0,.07,0,.1v.04s0,.07,0,.1v.04s0,.07,0,.1v.05s0,.07,0,.1v.04s0,.07,0,.1v.05s0,.07,0,.1v.04s0,.07,0,.1v.05s0,.07,0,.1v.04s0,.07,0,.1v.05s0,.07,0,.1v.04s0,.07,0,.1v.05s0,.07,0,.1v.04s0,.07,0,.1v.05s0,.07,0,.1v.04s0,.07,0,.1v.05s0,.07,0,.1v.04s0,.07,0,.1v.05s0,.07,0,.1v.04s0,.07,0,.1v.05s0,.07,0,.1v.04s0,.07,0,.1v.05s0,.07,0,.1v.04s0,.07,0,.1v.05s0,.07,0,.1v.04s0,.07,0,.1v.05s0,.07,0,.1v.04s0,.07,0,.1v.05s0,.07,0,.1v.04s0,.07,0,.1v.05s0,.07,0,.1v.04s0,.07,0,.1v.05s0,.07,0,.1v.04s0,.07,0,.1v.04s0,.07,0,.1v.04s0,.07,0,.1v.04s0,.07,0,.1v.05s0,.07,0,.1v.04s0,.07,0,.1v.05s0,.07,0,.1v.04s0,.07,0,.1v.05s0,.07,0,.1v.04s0,.07,0,.1v.05s0,.07,0,.1v.04s0,.07,0,.1v.05s0,.07,0,.1v.04s0,.07,0,.1v.05s0,.07,0,.1v.04s0,.07,0,.1v.05s0,.07,0,.1v.04s0,.07,0,.1v.05s0,.07,0,.1v.04s0,.07,0,.1v.05s0,.07,0,.1v.04s0,.07,0,.1v.05s0,.07,0,.1v.04s0,.07,0,.1v.05s0,.07,0,.1v.04s0,.07,0,.1v.05s0,.07,0,.1v.04s0,.07,0,.1v.05s0,.07,0,.1v.04s0,.07,0,.1v.05s0,.07,0,.1v.04s0,.07,0,.1v.05s0,.07,0,.1v.04s0,.07,0,.1v.04s0,.07,0,.1v.04s0,.07,0,.1v.04s0,.07,0,.1v.05s0,.07,0,.1v.04s0,.07,0,.1v.05s0,.07,0,.1v.04s0,.07,0,.1v.05s0,.07,0,.1v.04s0,.07,0,.1v.05s0,.07,0,.1v.04s0,.07,0,.1v.05s0,.07,0,.1v.04s0,.07,0,.1v.05s0,.07,0,.1v.04s0,.07,0,.1v.05s0,.07,0,.1v.04s0,.07,0,.1v.05s0,.07,0,.1v.04s0,.07,0,.1v.05s0,.07,0,.1v.04s0,.07,0,.1v.05s0,.07,0,.1v.04s0,.07,0,.1v.05s0,.07,0,.1v.04s0,.07,0,.1v.05s0,.07,0,.1v.04s0,.07,0,.1v.05s0,.07,0,.1v.04s0,.07,0,.1v.05s0,.07,0,.1v.04s0,.07,0,.1v.05s0,.07,0,.1v.04s0,.07,0,.1v.04s0,.07,0,.1v.04s0,.07,0,.1v.04s0,.07,0,.1v.05s0,.07,0,.1v.04s0,.07,0,.1v.05s0,.07,0,.1v.04s0,.07,0,.1v.05s0,.07,0,.1v.04s0,.07,0,.1v.05s0,.07,0,.1v.04s0,.07,0,.1v.05s0,.07,0,.1v.04s0,.07,0,.1v.05s0,.07,0,.1v.04s0,.07,0,.1v.05s0,.07,0,.1v.04s0,.07,0,.1v.05s0,.07,0,.1v.04s0,.07,0,.1v.05s0,.07,0,.1v.04s0,.07,0,.1v.05s0,.07,0,.1v.04s0,.07,0,.1v.05s0,.07,0,.1v.04s0,.07,0,.1v.05s0,.07,0,.1v.04s0,.07,0,.1v.05s0,.07,0,.1v.04s0,.07,0,.1v.05s0,.07,0,.1v.04s0,.07,0,.1v.05s0,.07,0,.1v.04s0,.07,0,.1v.04s0,.07,0,.1v.04s0,.07,0,.1v.04s0,.07,0,.1v.05s0,.07,0,.1v.04s0,.07,0,.1v.05s0,.07,0,.1v.04s0,.07,0,.1v.05s0,.07,0,.1v.04s0,.07,0,.1v.05s0,.07,0,.1v.04s0,.07,0,.1v.05s0,.07,0,.1v.04s0,.07,0,.1v.05s0,.07,0,.1v.04s0,.07,0,.1v.05s0,.07,0,.1v.04s0,.07,0,.1v.05s0,.07,0,.1v.04s0,.07,0,.1v.05s0,.07,0,.1v.04s0,.07,0,.1v.05s0,.07,0,.1v.04s0,.07,0,.1v.05s0,.07,0,.1v.04s0,.07,0,.1v.05s0,.07,0,.1v.04s0,.07,0,.1v.05s0,.07,0,.1v.04s0,.07,0,.1v.05s0,.07,0,.1v.04s0,.07,0,.1v.05s0,.07,0,.1v.04s0,.07,0,.1v.04s0,.07,0,.1v.04s0,.07,0,.1v.04s0,.07,0,.1v.05s0,.07,0,.1v.04s0,.07,0,.1v.05s0,.07,0,.1v.04s0,.07,0,.1v.05s0,.07,0,.1v.04s0,.07,0,.1v.05s0,.07,0,.1v.04s0,.07,0,.1v.05s0,.07,0,.1v.04s0,.07,0,.1v.05s0,.07,0,.1v.04s0,.07,0,.1v.05s0,.07,0,.1v.04s0,.07,0,.1v.05s0,.07,0,.1v.04s0,.07,0,.1v.05s0,.07,0,.1v.04s0,.07,0,.1v.05s0,.07,0,.1v.04s0,.07,0,.1v.05s0,.07,0,.1v.04s0,.07,0,.1v.05s0,.07,0,.1v.04s0,.07,0,.1v.05s0,.07,0,.1v.04s0,.07,0,.1v.05s0,.07,0,.1v.04s0,.07,0,.1v.05s0,.07,0,.1v.04s0,.07,0,.1v.04s0,.07,0,.1v.04s0,.07,0,.1v.04s0,.07,0,.1v.05s0,.07,0,.1v.04s0,.07,0,.1v.05s0,.07,0,.1v.04s0,.07,0,.1v.05s0,.07,0,.1v.04s0,.07,0,.1v.05s0,.07,0,.1v.04s0,.07,0,.1v.05s0,.07,0,.1v.04s0,.07,0,.1v.05s0,.07,0,.1v.04s0,.07,0,.1v.05s0,.07,0,.1v.04s0,.07,0,.1v.05s0,.07,0,.1v.04s0,.07,0,.1v.05s0,.07,0,.1v.04s0,.07,0,.1v.05s0,.07,0,.1v.04s0,.07,0,.1v.05s0,.07,0,.1v.04s0,.07,0,.1v.05s0,.07,0,.1v.04s0,.07,0,.1v.05s0,.07,0,.1v.04s0,.07,0,.1v.05s0,.07,0,.1v.04s0,.07,0,.1v.05s0,.07,0,.1v.05s0,.07,0,.1v.04s0,.07,0,.1v.04s0,.07,0,.1v.04s0,.07,0,.1v.05s0,.07,0,.1v.04s0,.07,0,.1v.05s0,.07,0,.1v.04s0,.07,0,.1v.05s0,.07,0,.1v.04s0,.07,0,.1v.05s0,.07,0,.1v.04s0,.07,0,.1v.05s0,.07,0,.1v.04s0,.07,0,.1v.05s0,.07,0,.1v.04s0,.07,0,.1v.05s0,.07,0,.1v.04s0,.07,0,.1v.05s0,.07,0,.1v.04s0,.07,0,.1v.05s0,.07,0,.1v.04s0,.07,0,.1v.05s0,.07,0,.1v.04s0,.07,0,.1v.05s0,.07,0,.1v.04s0,.07,0,.1v.05s0,.07,0,.1v.04s0,.07,0,.1v.05s0,.07,0,.1v.04s0,.07,0,.1v.05s0,.07,0,.1v.04s0,.07,0,.1v.05s0,.07,0,.1v.05s0,.07,0,.1v.04s0,.07,0,.1v.04s0,.07,0,.1v.04s0,.07,0,.1v.05s0,.07,0,.1v.04s0,.07,0,.1v.05s0,.07,0,.1v.04s0,.07,0,.1v.05s0,.07,0,.1v.04s0,.07,0,.1v.05s0,.07,0,.1v.04s0,.07,0,.1v.05s0,.07,0,.1v.04s0,.07,0,.1v.05s0,.07,0,.1v.04s0,.07,0,.1v.05s0,.07,0,.1v.04s0,.07,0,.1v.05s0,.07,0,.1v.04s0,.07,0,.1v.05s0,.07,0,.1v.04s0,.07,0,.1v.05s0,.07,0,.1v.04s0,.07,0,.1v.05s0,.07,0,.1v.04s0,.07,0,.1v.05s0,.07,0,.1v.04s0,.07,0,.1v.05s0,.07,0,.1v.04s0,.07,0,.1v.05s0,.07,0,.1v.04s0,.07,0,.1v.05s0,.07,0,.1v.05s0,.07,0,.1v.04s0,.07,0,.1v.05s0,.07,0,.1v.04s0,.07,0,.1v.05s0,.07,0,.1v.04s0,.07,0,.1v.05s0,.07,0,.1v.04s0,.07,0,.1v.05s0,.07,0,.1v.04s0,.07,0,.1v.05s0,.07,0,.1v.04s0,.07,0,.1v.05s0,.07,0,.1v.04s0,.07,0,.1v.05s0,.07,0,.1v.04s0,.07,0,.1v.05s0,.07,0,.1v.04s0,.07,0,.1v.05s0,.07,0,.1v.04s0,.07,0,.1v.05s0,.07,0,.1v.04s0,.07,0,.1v.05s0,.07,0,.1v.04s0,.07,0,.1v.05s0,.07,0,.1v.04s0,.07,0,.1v.05s0,.07,0,.1v.04s0,.07,0,.1v.05s0,.07,0,.1v.04s0,.07,0,.1v.05s0,.07,0,.1v.04s0,.07,0,.1v.05s0,.07,0,.1v.05s0,.07,0,.1v.04s0,.07,0,.1v.05s0,.07,0,.1v.04s0,.07,0,.1v.05s0,.07,0,.1v.04s0,.07,0,.1v.05s0,.07,0,.1v.04s0,.07,0,.1v.05s0,.07,0,.1v.04s0,.07,0,.1v.05s0,.07,0,.1v.04s0,.07,0,.1v.05s0,.07,0,.1v.04s0,.07,0,.1v.05s0,.07,0,.1v.04s0,.07,0,.1v.05s0,.07,0,.1v.04s0,.07,0,.1v.05s0,.07,0,.1v.04s0,.07,0,.1v.05s0,.07,0,.1v.04s0,.07,0,.1v.05s0,.07,0,.1v.04s0,.07,0,.1v.05s0,.07,0,.1v.04s0,.07,0,.1v.05s0,.07,0,.1v.04s0,.07,0,.1v.05s0,.07,0,.1v.04s0,.07,0,.1v.05s0,.07,0,.1v.04s0,.07,0,.1v.05s0,.07,0,.1v.05s0,.07,0,.1v.04s0,.07,0,.1v.05s0,.07,0,.1v.04s0,.07,0,.1v.05s0,.07,0,.1v.04s0,.07,0,.1v.05s0,.07,0,.1v.04s0,.07,0,.1v.05s0,.07,0,.1v.04s0,.07,0,.1v.05s0,.07,0,.1v.04s0,.07,0,.1v.05s0,.07,0,.1v.04s0,.07,0,.1v.05s0,.07,0,.1v.04s0,.07,0,.1v.05s0,.07,0,.1v.04s0,.07,0,.1v.05s0,.07,0,.1v.04s0,.07,0,.1v.05s0,.07,0,.1v.04s0,.07,0,.1v.05s0,.07,0,.1v.04s0,.07,0,.1v.05s0,.07,0,.1v.04s0,.07,0,.1v.05s0,.07,0,.1v.04s0,.07,0,.1v.05s0,.07,0,.1v.04s0,.07,0,.1v.05s0,.07,0,.1v.04s0,.07,0,.1v.05s0,.07,0,.1v.05s0,.07,0,.1v.04s0,.07,0,.1v.05s0,.07,0,.1v.04s0,.07,0,.1v.05s0,.07,0,.1v.04s0,.07,0,.1v.05s0,.07,0,.1v.04s0,.07,0,.1v.05s0,.07,0,.1v.04s0,.07,0,.1v.05s0,.07,0,.1v.04s0,.07,0,.1v.05s0,.07,0,.1v.04s0,.07,0,.1v.05s0,.07,0,.1v.04s0,.07,0,.1v.05s0,.07,0,.1v.04s0,.07,0,.1v.05s0,.07,0,.1H0c-.08,1.43.65,2.78,1.9,3.46l.99.55c2.02,1.12,4.11,2.27,6.45,3.13,1.74.64,3.41,1.33,5.03,2,6.6,2.73,13.42,5.56,25.44,4.99,7.67-.37,15.4-2.09,22.96-5.12l4.66-1.87v36.12c0,.44.07.86.2,1.26.23.73.8,1.75,2.2,2.43,2.28,1.12,5.91.85,8.15.04l27.97-9.63v32.01c-.01.32,0,.61.07.89.49,2.4,3.06,3.62,5.23,3.74.25.01.49.02.73.02,2.07,0,3.92-.48,6.14-1.25l103.96-35.84c1.69-.58,3.07-1.61,4.12-3.07.42-.58.65-1.22.68-1.89h0c0-.05,0-.11,0-.16,0-.03,0-.05,0-.07,0-.03,0-.05,0-.07,0-.03,0-.05,0-.07,0-.03,0-.05,0-.07,0-.03,0-.05,0-.07,0-.03,0-.05,0-.07,0-.03,0-.05,0-.07,0-.03,0-.05,0-.07,0-.03,0-.05,0-.07,0-.03,0-.05,0-.07,0-.03,0-.05,0-.07,0-.03,0-.05,0-.07,0-.03,0-.05,0-.07,0-.03,0-.05,0-.07,0-.03,0-.05,0-.07,0-.03,0-.05,0-.07,0-.03,0-.05,0-.07,0-.03,0-.05,0-.07,0-.03,0-.05,0-.07,0-.03,0-.05,0-.07,0-.03,0-.05,0-.07,0-.03,0-.05,0-.07,0-.03,0-.05,0-.07,0-.03,0-.05,0-.07,0-.03,0-.05,0-.07,0-.03,0-.05,0-.07,0-.03,0-.05,0-.07,0-.03,0-.05,0-.07,0-.03,0-.05,0-.07,0-.03,0-.05,0-.07,0-.03,0-.05,0-.07,0-.03,0-.05,0-.07,0-.03,0-.05,0-.07,0-.03,0-.05,0-.07,0-.03,0-.05,0-.07,0-.03,0-.05,0-.07,0-.03,0-.05,0-.07,0-.03,0-.05,0-.07,0-.03,0-.05,0-.07,0-.03,0-.05,0-.07,0-.03,0-.05,0-.07,0-.03,0-.05,0-.07,0-.03,0-.05,0-.07,0-.03,0-.05,0-.07,0-.03,0-.05,0-.07,0-.03,0-.05,0-.07,0-.03,0-.05,0-.07,0-.03,0-.05,0-.07,0-.03,0-.05,0-.07,0-.03,0-.05,0-.07,0-.03,0-.05,0-.07,0-.03,0-.05,0-.07,0-.03,0-.05,0-.07,0-.03,0-.05,0-.07,0-.03,0-.05,0-.07,0-.03,0-.05,0-.07,0-.03,0-.05,0-.07,0-.03,0-.05,0-.07,0-.03,0-.05,0-.07,0-.03,0-.05,0-.07,0-.03,0-.05,0-.07,0-.03,0-.05,0-.07,0-.03,0-.05,0-.07,0-.03,0-.05,0-.07,0-.03,0-.05,0-.07,0-.03,0-.05,0-.07,0-.03,0-.05,0-.07,0-.03,0-.05,0-.07,0-.03,0-.05,0-.07,0-.03,0-.05,0-.07,0-.03,0-.05,0-.07,0-.03,0-.05,0-.07,0-.03,0-.05,0-.07,0-.03,0-.05,0-.07,0-.03,0-.05,0-.07,0-.03,0-.05,0-.07,0-.03,0-.05,0-.07,0-.03,0-.05,0-.07,0-.03,0-.05,0-.07,0-.03,0-.05,0-.07,0-.03,0-.05,0-.07,0-.03,0-.05,0-.07,0-.03,0-.05,0-.07,0-.03,0-.05,0-.07,0-.03,0-.05,0-.07,0-.03,0-.05,0-.07,0-.03,0-.05,0-.07,0-.03,0-.05,0-.07,0-.03,0-.05,0-.07,0-.03,0-.05,0-.07,0-.03,0-.05,0-.07,0-.03,0-.05,0-.07,0-.03,0-.05,0-.07,0-.03,0-.05,0-.07,0-.03,0-.05,0-.07,0-.03,0-.05,0-.07,0-.03,0-.05,0-.07,0-.03,0-.05,0-.07,0-.03,0-.05,0-.07,0-.03,0-.05,0-.07,0-.03,0-.05,0-.07,0-.03,0-.05,0-.07,0-.03,0-.05,0-.07,0-.03,0-.05,0-.07,0-.03,0-.05,0-.07,0-.03,0-.05,0-.07,0-.03,0-.05,0-.07,0-.03,0-.05,0-.07,0-.03,0-.05,0-.07,0-.03,0-.05,0-.07,0-.03,0-.05,0-.07,0-.03,0-.05,0-.07,0-.03,0-.05,0-.07,0-.03,0-.05,0-.07,0-.03,0-.05,0-.07,0-.03,0-.05,0-.07,0-.03,0-.05,0-.07,0-.03,0-.05,0-.07,0-.03,0-.05,0-.07,0-.03,0-.05,0-.07,0-.03,0-.05,0-.07,0-.03,0-.05,0-.07,0-.03,0-.05,0-.07,0-.03,0-.05,0-.07,0-.03,0-.05,0-.07,0-.03,0-.05,0-.07,0-.03,0-.05,0-.07,0-.03,0-.05,0-.07,0-.03,0-.05,0-.07,0-.03,0-.05,0-.07,0-.03,0-.05,0-.07,0-.03,0-.05,0-.07,0-.03,0-.05,0-.07,0-.03,0-.05,0-.07,0-.03,0-.05,0-.07,0-.03,0-.05,0-.07,0-.03,0-.05,0-.07,0-.03,0-.05,0-.07,0-.03,0-.05,0-.07,0-.03,0-.05,0-.07,0-.03,0-.05,0-.07,0-.03,0-.05,0-.07,0-.03,0-.05,0-.07,0-.03,0-.05,0-.07,0-.03,0-.05,0-.07,0-.03,0-.05,0-.07,0-.03,0-.05,0-.07,0-.03,0-.05,0-.07,0-.03,0-.05,0-.07,0-.03,0-.05,0-.07,0-.03,0-.05,0-.07,0-.03,0-.05,0-.07,0-.03,0-.05,0-.07,0-.03,0-.05,0-.07,0-.03,0-.05,0-.07,0-.03,0-.05,0-.07,0-.03,0-.05,0-.07,0-.03,0-.05,0-.07,0-.03,0-.05,0-.07,0-.03,0-.05,0-.07,0-.03,0-.05,0-.07,0-.03,0-.05,0-.07,0-.03,0-.05,0-.07,0-.03,0-.05,0-.07,0-.03,0-.05,0-.07,0-.03,0-.05,0-.07,0-.03,0-.05,0-.07,0-.03,0-.05,0-.07,0-.03,0-.05,0-.07,0-.03,0-.05,0-.07,0-.03,0-.05,0-.07,0-.03,0-.05,0-.07,0-.03,0-.05,0-.07,0-.03,0-.05,0-.07,0-.03,0-.05,0-.07,0-.03,0-.05,0-.07,0-.03,0-.05,0-.07,0-.03,0-.05,0-.07,0-.03,0-.05,0-.07,0-.03,0-.05,0-.07,0-.03,0-.05,0-.07,0-.03,0-.05,0-.07,0-.03,0-.05,0-.07,0-.03,0-.05,0-.07,0-.03,0-.05,0-.07,0-.03,0-.05,0-.07,0-.03,0-.05,0-.07,0-.03,0-.05,0-.07,0-.03,0-.05,0-.07,0-.03,0-.05,0-.07,0-.03,0-.05,0-.07,0-.03,0-.05,0-.07,0-.03,0-.05,0-.07,0-.03,0-.05,0-.07,0-.03,0-.05,0-.07,0-.03,0-.05,0-.07,0-.03,0-.05,0-.07,0-.03,0-.05,0-.07,0-.03,0-.05,0-.07,0-.03,0-.05,0-.07,0-.03,0-.05,0-.07,0-.03,0-.05,0-.07,0-.03,0-.05,0-.07,0-.03,0-.05,0-.07,0-.03,0-.05,0-.07,0-.03,0-.05,0-.07,0-.03,0-.05,0-.07,0-.03,0-.05,0-.07,0-.03,0-.05,0-.07,0-.03,0-.05,0-.07,0-.03,0-.05,0-.07,0-.03,0-.05,0-.07,0-.03,0-.05,0-.07,0-.03,0-.05,0-.07,0-.03,0-.05,0-.07,0-.03,0-.05,0-.07,0-.03,0-.05,0-.07,0-.03,0-.05,0-.07,0-.03,0-.05,0-.07,0-.03,0-.05,0-.07,0-.03,0-.05,0-.07,0-.03,0-.05,0-.07,0-.03,0-.05,0-.07,0-.03,0-.05,0-.07,0-.03,0-.05,0-.07,0-.03,0-.05,0-.07,0-.03,0-.05,0-.07,0-.03,0-.05,0-.07,0-.03,0-.05,0-.07,0-.03,0-.05,0-.07,0-.03,0-.05,0-.07,0-.03,0-.05,0-.07,0-.03,0-.05,0-.07,0-.03,0-.05,0-.07,0-.03,0-.05,0-.07,0-.03,0-.05,0-.07,0-.03,0-.05,0-.07,0-.03,0-.05,0-.07,0-.03,0-.05,0-.07,0-.03,0-.05,0-.07,0-.03,0-.05,0-.07,0-.03,0-.05,0-.07,0-.03,0-.05,0-.07,0-.03,0-.05,0-.07,0-.03,0-.05,0-.07,0-.03,0-.05,0-.07,0-.03,0-.05,0-.07,0-.03,0-.05,0-.07,0-.03,0-.05,0-.07,0-.03,0-.05,0-.07,0-.03,0-.05,0-.07,0-.03,0-.05,0-.07,0-.03,0-.05,0-.07,0-.03,0-.05,0-.07,0-.03,0-.05,0-.07,0-.03,0-.05,0-.07,0-.03,0-.05,0-.07,0-.03,0-.05,0-.07,0-.03,0-.05,0-.07,0-.03,0-.05,0-.07,0-.03,0-.05,0-.07,0-.03,0-.05,0-.07,0-.03,0-.05,0-.07,0-.03,0-.05,0-.07,0-.03,0-.05,0-.07,0-.03,0-.05,0-.07,0-.03,0-.05,0-.07,0-.03,0-.05,0-.07,0-.03,0-.05,0-.07,0-.03,0-.05,0-.07,0-.03,0-.05,0-.07,0-.03,0-.05,0-.07,0-.03,0-.05,0-.07,0-.03,0-.05,0-.07,0-.03,0-.05,0-.07,0-.03,0-.05,0-.07,0-.03,0-.05,0-.07,0-.03,0-.05,0-.07,0-.03,0-.05,0-.07,0-.03,0-.05,0-.07,0-.03,0-.05,0-.07,0-.03,0-.05,0-.07,0-.03,0-.05,0-.07,0-.03,0-.05,0-.07,0-.03,0-.05,0-.07,0-.03,0-.05,0-.07,0-.03,0-.05,0-.07,0-.03,0-.05,0-.07,0-.03,0-.05,0-.07,0-.03,0-.05,0-.07,0-.03,0-.05,0-.07,0-.03,0-.05,0-.07,0-.03,0-.05,0-.07,0-.03,0-.05,0-.07,0-.03,0-.05,0-.07,0-.03,0-.05,0-.07,0-.03,0-.05,0-.07,0-.03,0-.05,0-.07,0-.03,0-.05,0-.07,0-.03,0-.05,0-.07,0-.03,0-.05,0-.07,0-.03,0-.05,0-.07,0-.03,0-.05,0-.07,0-.03,0-.05,0-.07,0-.03,0-.05,0-.07,0-.03,0-.05,0-.07,0-.03,0-.05,0-.07,0-.03,0-.05,0-.07,0-.03,0-.05,0-.07,0-.03,0-.05,0-.07,0-.03,0-.05,0-.07,0-.03,0-.05,0-.07,0-.03,0-.05,0-.07,0-.03,0-.05,0-.07,0-.03,0-.05,0-.07,0-.03,0-.05,0-.07,0-.03,0-.05,0-.07,0-.03,0-.05,0-.07,0-.03,0-.05,0-.07,0-.03,0-.05,0-.07,0-.03,0-.05,0-.07,0-.03,0-.05,0-.07,0-.03,0-.05,0-.07,0-.03,0-.05,0-.07,0-.03,0-.05,0-.07,0-.03,0-.05,0-.07,0-.03,0-.05,0-.07,0-.03,0-.05,0-.07,0-.03,0-.05,0-.07,0-.03,0-.05,0-.07,0-.03,0-.05,0-.07,0-.03,0-.05,0-.07,0-.03,0-.05,0-.07,0-.03,0-.05,0-.07,0-.03,0-.05,0-.07,0-.03,0-.05,0-.07,0-.03,0-.05,0-.07,0-.03,0-.05,0-.07,0-.03,0-.05,0-.07,0-.03,0-.05,0-.07,0-.03,0-.05,0-.07,0-.03,0-.05,0-.07,0-.03,0-.05,0-.07,0-.03,0-.05,0-.07,0-.03,0-.05,0-.07,0-.03,0-.05,0-.07,0-.03,0-.05,0-.07,0-.03,0-.05,0-.07,0-.03,0-.05,0-.07,0-.03,0-.05,0-.07,0-.03,0-.05,0-.07,0-.03,0-.05,0-.07,0-.03,0-.05,0-.07,0-.03,0-.05,0-.07,0-.03,0-.05,0-.07,0-.03,0-.05,0-.07,0-.03,0-.05,0-.07,0-.03,0-.05,0-.07,0-.03,0-.05,0-.07,0-.03,0-.05,0-.07,0-.03,0-.05,0-.07,0-.03,0-.05,0-.07,0-.03,0-.05,0-.07,0-.03,0-.05,0-.07,0-.03,0-.05,0-.07,0-.03,0-.05,0-.07,0-.03,0-.05,0-.07,0-.03,0-.05,0-.07,0-.03,0-.05,0-.07,0-.03,0-.05,0-.07,0-.03,0-.05,0-.07,0-.03,0-.05,0-.07,0-.03,0-.05,0-.07,0-.03,0-.05,0-.07,0-.03,0-.05,0-.07,0-.03,0-.05,0-.07,0-.03,0-.05,0-.07,0-.03,0-.05,0-.07,0-.03,0-.05,0-.07,0-.03,0-.05,0-.07,0-.03,0-.05,0-.07,0-.03,0-.05,0-.07,0-.03,0-.05,0-.07,0-.03,0-.05,0-.07,0-.03,0-.05,0-.07,0-.03,0-.05,0-.07,0-.03,0-.05,0-.07,0-.03,0-.05,0-.07,0-.03,0-.05,0-.07,0-.03,0-.05,0-.07,0-.03,0-.05,0-.07,0-.03,0-.05,0-.07,0-.03,0-.05,0-.07,0-.03,0-.05,0-.07,0-.03,0-.05,0-.07,0-.03,0-.05,0-.07,0-.03,0-.05,0-.07,0-.03,0-.05,0-.07,0-.03,0-.05,0-.07,0-.03,0-.05,0-.07,0-.03,0-.05,0-.07,0-.03,0-.05,0-.07,0-.03,0-.05,0-.07,0-.03,0-.05,0-.07,0-.03,0-.05,0-.07,0-.03,0-.05,0-.07,0-.03,0-.05,0-.07,0-.03,0-.05,0-.07,0-.03,0-.05,0-.07,0-.03,0-.05,0-.07,0-.03,0-.05,0-.07,0-.03,0-.05,0-.07,0-.03,0-.05,0-.07,0-.03,0-.05,0-.07,0-.03,0-.05,0-.07,0-.03,0-.05,0-.07,0-.03,0-.05,0-.07,0-.03,0-.05,0-.07,0-.03,0-.05,0-.07,0-.03,0-.05,0-.07,0-.03,0-.05,0-.07,0-.03,0-.05,0-.07,0-.03,0-.05,0-.07,0-.03,0-.05,0-.07,0-.03,0-.05,0-.07,0-.03,0-.05,0-.07,0-.03,0-.05,0-.07,0-.03,0-.05,0-.07,0-.03,0-.05,0-.07,0-.03,0-.05,0-.07,0-.03,0-.05,0-.07,0-.03,0-.05,0-.07,0-.03,0-.05,0-.07,0-.03,0-.05,0-.07,0-.03,0-.05,0-.07,0-.03,0-.05,0-.07,0-.03,0-.05,0-.07,0-.03,0-.05,0-.07,0-.03,0-.05,0-.07,0-.03,0-.05,0-.07,0-.03,0-.05,0-.07,0-.03,0-.05,0-.07,0-.03,0-.05,0-.07,0-.03,0-.05,0-.07,0-.03,0-.05,0-.07,0-.03,0-.05,0-.07,0-.03,0-.05,0-.07,0-.03,0-.05,0-.07,0-.03,0-.05,0-.07,0-.03,0-.05,0-.07,0-.03,0-.05,0-.07,0-.03,0-.05,0-.07,0-.03,0-.05,0-.07,0-.03,0-.05,0-.07,0-.03,0-.05,0-.07,0-.03,0-.05,0-.07,0-.03,0-.05,0-.07,0-.03,0-.05,0-.07,0-.03,0-.05,0-.07,0-.03,0-.05,0-.07,0-.03,0-.05,0-.07,0-.03,0-.05,0-.07,0-.03,0-.05,0-.07,0-.03,0-.05,0-.07,0-.03,0-.05,0-.07,0-.03,0-.05,0-.07,0-.03,0-.05,0-.07,0-.03,0-.05,0-.07,0-.03,0-.05,0-.07,0-.03,0-.05,0-.07,0-.03,0-.05,0-.07,0-.03,0-.05,0-.07,0-.03,0-.05,0-.07,0-.03,0-.05,0-.07,0-.03,0-.05,0-.07,0-.03,0-.05,0-.07,0-.03,0-.05,0-.07,0-.03,0-.05,0-.07,0-.03,0-.05,0-.07,0-.03,0-.05,0-.07,0-.03,0-.05,0-.07,0-.03,0-.05,0-.07,0-.03,0-.05,0-.07,0-.03,0-.05,0-.07,0-.03,0-.05,0-.07,0-.03,0-.05,0-.07,0-.03,0-.05,0-.07,0-.03,0-.05,0-.07,0-.03,0-.05,0-.07,0-.03,0-.05,0-.07,0-.03,0-.05,0-.07,0-.03,0-.05,0-.07,0-.03,0-.05,0-.07,0-.03,0-.05,0-.07,0-.03,0-.05,0-.07,0-.03,0-.05,0-.07,0-.03,0-.05,0-.07,0-.03,0-.05,0-.07,0-.03,0-.05,0-.07,0-.03,0-.05,0-.07,0-.03,0-.05,0-.07,0-.03,0-.05,0-.07,0-.03,0-.05,0-.07,0-.03,0-.05,0-.07,0-.03,0-.05,0-.07,0-.03,0-.05,0-.07,0-.03,0-.05,0-.07,0-.03,0-.05,0-.07,0-.03,0-.05,0-.07,0-.03,0-.05,0-.07,0-.03,0-.05,0-.07,0-.03,0-.05,0-.07,0-.03,0-.05,0-.07,0-.03,0-.05,0-.07,0-.03,0-.05,0-.07,0-.03,0-.05,0-.07,0-.03,0-.05,0-.07,0-.03,0-.05,0-.07,0-.03,0-.05,0-.07,0-.03,0-.05,0-.07,0-.03,0-.05,0-.07,0-.03,0-.05,0-.07,0-.03,0-.05,0-.07,0-.03,0-.05,0-.07,0-.03,0-.05,0-.07,0-.03,0-.05,0-.07,0-.03,0-.05,0-.07,0-.03,0-.05,0-.07,0-.03,0-.05,0-.07,0-.03,0-.05,0-.07,0-.03,0-.05,0-.07,0-.03,0-.05,0-.07,0-.03,0-.05,0-.07,0-.03,0-.05,0-.07,0-.03,0-.05,0-.07,0-.03,0-.05,0-.07,0-.03,0-.05,0-.07,0-.03,0-.05,0-.07,0-.03,0-.05,0-.07,0-.03,0-.05,0-.07,0-.03,0-.05,0-.07,0-.03,0-.05,0-.07,0-.03,0-.05,0-.07,0-.03,0-.05,0-.07,0-.03,0-.05,0-.07,0-.03,0-.05,0-.07,0-.03,0-.05,0-.07,0-.03,0-.05,0-.07,0-.03,0-.05,0-.07,0-.03,0-.05,0-.07,0-.03,0-.05,0-.07,0-.03,0-.05,0-.07,0-.03,0-.05,0-.07,0-.03,0-.05,0-.07,0-.03,0-.05,0-.07,0-.03,0-.05,0-.07,0-.03,0-.05,0-.07,0-.03,0-.05,0-.07,0-.03,0-.05,0-.07,0-.03,0-.05,0-.07,0-.03,0-.05,0-.07,0-.03,0-.05,0-.07,0-.03,0-.05,0-.07,0-.03,0-.05,0-.07,0-.03,0-.05,0-.07,0-.03,0-.05,0-.07,0-.03,0-.05,0-.07,0-.03,0-.05,0-.07,0-.03,0-.05,0-.07,0-.03,0-.05,0-.07,0-.03,0-.05,0-.07,0-.03,0-.05,0-.07,0-.03,0-.05,0-.07,0-.03,0-.05,0-.07,0-.03,0-.05,0-.07,0-.03,0-.05,0-.07,0-.03,0-.05,0-.07,0-.03,0-.05,0-.07,0-.03,0-.05,0-.07,0-.03,0-.05,0-.07,0-.03,0-.05,0-.07,0-.03,0-.05,0-.07,0-.03,0-.05,0-.07,0-.03,0-.05,0-.07,0-.03,0-.05,0-.07,0-.03,0-.05,0-.07,0-.03,0-.05,0-.07,0-.03,0-.05,0-.07,0-.03,0-.05,0-.07,0-.03,0-.05,0-.07,0-.03,0-.05,0-.07,0-.03,0-.05,0-.07,0-.03,0-.05,0-.07,0-.03,0-.05,0-.07,0-.03,0-.05,0-.07,0-.03,0-.05,0-.07,0-.03,0-.05,0-.07,0-.03,0-.05,0-.07,0-.03,0-.05,0-.07,0-.03,0-.05,0-.07,0-.03,0-.05,0-.07,0-.03,0-.05,0-.07,0-.03,0-.05,0-.07,0-.03,0-.05,0-.07,0-.03,0-.05,0-.07,0-.03,0-.05,0-.07,0-.03,0-.05,0-.07,0-.03,0-.05,0-.07,0-.03,0-.05,0-.07,0-.03,0-.05,0-.07,0-.03,0-.05,0-.07,0-.03,0-.05,0-.07,0-.03,0-.05,0-.07,0-.03,0-.05,0-.07,0-.03,0-.05,0-.07,0-.03,0-.05,0-.07,0-.03,0-.05,0-.07,0-.03,0-.05,0-.07,0-.03,0-.05,0-.07,0-.03,0-.05,0-.07,0-.03,0-.05,0-.07,0-.03,0-.05,0-.07,0-.03,0-.05,0-.07,0-.03,0-.05,0-.07,0-.03,0-.05,0-.07,0-.03,0-.05,0-.07,0-.03,0-.05,0-.07,0-.03,0-.05,0-.07,0-.03,0-.05,0-.07,0-.03,0-.05,0-.07,0-.03,0-.05,0-.07,0-.03,0-.05,0-.07,0-.03,0-.05,0-.07,0-.03,0-.05,0-.07,0-.03,0-.05,0-.07,0-.03,0-.05,0-.07,0-.03,0-.05,0-.07,0-.03,0-.05,0-.07,0-.03,0-.05,0-.07,0-.03,0-.05,0-.07,0-.03,0-.05,0-.07,0-.03,0-.05,0-.07,0-.03,0-.05,0-.07,0-.03,0-.05,0-.07,0-.03,0-.05,0-.07,0-.03,0-.05,0-.07,0-.03,0-.05,0-.07,0-.03,0-.05,0-.07,0-.03,0-.05,0-.07,0-.03,0-.05,0-.07,0-.03,0-.05,0-.07,0-.03,0-.05,0-.07,0-.03,0-.05,0-.07,0-.03,0-.05,0-.07,0-.03,0-.05,0-.07,0-.03,0-.05,0-.07,0-.03,0-.05,0-.07,0-.03,0-.05,0-.07,0-.03,0-.05,0-.07,0-.03,0-.05,0-.07,0-.03,0-.05,0-.07,0-.03,0-.05,0-.07,0-.03,0-.05,0-.07,0-.03,0-.05,0-.07,0-.03,0-.05,0-.07,0-.03,0-.05,0-.07,0-.03,0-.05,0-.07,0-.03,0-.05,0-.07,0-.03,0-.05,0-.07,0-.03,0-.05,0-.07,0-.03,0-.05,0-.07,0-.03,0-.05,0-.07,0-.03,0-.05,0-.07,0-.03,0-.05,0-.07,0-.03,0-.05,0-.07,0-.03,0-.05,0-.07,0-.03,0-.05,0-.07,0-.03,0-.05,0-.07,0-.03,0-.05,0-.07,0-.03,0-.05,0-.07,0-.03,0-.05,0-.07,0-.03,0-.05,0-.07,0-.03,0-.05,0-.07,0-.03,0-.05,0-.07,0-.03,0-.05,0-.07,0-.03,0-.05,0-.07,0-.03,0-.05,0-.07,0-.03,0-.05,0-.07,0-.03,0-.05,0-.07,0-.03,0-.05,0-.07,0-.03,0-.05,0-.07,0-.03,0-.05,0-.07,0-.03,0-.05,0-.07,0-.03,0-.05,0-.07,0-.03,0-.05,0-.07,0-.03,0-.05,0-.07,0-.03,0-.05,0-.07,0-.03,0-.05,0-.07,0-.03,0-.05,0-.07,0-.03,0-.05,0-.07,0-.03,0-.05,0-.07,0-.03,0-.05,0-.07,0-.03,0-.05,0-.07,0-.03,0-.05,0-.07,0-.03,0-.05,0-.07,0-.03,0-.05,0-.07,0-.03,0-.05,0-.07,0-.03,0-.05,0-.07,0-.03,0-.05,0-.07,0-.03,0-.05,0-.07,0-.03,0-.05,0-.07,0-.03,0-.05,0-.07,0-.03,0-.05,0-.07,0-.03,0-.05,0-.07,0-.03,0-.05,0-.07,0-.03,0-.05,0-.07,0-.03,0-.05,0-.07,0-.03,0-.05,0-.07,0-.03,0-.05,0-.07,0-.03,0-.05,0-.07,0-.03,0-.05,0-.07,0-.03,0-.05,0-.07,0-.03,0-.05,0-.07,0-.03,0-.05,0-.07,0-.03,0-.05,0-.07,0-.03,0-.05,0-.07,0-.03,0-.05,0-.07,0-.03,0-.05,0-.07,0-.03,0-.05,0-.07,0-.03,0-.05,0-.07,0-.03,0-.05,0-.07,0-.03,0-.05,0-.07,0-.03,0-.05,0-.07,0-.03,0-.05,0-.07,0-.03,0-.05,0-.07,0-.03,0-.05,0-.07,0-.03,0-.05,0-.07,0-.03,0-.05,0-.07,0-.03,0-.05,0-.07,0-.03,0-.05,0-.07,0-.03,0-.05,0-.07,0-.03,0-.05,0-.07,0-.03,0-.05,0-.07,0-.03,0-.05,0-.07,0-.03,0-.05,0-.07,0-.03,0-.05,0-.07,0-.03,0-.05,0-.07,0-.03,0-.05,0-.07,0-.03,0-.05,0-.07,0-.03,0-.05,0-.07,0-.03,0-.05,0-.07,0-.03,0-.05,0-.07,0-.03,0-.05,0-.07,0-.03,0-.05,0-.07,0-.03,0-.05,0-.07,0-.03,0-.05,0-.07,0-.03,0-.05,0-.07,0-.03,0-.05,0-.07,0-.03,0-.05,0-.07,0-.03,0-.05,0-.07,0-.03,0-.05,0-.07,0-.03,0-.05,0-.07,0-.03,0-.05,0-.07,0-.03,0-.05,0-.07,0-.03,0-.05,0-.07,0-.03,0-.05,0-.07,0-.03,0-.05,0-.07,0-.03,0-.05,0-.07,0-.03,0-.05,0-.07,0-.03,0-.05,0-.07,0-.03,0-.05,0-.07,0-.03,0-.05,0-.07,0-.03,0-.05,0-.07,0-.03,0-.05,0-.07,0-.03,0-.05,0-.07,0-.03,0-.05,0-.07,0-.03,0-.05,0-.07,0-.03,0-.05,0-.07,0-.03,0-.05,0-.07,0-.03,0-.05,0-.07,0-.03,0-.05,0-.07,0-.03,0-.05,0-.07,0-.03,0-.05,0-.07,0-.03,0-.05,0-.07,0-.03,0-.05,0-.07,0-.03,0-.05,0-.07,0-.03,0-.05,0-.07,0-.03,0-.05,0-.07,0-.03,0-.05,0-.07,0-.03,0-.05,0-.07,0-.03,0-.05,0-.07,0-.03,0-.05,0-.07,0-.03,0-.05,0-.07,0-.03,0-.05,0-.07,0-.03,0-.05,0-.07,0-.03,0-.05,0-.07,0-.03,0-.05,0-.07,0-.03,0-.05,0-.07,0-.03,0-.05,0-.07,0-.03,0-.05,0-.07,0-.03,0-.05,0-.07,0-.03,0-.05,0-.07,0-.03,0-.05,0-.07,0-.03,0-.05,0-.07,0-.03,0-.05,0-.07,0-.03,0-.05,0-.07,0-.03,0-.05,0-.07,0-.03,0-.05,0-.07,0-.03,0-.05,0-.07,0-.03,0-.05,0-.07,0-.03,0-.05,0-.07,0-.03,0-.05,0-.07,0-.03,0-.05,0-.07,0-.03,0-.05,0-.07,0-.03,0-.05,0-.07,0-.03,0-.05,0-.07,0-.03,0-.05,0-.07,0-.03,0-.05,0-.07,0-.03,0-.05,0-.07,0-.03,0-.05,0-.07,0-.03,0-.05,0-.07,0-.03,0-.05,0-.07,0-.03,0-.05,0-.07,0-.03,0-.05,0-.07,0-.03,0-.05,0-.07,0-.03,0-.05,0-.07,0-.03,0-.05,0-.07,0-.03,0-.05,0-.07,0-.03,0-.05,0-.07,0-.03,0-.05,0-.07,0-.03,0-.05,0-.07,0-.03,0-.05,0-.07,0-.03,0-.05,0-.07,0-.03,0-.05,0-.07,0-.03,0-.05,0-.07,0-.03,0-.05,0-.07,0-.03,0-.05,0-.07,0-.03,0-.05,0-.07,0-.03,0-.05,0-.07,0-.03,0-.05,0-.07,0-.03,0-.05,0-.07,0-.03,0-.05,0-.07,0-.03,0-.05,0-.07,0-.03,0-.05,0-.07,0-.03,0-.05,0-.07,0-.03,0-.05,0-.07,0-.03,0-.05,0-.07,0-.03,0-.05,0-.07,0-.03,0-.05,0-.07,0-.03,0-.05,0-.07,0-.03,0-.05,0-.07,0-.03,0-.05,0-.07,0-.03,0-.05,0-.07,0-.03,0-.05,0-.07,0-.03,0-.05,0-.07,0-.03,0-.05,0-.07,0-.03,0-.05,0-.07,0-.03,0-.05,0-.07,0-.03,0-.05,0-.07,0-.03,0-.05,0-.07,0-.03,0-.05,0-.07,0-.03,0-.05,0-.07,0-.03,0-.05,0-.07,0-.03,0-.05,0-.07,0-.03,0-.05,0-.07,0-.03,0-.05,0-.07,0-.03,0-.05,0-.07,0-.03,0-.05,0-.07,0-.03,0-.05,0-.07,0-.03,0-.05,0-.07,0-.03,0-.05,0-.07,0-.03,0-.05,0-.07,0-.03,0-.05,0-.07,0-.03,0-.05,0-.07,0-.03,0-.05,0-.07,0-.03,0-.05,0-.07,0-.03,0-.05,0-.07,0-.03,0-.05,0-.07,0-.03,0-.05,0-.07,0-.03,0-.05,0-.07,0-.03,0-.05,0-.07,0-.03,0-.05,0-.07,0-.03,0-.05,0-.07,0-.03,0-.05,0-.07,0-.03,0-.05,0-.07,0-.03,0-.05,0-.07,0-.03,0-.05,0-.07,0-.03,0-.05,0-.07,0-.03,0-.05,0-.07,0-.03,0-.05,0-.07,0-.03,0-.05,0-.07,0-.03,0-.05,0-.07,0-.03,0-.05,0-.07,0-.03,0-.05,0-.07,0-.03,0-.05,0-.07,0-.03,0-.05,0-.07,0-.03,0-.05,0-.07,0-.03,0-.05,0-.07,0-.03,0-.05,0-.07,0-.03,0-.05,0-.07,0-.03,0-.05,0-.07,0-.03,0-.05,0-.07,0-.03,0-.05,0-.07,0-.03,0-.05,0-.07,0-.03,0-.05,0-.07,0-.03,0-.05,0-.07,0-.03,0-.05,0-.07,0-.03,0-.05,0-.07,0-.03,0-.05,0-.07,0-.03,0-.05,0-.07,0-.03,0-.05,0-.07,0-.03,0-.05,0-.07,0-.03,0-.05,0-.07,0-.03,0-.05,0-.07,0-.03,0-.05,0-.07,0-.03,0-.05,0-.07,0-.03,0-.05,0-.07,0-.03,0-.05,0-.07,0-.03,0-.05,0-.07,0-.03,0-.05,0-.07,0-.03,0-.05,0-.07,0-.03,0-.05,0-.07,0-.03,0-.05,0-.07,0-.03,0-.05,0-.07,0-.03,0-.05,0-.07,0-.03,0-.05,0-.07,0-.03,0-.05,0-.07,0-.03,0-.05,0-.07,0-.03,0-.05,0-.07,0-.03,0-.05,0-.07,0-.03,0-.05,0-.07,0-.03,0-.05,0-.07,0-.03,0-.05,0-.07,0-.03,0-.05,0-.07,0-.03,0-.05,0-.07,0-.03,0-.05,0-.07,0-.03,0-.05,0-.07,0-.03,0-.05,0-.07,0-.03,0-.05,0-.07,0-.03,0-.05,0-.07,0-.03,0-.05,0-.07,0-.03,0-.05,0-.07,0-.03,0-.05,0-.07,0-.03,0-.05,0-.07,0-.03,0-.05,0-.07,0-.03,0-.05,0-.07,0-.03,0-.05,0-.07,0-.03,0-.05,0-.07,0-.03,0-.05,0-.07,0-.03,0-.05,0-.07,0-.03,0-.05,0-.07,0-.03,0-.05,0-.07,0-.03,0-.05,0-.07,0-.03,0-.05,0-.07,0-.03,0-.05,0-.07,0-.03,0-.05,0-.07,0-.03,0-.05,0-.07,0-.03,0-.05,0-.07,0-.03,0-.05,0-.07,0-.03,0-.05,0-.07,0-.03,0-.05,0-.07,0-.03,0-.05,0-.07,0-.03,0-.05,0-.07,0-.03,0-.05,0-.07,0-.03,0-.05,0-.07,0-.03,0-.05,0-.07,0-.03,0-.05,0-.07,0-.03,0-.05,0-.07,0-.03,0-.05,0-.07,0-.03,0-.05,0-.07,0-.03,0-.05,0-.07,0-.03,0-.05,0-.07,0-.03,0-.05,0-.07,0-.03,0-.05,0-.07,0-.03,0-.05,0-.07,0-.03,0-.05,0-.07,0-.03,0-.05,0-.07,0-.03,0-.05,0-.07,0-.03,0-.05,0-.07,0-.03,0-.05,0-.07,0-.03,0-.05,0-.07,0-.03,0-.05,0-.07,0-.03,0-.05,0-.07,0-.03,0-.05,0-.07,0-.03,0-.05,0-.07,0-.03,0-.05,0-.07,0-.03,0-.05,0-.07,0-.03,0-.05,0-.07,0-.03,0-.05,0-.07,0-.03,0-.05,0-.07,0-.03,0-.05,0-.07,0-.03,0-.05,0-.07,0-.03,0-.05,0-.07,0-.03,0-.05,0-.07,0-.03,0-.05,0-.07,0-.03,0-.05,0-.07,0-.02,0-.05,0-.07.1-1.42-.78-2.8-2.3-3.61ZM131.8,70.13c.06,3.2-.04,5.38-2.08,6.54l-58.61,36.71v-26.86c1.39.01,2.83-.24,3.84-.6l56.78-20.51.07,4.72ZM87.78,73.61l60.75-54.14s0,.08,0,.11c0,.04,0,.11,0,.15,0,.04,0,.11,0,.15,0,.04,0,.11,0,.15,0,.04,0,.11,0,.15,0,.04,0,.11,0,.15,0,.04,0,.11,0,.15,0,.04,0,.11,0,.15,0,.04,0,.11,0,.15,0,.04,0,.11,0,.15,0,.04,0,.11,0,.15,0,.04,0,.11,0,.15,0,.04,0,.11,0,.15,0,.04,0,.11,0,.15,0,.04,0,.11,0,.15,0,.04,0,.11,0,.15,0,.04,0,.11,0,.15,0,.04,0,.11,0,.15,0,.04,0,.11,0,.15,0,.04,0,.11,0,.15,0,.04,0,.11,0,.15,0,.04,0,.11,0,.15,0,.04,0,.11,0,.15,0,.04,0,.11,0,.15,0,.04,0,.11,0,.15,0,.04,0,.11,0,.15,0,.04,0,.11,0,.15,0,.04,0,.11,0,.15,0,.04,0,.11,0,.15,0,.04,0,.11,0,.15,0,.04,0,.11,0,.15,0,.04,0,.11,0,.15,0,.04,0,.11,0,.15,0,.04,0,.11,0,.15,0,.04,0,.11,0,.15,0,.04,0,.11,0,.15,0,.04,0,.11,0,.15,0,.04,0,.11,0,.15,0,.04,0,.11,0,.15,0,.04,0,.11,0,.15,0,.04,0,.11,0,.15,0,.04,0,.11,0,.15,0,.04,0,.11,0,.15,0,.04,0,.11,0,.15,0,.04,0,.11,0,.15,0,.04,0,.11,0,.15,0,.04,0,.11,0,.15,0,.04,0,.11,0,.15,0,.04,0,.11,0,.15,0,.04,0,.11,0,.15,0,.04,0,.11,0,.15,0,.04,0,.11,0,.15,0,.04,0,.11,0,.15,0,.04,0,.11,0,.15,0,.04,0,.11,0,.15,0,.04,0,.11,0,.15,0,.04,0,.11,0,.15,0,.04,0,.11,0,.15,0,.04,0,.11,0,.15,0,.04,0,.11,0,.15,0,.04,0,.11,0,.15,0,.04,0,.11,0,.15,0,.04,0,.11,0,.15,0,.04,0,.11,0,.15,0,.04,0,.11,0,.15,0,.04,0,.11,0,.15,0,.04,0,.11,0,.15,0,.04,0,.11,0,.15,0,.04,0,.11,0,.15,0,.04,0,.11,0,.15,0,.04,0,.11,0,.15,0,.04,0,.11,0,.15,0,.04,0,.11,0,.15,0,.04,0,.11,0,.15,0,.04,0,.11,0,.15,0,.04,0,.11,0,.15,0,.04,0,.11,0,.15,0,.04,0,.11,0,.15,0,.04,0,.11,0,.15,0,.04,0,.11,0,.15,0,.04,0,.11,0,.15,0,.04,0,.11,0,.15,0,.04,0,.11,0,.15,0,.04,0,.11,0,.15,0,.04,0,.11,0,.15,0,.04,0,.11,0,.15,0,.04,0,.11,0,.15,0,.04,0,.11,0,.15,0,.04,0,.11,0,.15,0,.04,0,.11,0,.15,0,.04,0,.11,0,.15,0,.04,0,.11,0,.15,0,.04,0,.11,0,.15,0,.04,0,.11,0,.15,0,.04,0,.11,0,.15,0,.04,0,.11,0,.15,0,.04,0,.11,0,.15,0,.04,0,.11,0,.15,0,.04,0,.11,0,.15,0,.04,0,.11,0,.15,0,.04,0,.11,0,.15,0,.04,0,.11,0,.15,0,.04,0,.11,0,.15,0,.04,0,.11,0,.15,0,.04,0,.11,0,.15,0,.04,0,.11,0,.15,0,.04,0,.11,0,.15,0,.04,0,.11,0,.15,0,.04,0,.11,0,.15,0,.04,0,.11,0,.15,0,.04,0,.11,0,.15,0,.04,0,.11,0,.15,0,.04,0,.11,0,.15,0,.04,0,.11,0,.15,0,.04,0,.11,0,.15,0,.04,0,.11,0,.15,0,.04,0,.11,0,.15,0,.04,0,.11,0,.15,0,.04,0,.11,0,.15,0,.04,0,.11,0,.15,0,.04,0,.11,0,.15,0,.04,0,.11,0,.15,0,.04,0,.11,0,.15,0,.04,0,.11,0,.15,0,.04,0,.11,0,.15,0,.04,0,.11,0,.15,0,.04,0,.11,0,.15,0,.04,0,.11,0,.15,0,.04,0,.11,0,.15,0,.04,0,.11,0,.15,0,.04,0,.11,0,.15,0,.04,0,.11,0,.15,0,.04,0,.11,0,.15,0,.04,0,.11,0,.15,0,.04,0,.11,0,.15,0,.04,0,.11,0,.15,0,.04,0,.11,0,.15,0,.04,0,.11,0,.15,0,.04,0,.11,0,.15,0,.04,0,.11,0,.15,0,.04,0,.11,0,.15,0,.04,0,.11,0,.15,0,.04,0,.11,0,.15,0,.04,0,.11,0,.15,0,.04,0,.11,0,.15,0,.04,0,.11,0,.15,0,.04,0,.11,0,.15,0,.04,0,.11,0,.15,0,.04,0,.11,0,.15,0,.04,0,.11,0,.15,0,.04,0,.11,0,.15,0,.04,0,.11,0,.15,0,.04,0,.11,0,.15,0,.04,0,.11,0,.15,0,.04,0,.11,0,.15,0,.04,0,.11,0,.15,0,.04,0,.11,0,.15,0,.04,0,.11,0,.15,0,.04,0,.11,0,.15,0,.04,0,.11,0,.15,0,.04,0,.11,0,.15,0,.04,0,.11,0,.15,0,.04,0,.11,0,.15,0,.04,0,.11,0,.15,0,.04,0,.11,0,.15,0,.04,0,.11,0,.15,0,.04,0,.11,0,.15,0,.04,0,.11,0,.15,0,.04,0,.11,0,.15,0,.04,0,.11,0,.15,0,.04,0,.11,0,.15,0,.04,0,.11,0,.15,0,.04,0,.11,0,.15,0,.04,0,.11,0,.15,0,.04,0,.11,0,.15,0,.04,0,.11,0,.15,0,.04,0,.11,0,.15,0,.04,0,.11,0,.15,0,.04,0,.11,0,.15,0,.04,0,.11,0,.15,0,.04,0,.11,0,.15,0,.04,0,.11,0,.15,0,.04,0,.11,0,.15,0,.04,0,.11,0,.15,0,.04,0,.11,0,.15,0,.04,0,.11,0,.15,0,.04,0,.11,0,.15,0,.04,0,.11,0,.15,0,.04,0,.11,0,.15,0,.04,0,.11,0,.15,0,.04,0,.11,0,.15,0,.04,0,.11,0,.15,0,.04,0,.11,0,.15,0,.04,0,.11,0,.15,0,.04,0,.11,0,.15,0,.04,0,.11,0,.15,0,.04,0,.11,0,.15,0,.04,0,.11,0,.15,0,.04,0,.11,0,.15,0,.04,0,.11,0,.15,0,.04,0,.11,0,.15,0,.04,0,.11,0,.15,0,.04,0,.11,0,.15,0,.04,0,.11,0,.15,0,.04,0,.11,0,.15,0,.04,0,.11,0,.15,0,.04,0,.11,0,.15,0,.04,0,.11,0,.15,0,.04,0,.11,0,.15,0,.04,0,.11,0,.15,0,.04,0,.11,0,.15,0,.04,0,.11,0,.15,0,.04,0,.11,0,.15,0,.04,0,.11,0,.15,0,.04,0,.11,0,.15,0,.04,0,.11,0,.15,0,.04,0,.11,0,.15,0,.04,0,.11,0,.15,0,.04,0,.11,0,.15,0,.04,0,.11,0,.15,0,.04,0,.11,0,.15,0,.01,0,.12,0,.13,0,.18.04.36.09.53l-60.84,20.88ZM186.11,46.37s.01-.01.02-.02c0,.01,0,.02,0,.03,0,.02,0,.05,0,.07,0,.02,0,.05,0,.07,0,.03,0,.05,0,.07,0,.02,0,.05,0,.07,0,.02,0,.05,0,.07,0,.02,0,.05,0,.07,0,.03,0,.05,0,.07,0,.02,0,.05,0,.07,0,.02,0,.05,0,.07,0,.02,0,.05,0,.07,0,.03,0,.05,0,.07,0,.03,0,.05,0,.07,0,.02,0,.05,0,.07,0,.02,0,.05,0,.07,0,.03,0,.05,0,.07,0,.02,0,.05,0,.07,0,.02,0,.05,0,.07,0,.02,0,.05,0,.07,0,.03,0,.05,0,.07,0,.03,0,.05,0,.07,0,.02,0,.05,0,.07,0,.03,0,.05,0,.07,0,.02,0,.05,0,.07,0,.02,0,.05,0,.07,0,.02,0,.05,0,.07,0,.03,0,.05,0,.07,0,.02,0,.05,0,.07,0,.02,0,.05,0,.07,0,.02,0,.05,0,.07,0,.03,0,.05,0,.07,0,.02,0,.05,0,.07,0,.02,0,.05,0,.07,0,.02,0,.05,0,.07,0,.03,0,.05,0,.07,0,.02,0,.05,0,.07,0,.02,0,.05,0,.07,0,.02,0,.05,0,.07,0,.03,0,.05,0,.07,0,.02,0,.05,0,.07,0,.02,0,.05,0,.07,0,.02,0,.05,0,.07,0,.03,0,.05,0,.07,0,.02,0,.05,0,.07,0,.02,0,.05,0,.07,0,.02,0,.05,0,.07,0,.03,0,.05,0,.07,0,.02,0,.05,0,.07,0,.02,0,.05,0,.07,0,.02,0,.05,0,.07,0,.03,0,.05,0,.07,0,.02,0,.05,0,.07,0,.02,0,.05,0,.07,0,.02,0,.05,0,.07,0,.02,0,.05,0,.07,0,.02,0,.05,0,.07,0,.02,0,.05,0,.07,0,.03,0,.05,0,.07,0,.02,0,.05,0,.07,0,.02,0,.05,0,.07,0,.02,0,.05,0,.07,0,.03,0,.05,0,.07,0,.02,0,.05,0,.07,0,.02,0,.05,0,.07,0,.02,0,.05,0,.07,0,.03,0,.05,0,.07,0,.02,0,.05,0,.07,0,.02,0,.05,0,.07,0,.02,0,.05,0,.07,0,.03,0,.05,0,.07,0,.03,0,.05,0,.07,0,.02,0,.05,0,.07,0,.02,0,.05,0,.07,0,.03,0,.05,0,.07,0,.02,0,.05,0,.07,0,.02,0,.05,0,.07,0,.02,0,.05,0,.07,0,.03,0,.05,0,.07,0,.03,0,.05,0,.07,0,.02,0,.05,0,.07,0,.02,0,.05,0,.07,0,.03,0,.05,0,.07,0,.02,0,.05,0,.07,0,.02,0,.05,0,.07,0,.02,0,.05,0,.07,0,.03,0,.05,0,.07,0,.02,0,.05,0,.07,0,.02,0,.05,0,.07,0,.03,0,.05,0,.07,0,.02,0,.05,0,.07,0,.02,0,.05,0,.07,0,.02,0,.05,0,.07,0,.03,0,.05,0,.07,0,.02,0,.05,0,.07,0,.02,0,.05,0,.07,0,.02,0,.05,0,.07,0,.03,0,.05,0,.07,0,.02,0,.05,0,.07,0,.02,0,.05,0,.07,0,.02,0,.05,0,.07,0,.03,0,.05,0,.07,0,.02,0,.05,0,.07,0,.02,0,.05,0,.07,0,.02,0,.05,0,.07,0,.03,0,.05,0,.07,0,.02,0,.05,0,.07,0,.02,0,.05,0,.07,0,.02,0,.05,0,.07,0,.03,0,.05,0,.07,0,.02,0,.05,0,.07,0,.02,0,.05,0,.07,0,.02,0,.05,0,.07,0,.03,0,.05,0,.07,0,.02,0,.05,0,.07,0,.02,0,.05,0,.07,0,.02,0,.05,0,.07,0,.03,0,.05,0,.07,0,.03,0,.05,0,.07,0,.02,0,.05,0,.07,0,.03,0,.05,0,.07,0,.02,0,.05,0,.07,0,.02,0,.05,0,.07,0,.02,0,.05,0,.07,0,.03,0,.05,0,.07,0,.02,0,.05,0,.07,0,.02,0,.05,0,.07,0,.02,0,.05,0,.07,0,.03,0,.05,0,.07,0,.02,0,.05,0,.07,0,.02,0,.05,0,.07,0,.02,0,.05,0,.07,0,.03,0,.05,0,.07,0,.02,0,.05,0,.07,0,.02,0,.05,0,.07,0,.02,0,.05,0,.07,0,.03,0,.05,0,.07,0,.03,0,.05,0,.07,0,.02,0,.05,0,.07,0,.02,0,.05,0,.07,0,.03,0,.05,0,.07,0,.02,0,.05,0,.07,0,.02,0,.05,0,.07,0,.02,0,.05,0,.07,0,.03,0,.05,0,.07,0,.02,0,.05,0,.07,0,.02,0,.05,0,.07,0,.02,0,.05,0,.07,0,.03,0,.05,0,.07,0,.02,0,.05,0,.07,0,.02,0,.05,0,.07,0,.02,0,.05,0,.07,0,.03,0,.05,0,.07,0,.02,0,.05,0,.07,0,.02,0,.05,0,.07,0,.03,0,.05,0,.07,0,.02,0,.05,0,.07,0,.02,0,.05,0,.07,0,.02,0,.05,0,.07,0,.03,0,.05,0,.07,0,.02,0,.05,0,.07,0,.02,0,.05,0,.07,0,.02,0,.05,0,.07,0,.03,0,.05,0,.07,0,.02,0,.05,0,.07,0,.02,0,.05,0,.07,0,.02,0,.05,0,.07,0,.03,0,.05,0,.07,0,.02,0,.05,0,.07,0,.02,0,.05,0,.07,0,.02,0,.05,0,.07,0,.03,0,.05,0,.07,0,.02,0,.05,0,.07,0,.02,0,.05,0,.07,0,.02,0,.05,0,.07,0,.03,0,.05,0,.07,0,.03,0,.05,0,.07,0,.02,0,.05,0,.07,0,.02,0,.05,0,.07,0,.03,0,.05,0,.07,0,.02,0,.05,0,.07,0,.02,0,.05,0,.07,0,.02,0,.05,0,.07,0,.03,0,.05,0,.07,0,.03,0,.05,0,.07,0,.02,0,.05,0,.07,0,.03,0,.05,0,.07,0,.02,0,.05,0,.07,0,.02,0,.05,0,.07,0,.02,0,.05,0,.07,0,.03,0,.05,0,.07,0,.02,0,.05,0,.07,0,.02,0,.05,0,.07,0,.02,0,.05,0,.07,0,.03,0,.05,0,.07,0,.02,0,.05,0,.07,0,.02,0,.05,0,.07,0,.02,0,.05,0,.07,0,.03,0,.05,0,.07,0,.02,0,.05,0,.07,0,.02,0,.05,0,.07,0,.02,0,.05,0,.07,0,.03,0,.05,0,.07,0,.02,0,.05,0,.07,0,.02,0,.05,0,.07,0,.02,0,.05,0,.07,0,.03,0,.05,0,.07,0,.02,0,.05,0,.07,0,.02,0,.05,0,.07,0,.02,0,.05,0,.07,0,.03,0,.05,0,.07,0,.02,0,.05,0,.07,0,.02,0,.05,0,.07,0,.02,0,.05,0,.07,0,.03,0,.05,0,.07,0,.03,0,.05,0,.07,0,.02,0,.05,0,.07,0,.02,0,.05,0,.07,0,.03,0,.05,0,.07,0,.02,0,.05,0,.07,0,.02,0,.05,0,.07,0,.03,0,.05,0,.07,0,.02,0,.05,0,.07,0,.02,0,.05,0,.07,0,.02,0,.05,0,.07,0,.03,0,.05,0,.07,0,.02,0,.05,0,.07,0,.02,0,.05,0,.07,0,.02,0,.05,0,.07,0,.03,0,.05,0,.07,0,.02,0,.05,0,.07,0,.02,0,.05,0,.07,0,.02,0,.05,0,.07,0,.03,0,.05,0,.07,0,.02,0,.05,0,.07,0,.02,0,.05,0,.07,0,.02,0,.05,0,.07,0,.03,0,.05,0,.07,0,.02,0,.05,0,.07,0,.02,0,.05,0,.07,0,.02,0,.05,0,.07,0,.03,0,.05,0,.07,0,.03,0,.05,0,.07,0,.02,0,.05,0,.07,0,.02,0,.05,0,.07,0,.03,0,.05,0,.07,0,.02,0,.05,0,.07,0,.02,0,.05,0,.07,0,.02,0,.05,0,.07,0,.03,0,.05,0,.07,0,.02,0,.05,0,.07,0,.02,0,.05,0,.07,0,.03,0,.05,0,.07,0,.02,0,.05,0,.07,0,.02,0,.05,0,.07,0,.02,0,.05,0,.07,0,.03,0,.05,0,.07,0,.02,0,.05,0,.07,0,.02,0,.05,0,.07,0,.02,0,.05,0,.07,0,.03,0,.05,0,.07,0,.02,0,.05,0,.07,0,.02,0,.05,0,.07,0,.02,0,.05,0,.07,0,.03,0,.05,0,.07,0,.02,0,.05,0,.07,0,.02,0,.05,0,.07,0,.02,0,.05,0,.07,0,.03,0,.05,0,.07,0,.02,0,.05,0,.07,0,.02,0,.05,0,.07,0,.02,0,.05,0,.07,0,.03,0,.05,0,.07,0,.03,0,.05,0,.07,0,.02,0,.05,0,.07,0,.02,0,.05,0,.07,0,.03,0,.05,0,.07,0,.02,0,.05,0,.07,0,.02,0,.05,0,.07,0,.02,0,.05,0,.07,0,.03,0,.05,0,.07,0,.03,0,.05,0,.07,0,.02,0,.05,0,.07,0,.02,0,.05,0,.07,0,.03,0,.05,0,.07,0,.02,0,.05,0,.07,0,.02,0,.05,0,.07,0,.03,0,.05,0,.07,0,.02,0,.05,0,.07,0,.02,0,.05,0,.07,0,.02,0,.05,0,.07,0,.03,0,.05,0,.07,0,.02,0,.05,0,.07,0,.02,0,.05,0,.07,0,.02,0,.05,0,.07,0,.03,0,.05,0,.07,0,.02,0,.05,0,.07,0,.02,0,.05,0,.07,0,.02,0,.05,0,.07,0,.03,0,.05,0,.07,0,.02,0,.05,0,.07,0,.02,0,.05,0,.07,0,.02,0,.05,0,.07,0,.03,0,.05,0,.07,0,.02,0,.05,0,.07,0,.02,0,.05,0,.07,0,.02,0,.05,0,.07,0,.03,0,.05,0,.07,0,.02,0,.05,0,.07,0,.02,0,.05,0,.07,0,.02,0,.05,0,.07,0,.03,0,.05,0,.07,0,.02,0,.05,0,.07,0,.02,0,.05,0,.07,0,.02,0,.05,0,.07,0,.03,0,.05,0,.07,0,.02,0,.05,0,.07,0,.02,0,.05,0,.07,0,.03,0,.05,0,.07,0,.02,0,.05,0,.07,0,.02,0,.05,0,.07,0,.02,0,.05,0,.07,0,.03,0,.05,0,.07,0,.02,0,.05,0,.07,0,.02,0,.05,0,.07,0,.02,0,.05,0,.07,0,.03,0,.05,0,.07,0,.02,0,.05,0,.07,0,.02,0,.05,0,.07,0,.02,0,.05,0,.07,0,.03,0,.05,0,.07,0,.02,0,.05,0,.07,0,.02,0,.05,0,.07,0,.02,0,.05,0,.07,0,.03,0,.05,0,.07,0,.02,0,.05,0,.07,0,.02,0,.05,0,.07,0,.02,0,.05,0,.07,0,.03,0,.05,0,.07,0,.03,0,.05,0,.07,0,.02,0,.05,0,.07,0,.02,0,.05,0,.07,0,.03,0,.05,0,.07,0,.02,0,.05,0,.07,0,.02,0,.05,0,.07,0,.02,0,.05,0,.07,0,.03,0,.05,0,.07,0,.02,0,.05,0,.07,0,.02,0,.05,0,.07,0,.02,0,.05,0,.07,0,.03,0,.05,0,.07,0,.02,0,.05,0,.07,0,.02,0,.05,0,.07,0,.03,0,.05,0,.07,0,.02,0,.05,0,.07,0,.02,0,.05,0,.07,0,.02,0,.05,0,.07,0,.03,0,.05,0,.07,0,.02,0,.05,0,.07,0,.02,0,.05,0,.07,0,.02,0,.05,0,.07,0,.03,0,.05,0,.07,0,.02,0,.05,0,.07,0,.02,0,.05,0,.07,0,.02,0,.05,0,.07,0,.03,0,.05,0,.07,0,.02,0,.05,0,.07,0,.02,0,.05,0,.07,0,.02,0,.05,0,.07,0,.03,0,.05,0,.07,0,.02,0,.05,0,.07,0,.02,0,.05,0,.07,0,.02,0,.05,0,.07,0,.03,0,.05,0,.07,0,.02,0,.05,0,.07,0,.02,0,.05,0,.07,0,.02,0,.05,0,.07,0,.03,0,.05,0,.07,0,.03,0,.05,0,.07,0,.02,0,.05,0,.07,0,.02,0,.05,0,.07,0,.03,0,.05,0,.07,0,.02,0,.05,0,.07,0,.02,0,.05,0,.07,0,.03,0,.05,0,.07,0,.02,0,.05,0,.07,0,.02,0,.05,0,.07,0,.02,0,.05,0,.07,0,.03,0,.05,0,.07,0,.02,0,.05,0,.07,0,.02,0,.05,0,.07,0,.02,0,.05,0,.07,0,.03,0,.05,0,.07,0,.02,0,.05,0,.07,0,.02,0,.05,0,.07,0,.02,0,.05,0,.07,0,.03,0,.05,0,.07,0,.02,0,.05,0,.07,0,.02,0,.05,0,.07,0,.02,0,.05,0,.07,0,.03,0,.05,0,.07,0,.02,0,.05,0,.07,0,.02,0,.05,0,.07,0,.02,0,.05,0,.07,0,.03,0,.05,0,.07,0,.02,0,.05,0,.07,0,.02,0,.05,0,.07,0,.02,0,.05,0,.07,0,.03,0,.05,0,.07,0,.02,0,.05,0,.07,0,.02,0,.05,0,.07,0,.02,0,.05,0,.07,0,.03,0,.05,0,.07,0,.02,0,.05,0,.07,0,.02,0,.05,0,.07,0,.02,0,.05,0,.07,0,.02,0,.05,0,.07,0,.02,0,.05,0,.07,0,.02,0,.05,0,.07,0,.03,0,.05,0,.07,0,.02,0,.05,0,.07,0,.02,0,.05,0,.07,0,.02,0,.05,0,.07,0,.03,0,.05,0,.07,0,.02,0,.05,0,.07,0,.02,0,.05,0,.07,0,.02,0,.05,0,.07,0,.03,0,.05,0,.07,0,.02,0,.05,0,.07,0,.02,0,.05,0,.07,0,.02,0,.05,0,.07,0,.03,0,.05,0,.07,0,.02,0,.05,0,.07,0,.02,0,.05,0,.07,0,.02,0,.05,0,.07,0,.03,0,.05,0,.07,0,.03,0,.05,0,.07,0,.02,0,.05,0,.07,0,.12,0,.24.03.37.01.06.03.12.04.18,0,.02.02.03.02.04l-60.91,21.06,60.8-53.86ZM61.43,117.73c-7.18,2.88-14.51,4.51-21.78,4.86-11.19.54-17.35-2.01-23.86-4.71-1.65-.69-3.36-1.39-5.17-2.06-2.08-.76-3.96-1.8-5.94-2.9l-1.01-.58s0-.12,0-.14c0-.06,0-.12,0-.15,0-.06,0-.12,0-.15,0-.06,0-.12,0-.15,0-.06,0-.12,0-.15,0-.06,0-.12,0-.15,0-.06,0-.12,0-.15,0-.06,0-.12,0-.15,0-.06,0-.12,0-.15,0-.06,0-.12,0-.15,0-.06,0-.12,0-.15,0-.06,0-.12,0-.15,0-.06,0-.12,0-.15,0-.06,0-.12,0-.15,0-.06,0-.12,0-.15,0-.06,0-.12,0-.15,0-.06,0-.12,0-.15,0-.06,0-.12,0-.15,0-.06,0-.12,0-.15,0-.06,0-.12,0-.15,0-.06,0-.12,0-.15,0-.06,0-.12,0-.15,0-.06,0-.12,0-.15,0-.06,0-.12,0-.15,0-.06,0-.12,0-.15,0-.06,0-.12,0-.15,0-.06,0-.12,0-.15,0-.06,0-.12,0-.15,0-.06,0-.12,0-.15,0-.06,0-.12,0-.15,0-.06,0-.12,0-.15,0-.06,0-.12,0-.15,0-.06,0-.12,0-.15,0-.06,0-.12,0-.15,0-.06,0-.12,0-.15,0-.06,0-.12,0-.15,0-.06,0-.12,0-.15,0-.06,0-.12,0-.15,0-.06,0-.12,0-.15,0-.06,0-.12,0-.15,0-.06,0-.12,0-.15,0-.06,0-.12,0-.15,0-.06,0-.12,0-.15,0-.06,0-.12,0-.15,0-.06,0-.12,0-.15,0-.06,0-.12,0-.15,0-.06,0-.12,0-.15,0-.06,0-.12,0-.15,0-.06,0-.12,0-.15,0-.06,0-.12,0-.15,0-.06,0-.12,0-.15,0-.06,0-.12,0-.15,0-.06,0-.12,0-.15,0-.06,0-.12,0-.15,0-.06,0-.12,0-.15,0-.06,0-.12,0-.15,0-.06,0-.12,0-.15,0-.06,0-.12,0-.15,0-.06,0-.12,0-.15,0-.06,0-.12,0-.15,0-.06,0-.12,0-.15,0-.06,0-.12,0-.15,0-.06,0-.12,0-.15,0-.06,0-.12,0-.15,0-.06,0-.12,0-.15,0-.06,0-.12,0-.15,0-.06,0-.12,0-.15,0-.06,0-.12,0-.15,0-.06,0-.12,0-.15,0-.06,0-.12,0-.15,0-.06,0-.12,0-.15,0-.06,0-.12,0-.15,0-.06,0-.12,0-.15,0-.06,0-.12,0-.15,0-.06,0-.12,0-.15,0-.06,0-.12,0-.15,0-.06,0-.12,0-.15,0-.06,0-.12,0-.15,0-.06,0-.12,0-.15,0-.06,0-.12,0-.15,0-.06,0-.12,0-.15,0-.06,0-.12,0-.15,0-.06,0-.12,0-.15,0-.06,0-.12,0-.15,0-.06,0-.12,0-.15,0-.06,0-.12,0-.15,0-.06,0-.12,0-.15,0-.06,0-.12,0-.15,0-.06,0-.12,0-.15,0-.06,0-.12,0-.15,0-.06,0-.12,0-.15,0-.06,0-.12,0-.15,0-.06,0-.12,0-.15,0-.06,0-.12,0-.15,0-.06,0-.12,0-.15,0-.06,0-.12,0-.15,0-.06,0-.12,0-.15,0-.06,0-.12,0-.15,0-.06,0-.12,0-.15,0-.06,0-.12,0-.15,0-.06,0-.12,0-.15,0-.06,0-.12,0-.15,0-.06,0-.12,0-.15,0-.06,0-.12,0-.15,0-.06,0-.12,0-.15,0-.06,0-.12,0-.15,0-.06,0-.12,0-.15,0-.06,0-.12,0-.15,0-.06,0-.12,0-.15,0-.06,0-.12,0-.15,0-.06,0-.12,0-.15,0-.06,0-.12,0-.15,0-.06,0-.12,0-.15,0-.06,0-.12,0-.15,0-.06,0-.12,0-.15,0-.06,0-.12,0-.15,0-.06,0-.12,0-.15,0-.06,0-.12,0-.15,0-.06,0-.12,0-.15,0-.06,0-.12,0-.15,0-.06,0-.12,0-.15,0-.06,0-.12,0-.15,0-.06,0-.12,0-.15,0-.06,0-.12,0-.15,0-.06,0-.12,0-.15,0-.06,0-.12,0-.15,0-.06,0-.12,0-.15,0-.06,0-.12,0-.15,0-.06,0-.12,0-.15,0-.06,0-.12,0-.15,0-.06,0-.12,0-.15,0-.06,0-.12,0-.15,0-.06,0-.12,0-.15,0-.06,0-.12,0-.15,0-.06,0-.12,0-.15,0-.06,0-.12,0-.15,0-.06,0-.12,0-.15,0-.06,0-.12,0-.15,0-.06,0-.12,0-.15,0-.06,0-.12,0-.15,0-.06,0-.12,0-.15,0-.06,0-.12,0-.15,0-.06,0-.12,0-.15,0-.06,0-.12,0-.15,0-.06,0-.12,0-.15,0-.06,0-.12,0-.15,0-.06,0-.12,0-.15,0-.06,0-.12,0-.15,0-.06,0-.12,0-.15,0-.06,0-.12,0-.15,0-.06,0-.12,0-.15,0-.06,0-.12,0-.15,0-.06,0-.12,0-.15,0-.06,0-.12,0-.15,0-.06,0-.12,0-.15,0-.06,0-.12,0-.15,0-.06,0-.12,0-.15,0-.06,0-.12,0-.15,0-.06,0-.12,0-.15,0-.06,0-.12,0-.15,0-.06,0-.12,0-.15,0-.06,0-.12,0-.15,0-.06,0-.12,0-.15,0-.06,0-.12,0-.15,0-.06,0-.12,0-.15,0-.06,0-.12,0-.15,0-.06,0-.12,0-.15,0-.06,0-.12,0-.15,0-.06,0-.12,0-.15,0-.06,0-.12,0-.15,0-.06,0-.12,0-.15,0-.06,0-.12,0-.15,0-.06,0-.12,0-.15,0-.06,0-.12,0-.15,0-.06,0-.12,0-.15,0-.06,0-.12,0-.15,0-.06,0-.12,0-.15,0-.06,0-.12,0-.15,0-.06,0-.12,0-.15,0-.06,0-.12,0-.15,0-.06,0-.12,0-.15,0-.06,0-.12,0-.15,0-.06,0-.12,0-.15,0-.06,0-.12,0-.15,0-.06,0-.12,0-.15,0-.06,0-.12,0-.15,0-.06,0-.12,0-.15,0-.06,0-.12,0-.15,0-.06,0-.12,0-.15,0-.06,0-.12,0-.15,0-.06,0-.12,0-.15,0-.06,0-.12,0-.15,0-.06,0-.12,0-.15,0-.06,0-.12,0-.15,0-.06,0-.12,0-.15,0-.06,0-.12,0-.15,0-.06,0-.12,0-.15,0-.06,0-.12,0-.15,0-.06,0-.12,0-.15,0-.06,0-.12,0-.15,0-.06,0-.12,0-.15,0-.06,0-.12,0-.15,0-.06,0-.12,0-.15,0-.06,0-.12,0-.15,0-.06,0-.12,0-.15,0-.06,0-.12,0-.15,0-.06,0-.12,0-.15,0-.06,0-.12,0-.15,0-.06,0-.12,0-.15,0-.06,0-.12,0-.15,0-.06,0-.12,0-.15,0-.06,0-.12,0-.15,0-.06,0-.12,0-.15,0-.06,0-.12,0-.15,0-.06,0-.12,0-.15,0-.06,0-.12,0-.15,0-.06,0-.12,0-.15,0-.06,0-.12,0-.15,0-.06,0-.12,0-.15,0-.06,0-.12,0-.15,0-.06,0-.12,0-.15,0-.06,0-.12,0-.15,0-.06,0-.12,0-.15,0-.06,0-.12,0-.15,0-.06,0-.12,0-.15,0-.06,0-.12,0-.15,0-.06,0-.12,0-.15,0-.06,0-.12,0-.15,0-.06,0-.12,0-.15,0-.06,0-.12,0-.15,0-.06,0-.12,0-.15,0-.06,0-.12,0-.15,0-.06,0-.12,0-.15,0-.06,0-.12,0-.15,0-.06,0-.12,0-.15,0-.06,0-.12,0-.15,0-.06,0-.12,0-.15,0-.06,0-.12,0-.15,0-.06,0-.12,0-.15,0-.06,0-.12,0-.15,0-.06,0-.12,0-.15,0-.06,0-.12,0-.15,0-.06,0-.12,0-.15,0-.06,0-.12,0-.15,0-.06,0-.12,0-.15,0-.06,0-.12,0-.15,0-.06,0-.12,0-.15,0-.06,0-.12,0-.15,0-.06,0-.12,0-.15,0-.06,0-.12,0-.15,0-.06,0-.12,0-.15,0-.06,0-.12,0-.15,0-.06,0-.12,0-.15,0-.06,0-.12,0-.15,0-.06,0-.12,0-.15,0-.06,0-.12,0-.15,0-.06,0-.12,0-.15,0-.06,0-.12,0-.15,0-.06,0-.12,0-.15,0-.06,0-.12,0-.15,0-.06,0-.12,0-.15,0-.06,0-.12,0-.15,0-.06,0-.12,0-.15,0-.06,0-.12,0-.15,0-.06,0-.12,0-.15,0-.06,0-.12,0-.15,0-.06,0-.12,0-.15,0-.06,0-.12,0-.15,0-.06,0-.12,0-.15,0-.06,0-.12,0-.15,0-.06,0-.12,0-.15,0-.06,0-.12,0-.15,0-.06,0-.12,0-.15,0-.06,0-.12,0-.15,0-.06,0-.12,0-.15,0-.06,0-.12,0-.15,0-.06,0-.12,0-.15,0-.06,0-.12,0-.15,0-.06,0-.12,0-.15,0-.06,0-.12,0-.15,0-.06,0-.12,0-.15,0-.06,0-.12,0-.15,0-.06,0-.12,0-.15,0-.06,0-.12,0-.15,0-.06,0-.12,0-.15,0-.06,0-.12,0-.15,0-.06,0-.12,0-.15,0-.06,0-.12,0-.15,0-.06,0-.12,0-.15,0-.06,0-.12,0-.15,0-.06,0-.12,0-.15,0-.06,0-.12,0-.15,0-.06,0-.12,0-.15,0-.06,0-.12,0-.15,0-.06,0-.12,0-.15,0-.06,0-.12,0-.15,0-.06,0-.12,0-.15,0-.06,0-.12,0-.15,0-.06,0-.12,0-.15,0-.06,0-.12,0-.15,0-.06,0-.12,0-.15,0-.06,0-.12,0-.15,0-.06,0-.12,0-.15,0-.06,0-.12,0-.15,0-.06,0-.12,0-.15,0-.06,0-.12,0-.15,0-.06,0-.12,0-.15,0-.06,0-.12,0-.15,0-.06,0-.12,0-.15,0-.06,0-.12,0-.15,0-.06,0-.12,0-.15,0-.06,0-.12,0-.15,0-.06,0-.12,0-.15,0-.06,0-.12,0-.15,0-.06,0-.12,0-.15,0-.06,0-.12,0-.15,0-.06,0-.12,0-.15,0-.06,0-.12,0-.15,0-.06,0-.12,0-.15,0-.06,0-.12,0-.15,0-.06,0-.12,0-.15,0-.06,0-.12,0-.15,0-.06,0-.12,0-.15,0-.06,0-.12,0-.15,0-.06,0-.12,0-.15,0-.06,0-.12,0-.15,0-.06,0-.12,0-.15,0-.06,0-.12,0-.15,0-.06,0-.12,0-.15,0-.06,0-.12,0-.15,0-.06,0-.12,0-.15,0-.06,0-.12,0-.15,0-.06,0-.12,0-.15,0-.06,0-.12,0-.15,0-.06,0-.12,0-.15,0-.06,0-.12,0-.15,0-.06,0-.12,0-.15,0-.06,0-.12,0-.15,0-.06,0-.12,0-.15,0-.06,0-.12,0-.15,0-.06,0-.12,0-.15,0-.06,0-.12,0-.15,0-.06,0-.12,0-.15,0-.06,0-.12,0-.15,0-.06,0-.12,0-.15,0-.06,0-.12,0-.15,0-.06,0-.12,0-.15,0-.06,0-.12,0-.15,0-.06,0-.12,0-.15,0-.06,0-.12,0-.15,0-.06,0-.12,0-.15,0-.06,0-.12,0-.15,0-.06,0-.12,0-.15,0-.06,0-.12,0-.15,0-.06,0-.12,0-.15,0-.06,0-.12,0-.15,0-.06,0-.12,0-.15,0-.06,0-.12,0-.15,0-.06,0-.12,0-.15,0-.06,0-.12,0-.15,0-.06,0-.12,0-.15,0-.06,0-.12,0-.15,0-.06,0-.12,0-.15,0-.06,0-.12,0-.15,0-.06,0-.12,0-.15,0-.06,0-.12,0-.15,0-.06,0-.12,0-.15,0-.06,0-.12,0-.15,0-.06,0-.12,0-.15,0-.06,0-.12,0-.15,0-.06,0-.12,0-.15,0-.06,0-.12,0-.15,0-.06,0-.12,0-.15,0-.06,0-.12,0-.15,0-.06,0-.12,0-.15,0-.06,0-.12,0-.15,0-.06,0-.12,0-.15,0-.06,0-.12,0-.15,0-.06,0-.12,0-.15,0-.06,0-.12,0-.15,0-.06,0-.12,0-.15,0-.06,0-.12,0-.15,0-.06,0-.12,0-.15,0-.06,0-.12,0-.15,0-.06,0-.12,0-.15,0-.06,0-.12,0-.15,0-.06,0-.12,0-.15,0-.06,0-.12,0-.15,0-.06,0-.12,0-.15,0-.06,0-.12,0-.15,0-.06,0-.12,0-.15,0-.06,0-.12,0-.15,0-.06,0-.12,0-.15,0-.06,0-.12,0-.15,0-.06,0-.12,0-.15,0-.06,0-.12,0-.15,0-.06,0-.12,0-.15,0-.06,0-.12,0-.15,0-.06,0-.12,0-.15,0-.06,0-.12,0-.15,0-.06,0-.12,0-.15,0-.06,0-.12,0-.15,0-.06,0-.12,0-.15,0-.06,0-.12,0-.15,0-.06,0-.12,0-.15,0-.06,0-.12,0-.15,0-.06,0-.12,0-.15,0-.06,0-.12,0-.15,0-.06,0-.12,0-.15,0-.06,0-.12,0-.15,0-.06,0-.12,0-.15,0-.06,0-.12,0-.15,0-.06,0-.12,0-.15,0-.06,0-.12,0-.15,0-.06,0-.12,0-.15,0-.06,0-.12,0-.15,0-.06,0-.12,0-.15,0-.06,0-.12,0-.15,0-.06,0-.12,0-.15,0-.06,0-.12,0-.15,0-.06,0-.12,0-.15,0-.06,0-.12,0-.15,0-.06,0-.12,0-.15,0-.06,0-.12,0-.15,0-.06,0-.12,0-.15,0-.06,0-.12,0-.15,0-.06,0-.12,0-.15,0-.06,0-.12,0-.15,0-.06,0-.12,0-.15,0-.06,0-.12,0-.15,0-.06,0-.12,0-.15,0-.06,0-.12,0-.15,0-.06,0-.12,0-.15,0-.06,0-.12,0-.15,0-.06,0-.12,0-.15,0-.06,0-.12,0-.15,0-.06,0-.12,0-.15,0-.06,0-.12,0-.15,0-.06,0-.12,0-.15,0-.06,0-.12,0-.15,0-.06,0-.12,0-.15,0-.06,0-.12,0-.15,0-.06,0-.12,0-.15,0-.06,0-.12,0-.15,0-.06,0-.12,0-.15,0-.06,0-.12,0-.15,0-.06,0-.12,0-.15,0-.06,0-.12,0-.15,0-.06,0-.12,0-.15,0-.06,0-.12,0-.15,0-.06,0-.12,0-.15,0-.06,0-.12,0-.15,0-.06,0-.12,0-.15,0-.06,0-.12,0-.15,0-.06,0-.12,0-.15,0-.06,0-.12,0-.15,0-.06,0-.12,0-.15,0-.06,0-.12,0-.15,0-.06,0-.12,0-.15,0-.06,0-.12,0-.15,0-.06,0-.12,0-.15,0-.06,0-.12,0-.15,0-.06,0-.12,0-.15,0-.06,0-.12,0-.15,0-.06,0-.12,0-.15,0-.06,0-.12,0-.15,0-.06,0-.12,0-.15,0-.06,0-.12,0-.15,0-.06,0-.12,0-.15,0-.06,0-.12,0-.15,0-.06,0-.12,0-.15,0-.06,0-.12,0-.15,0-.06,0-.12,0-.15,0-.06,0-.12,0-.15,0-.06,0-.12,0-.15,0-.06,0-.12,0-.15,0-.06,0-.12,0-.15,0-.06,0-.12,0-.15,0-.06,0-.12,0-.15,0-.06,0-.12,0-.15,0-.06,0-.12,0-.15,0-.06,0-.12,0-.15,0-.06,0-.12,0-.15,0-.06,0-.12,0-.15,0-.06,0-.12,0-.15,0-.06,0-.12,0-.15,0-.06,0-.12,0-.15,0-.06,0-.12,0-.15,0-.06,0-.12,0-.15,0-.06,0-.12,0-.15,0,0,0,0,0-.01,5.91,3.19,21.23,11.4,23.43,12.2,11.48,4.22,25.14.1,35.44-5.72L131.42,7.51c.08-.05.17-.11.25-.16,0,.02,0,.03,0,.05,0,0,0,.01,0,.02,0,0,0,.01,0,.02h0s0-.01,0-.02c0,.02,0,.04,0,.06,0,.02,0,.05,0,.07,0,0,0,.01,0,.02,0,0,0,.01,0,.02h0s0-.01,0-.02c0,.02,0,.04,0,.06,0,.02,0,.05,0,.07,0,0,0,.01,0,.02,0,0,0,.01,0,.02h0s0-.01,0-.02c0,.02,0,.04,0,.06,0,.02,0,.05,0,.07,0,0,0,.01,0,.02,0,0,0,.01,0,.02h0s0-.01,0-.02c0,.02,0,.04,0,.06,0,.02,0,.05,0,.07,0,0,0,.01,0,.02,0,0,0,.01,0,.02h0s0-.01,0-.02c0,.02,0,.04,0,.06,0,.02,0,.05,0,.07,0,0,0,.01,0,.02,0,0,0,.01,0,.02h0s0-.01,0-.02c0,.02,0,.04,0,.06,0,.02,0,.05,0,.07,0,0,0,.01,0,.02,0,0,0,.01,0,.02h0s0-.01,0-.02c0,.02,0,.04,0,.06,0,.02,0,.05,0,.07,0,0,0,.01,0,.02,0,0,0,.01,0,.02h0s0-.01,0-.02c0,.02,0,.04,0,.06,0,.02,0,.05,0,.07,0,0,0,.01,0,.02,0,0,0,.01,0,.02h0s0-.01,0-.02c0,.02,0,.04,0,.06,0,.02,0,.05,0,.07,0,0,0,.01,0,.02,0,0,0,.01,0,.02h0s0-.01,0-.02c0,.02,0,.04,0,.06,0,.02,0,.05,0,.07,0,0,0,.01,0,.02,0,0,0,.01,0,.02h0s0-.01,0-.02c0,.02,0,.04,0,.06,0,.02,0,.05,0,.07,0,0,0,.01,0,.02,0,0,0,.01,0,.02h0s0-.01,0-.02c0,.02,0,.04,0,.06,0,.02,0,.05,0,.07,0,0,0,.01,0,.02,0,0,0,.01,0,.02h0s0-.01,0-.02c0,.02,0,.04,0,.06,0,.02,0,.05,0,.07,0,0,0,.01,0,.02,0,0,0,.01,0,.02h0s0-.01,0-.02c0,.02,0,.04,0,.06,0,.02,0,.05,0,.07,0,0,0,.01,0,.02,0,0,0,.01,0,.02h0s0-.01,0-.02c0,.02,0,.04,0,.06,0,.02,0,.05,0,.07,0,0,0,.01,0,.02,0,0,0,.01,0,.02h0s0-.01,0-.02c0,.02,0,.04,0,.06,0,.02,0,.05,0,.07,0,0,0,.01,0,.02,0,0,0,.01,0,.02h0s0-.01,0-.02c0,.02,0,.04,0,.06,0,.02,0,.05,0,.07,0,0,0,.01,0,.02,0,0,0,.01,0,.02h0s0-.01,0-.02c0,.02,0,.04,0,.06,0,.02,0,.05,0,.07,0,0,0,.01,0,.02,0,0,0,.01,0,.02h0s0-.01,0-.02c0,.02,0,.04,0,.06,0,.02,0,.05,0,.07,0,0,0,.01,0,.02,0,0,0,.01,0,.02h0s0-.01,0-.02c0,.02,0,.04,0,.06,0,.02,0,.05,0,.07,0,0,0,.01,0,.02,0,0,0,.01,0,.02h0s0-.01,0-.02c0,.02,0,.04,0,.06,0,.02,0,.05,0,.07,0,0,0,.01,0,.02,0,0,0,.01,0,.02h0s0-.01,0-.02c0,.02,0,.04,0,.06,0,.02,0,.05,0,.07,0,0,0,.01,0,.02,0,0,0,.01,0,.02h0s0-.01,0-.02c0,.02,0,.04,0,.06,0,.02,0,.05,0,.07,0,0,0,.01,0,.02,0,0,0,.01,0,.02h0s0-.01,0-.02c0,.02,0,.04,0,.06,0,.02,0,.05,0,.07,0,0,0,.01,0,.02,0,0,0,.01,0,.02h0s0-.01,0-.02c0,.02,0,.04,0,.06,0,.02,0,.05,0,.07,0,0,0,.01,0,.02,0,0,0,.01,0,.02h0s0-.01,0-.02c0,.02,0,.04,0,.06,0,.02,0,.05,0,.07,0,0,0,.01,0,.02,0,0,0,.01,0,.02h0s0-.01,0-.02c0,.02,0,.04,0,.06,0,.02,0,.05,0,.07,0,0,0,.01,0,.02,0,0,0,.01,0,.02h0s0-.01,0-.02c0,.02,0,.04,0,.06,0,.02,0,.05,0,.07,0,0,0,.01,0,.02,0,0,0,.01,0,.02h0s0-.01,0-.02c0,.02,0,.04,0,.06,0,.02,0,.05,0,.07,0,0,0,.01,0,.02,0,0,0,.01,0,.02h0s0-.01,0-.02c0,.02,0,.04,0,.06,0,.02,0,.05,0,.07,0,0,0,.01,0,.02,0,0,0,.01,0,.02h0s0-.01,0-.02c0,.02,0,.04,0,.06,0,.02,0,.05,0,.07,0,0,0,.01,0,.02,0,0,0,.01,0,.02h0s0-.01,0-.02c0,.02,0,.04,0,.06,0,.02,0,.05,0,.07,0,0,0,.01,0,.02,0,0,0,.01,0,.02h0s0-.01,0-.02c0,.02,0,.04,0,.06,0,.02,0,.05,0,.07,0,0,0,.01,0,.02,0,0,0,.01,0,.02h0s0-.01,0-.02c0,.02,0,.04,0,.06,0,.02,0,.05,0,.07,0,0,0,.01,0,.02,0,0,0,.01,0,.02h0s0-.01,0-.02c0,.02,0,.04,0,.06,0,.02,0,.05,0,.07,0,0,0,.01,0,.02,0,0,0,.01,0,.02h0s0-.01,0-.02c0,.02,0,.04,0,.06,0,.02,0,.05,0,.07,0,0,0,.01,0,.02,0,0,0,.01,0,.02h0s0-.01,0-.02c0,.02,0,.04,0,.06,0,.02,0,.05,0,.07,0,0,0,.01,0,.02,0,0,0,.01,0,.02h0s0-.01,0-.02c0,.02,0,.04,0,.06,0,.02,0,.05,0,.07,0,0,0,.01,0,.02,0,0,0,.01,0,.02h0s0-.01,0-.02c0,.02,0,.04,0,.06,0,.02,0,.05,0,.07,0,0,0,.01,0,.02,0,0,0,.01,0,.02h0s0-.01,0-.02c0,.02,0,.04,0,.06,0,.02,0,.05,0,.07,0,0,0,.01,0,.02,0,0,0,.01,0,.02h0s0-.01,0-.02c0,.02,0,.04,0,.06,0,.02,0,.05,0,.07,0,0,0,.01,0,.02,0,0,0,.01,0,.02h0s0-.01,0-.02c0,.02,0,.04,0,.06,0,.02,0,.05,0,.07,0,0,0,.01,0,.02,0,0,0,.01,0,.02h0s0-.01,0-.02c0,.02,0,.04,0,.06,0,.02,0,.05,0,.07,0,0,0,.01,0,.02,0,0,0,.01,0,.02h0s0-.01,0-.02c0,.02,0,.04,0,.06,0,.02,0,.05,0,.07,0,0,0,.01,0,.02,0,0,0,.01,0,.02h0s0-.01,0-.02c0,.02,0,.04,0,.06,0,.02,0,.05,0,.07,0,0,0,.01,0,.02,0,0,0,.01,0,.02h0s0-.01,0-.02c0,.02,0,.04,0,.06,0,.02,0,.05,0,.07,0,0,0,.01,0,.02,0,0,0,.01,0,.02h0s0-.01,0-.02c0,.02,0,.04,0,.06,0,.02,0,.05,0,.07,0,0,0,.01,0,.02,0,0,0,.01,0,.02h0s0-.01,0-.02c0,.02,0,.04,0,.06,0,.02,0,.05,0,.07,0,0,0,.01,0,.02,0,0,0,.01,0,.02h0s0-.01,0-.02c0,.02,0,.04,0,.06,0,.02,0,.05,0,.07,0,0,0,.01,0,.02,0,0,0,.01,0,.02h0s0-.01,0-.02c0,.02,0,.04,0,.06,0,.02,0,.05,0,.07,0,0,0,.01,0,.02,0,0,0,.01,0,.02h0s0-.01,0-.02c0,.02,0,.04,0,.06,0,.02,0,.05,0,.07,0,0,0,.01,0,.02,0,0,0,.01,0,.02h0s0-.01,0-.02c0,.02,0,.04,0,.06,0,.02,0,.05,0,.07,0,0,0,.01,0,.02,0,0,0,.01,0,.02h0s0-.01,0-.02c0,.02,0,.04,0,.06,0,.02,0,.05,0,.07,0,0,0,.01,0,.02,0,0,0,.01,0,.02h0s0-.01,0-.02c0,.02,0,.04,0,.06,0,.02,0,.05,0,.07,0,0,0,.01,0,.02,0,0,0,.01,0,.02h0s0-.01,0-.02c0,.02,0,.04,0,.06,0,.02,0,.05,0,.07,0,0,0,.01,0,.02,0,0,0,.01,0,.02h0s0-.01,0-.02c0,.02,0,.04,0,.06,0,.02,0,.05,0,.07,0,0,0,.01,0,.02,0,0,0,.01,0,.02h0s0-.01,0-.02c0,.02,0,.04,0,.06,0,.02,0,.05,0,.07,0,0,0,.01,0,.02,0,0,0,.01,0,.02h0s0-.01,0-.02c0,.02,0,.04,0,.06,0,.02,0,.05,0,.07,0,0,0,.01,0,.02,0,0,0,.01,0,.02h0s0-.01,0-.02c0,.02,0,.04,0,.06,0,.02,0,.05,0,.07,0,0,0,.01,0,.02,0,0,0,.01,0,.02h0s0-.01,0-.02c0,.02,0,.04,0,.06,0,.02,0,.05,0,.07,0,0,0,.01,0,.02,0,0,0,.01,0,.02h0s0-.01,0-.02c0,.02,0,.04,0,.06,0,.02,0,.05,0,.07,0,0,0,.01,0,.02,0,0,0,.01,0,.02h0s0-.01,0-.02c0,.02,0,.04,0,.06,0,.02,0,.05,0,.07,0,0,0,.01,0,.02,0,0,0,.01,0,.02h0s0-.01,0-.02c0,.02,0,.04,0,.06,0,.02,0,.05,0,.07,0,0,0,.01,0,.02,0,0,0,.01,0,.02h0s0-.01,0-.02c0,.02,0,.04,0,.06,0,.02,0,.05,0,.07,0,0,0,.01,0,.02,0,0,0,.01,0,.02h0s0-.01,0-.02c0,.02,0,.04,0,.06,0,.02,0,.05,0,.07,0,0,0,.01,0,.02,0,0,0,.01,0,.02h0s0-.01,0-.02c0,.02,0,.04,0,.06,0,.02,0,.05,0,.07,0,0,0,.01,0,.02,0,0,0,.01,0,.02h0s0-.01,0-.02c0,.02,0,.04,0,.06,0,.02,0,.05,0,.07,0,0,0,.01,0,.02,0,0,0,.01,0,.02h0s0-.01,0-.02c0,.02,0,.04,0,.06,0,.02,0,.05,0,.07,0,0,0,.01,0,.02,0,0,0,.01,0,.02h0s0-.01,0-.02c0,.02,0,.04,0,.06,0,.02,0,.05,0,.07,0,0,0,.01,0,.02,0,0,0,.01,0,.02h0s0-.01,0-.02c0,.02,0,.04,0,.06,0,.02,0,.05,0,.07,0,0,0,.01,0,.02,0,0,0,.01,0,.02h0s0-.01,0-.02c0,.02,0,.04,0,.06,0,.02,0,.05,0,.07,0,0,0,.01,0,.02,0,0,0,.01,0,.02h0s0-.01,0-.02c0,.02,0,.04,0,.06,0,.02,0,.05,0,.07,0,0,0,.01,0,.02,0,0,0,.01,0,.02h0s0-.01,0-.02c0,.02,0,.04,0,.06,0,.02,0,.05,0,.07,0,0,0,.01,0,.02,0,0,0,.01,0,.02h0s0-.01,0-.02c0,.02,0,.04,0,.06,0,.02,0,.05,0,.07,0,0,0,.01,0,.02,0,0,0,.01,0,.02h0s0-.01,0-.02c0,.02,0,.04,0,.06,0,.02,0,.05,0,.07,0,0,0,.01,0,.02,0,0,0,.01,0,.02h0s0-.01,0-.02c0,.02,0,.04,0,.06,0,.02,0,.05,0,.07,0,0,0,.01,0,.02,0,0,0,.01,0,.02h0s0-.01,0-.02c0,.02,0,.04,0,.06,0,.02,0,.05,0,.07,0,0,0,.01,0,.02,0,0,0,.01,0,.02h0s0-.01,0-.02c0,.02,0,.04,0,.06,0,.02,0,.05,0,.07,0,0,0,.01,0,.02,0,0,0,.01,0,.02h0s0-.01,0-.02c0,.02,0,.04,0,.06,0,.02,0,.05,0,.07,0,0,0,.01,0,.02,0,0,0,.01,0,.02h0s0-.01,0-.02c0,.02,0,.04,0,.06,0,.02,0,.05,0,.07,0,0,0,.01,0,.02,0,0,0,.01,0,.02h0s0-.01,0-.02c0,.02,0,.04,0,.06,0,.02,0,.05,0,.07,0,0,0,.01,0,.02,0,0,0,.01,0,.02h0s0-.01,0-.02c0,.02,0,.04,0,.06,0,.02,0,.05,0,.07,0,0,0,.01,0,.02,0,0,0,.01,0,.02h0s0-.01,0-.02c0,.02,0,.04,0,.06,0,.02,0,.05,0,.07,0,0,0,.01,0,.02,0,0,0,.01,0,.02h0s0-.01,0-.02c0,.02,0,.04,0,.06,0,.02,0,.05,0,.07,0,0,0,.01,0,.02,0,0,0,.01,0,.02h0s0-.01,0-.02c0,.02,0,.04,0,.06,0,.02,0,.05,0,.07,0,0,0,.01,0,.02,0,0,0,.01,0,.02h0s0-.01,0-.02c0,.02,0,.04,0,.06,0,.02,0,.05,0,.07,0,0,0,.01,0,.02,0,0,0,.01,0,.02h0s0-.01,0-.02c0,.02,0,.04,0,.06,0,.02,0,.05,0,.07,0,0,0,.01,0,.02,0,0,0,.01,0,.02h0s0-.01,0-.02c0,.02,0,.04,0,.06,0,.02,0,.05,0,.07,0,0,0,.01,0,.02,0,0,0,.01,0,.02h0s0-.01,0-.02c0,.02,0,.04,0,.06,0,.02,0,.05,0,.07,0,0,0,.01,0,.02,0,0,0,.01,0,.02h0s0-.01,0-.02c0,.02,0,.04,0,.06,0,.02,0,.05,0,.07,0,0,0,.01,0,.02,0,0,0,.01,0,.02h0s0-.01,0-.02c0,.02,0,.04,0,.06,0,.02,0,.05,0,.07,0,0,0,.01,0,.02,0,0,0,.01,0,.02h0s0-.01,0-.02c0,.02,0,.04,0,.06,0,.02,0,.05,0,.07,0,0,0,.01,0,.02,0,0,0,.01,0,.02h0s0-.01,0-.02c0,.02,0,.04,0,.06,0,.02,0,.05,0,.07,0,0,0,.01,0,.02,0,0,0,.01,0,.02h0s0-.01,0-.02c0,.02,0,.04,0,.06,0,.02,0,.05,0,.07,0,0,0,.01,0,.02,0,0,0,.01,0,.02h0s0-.01,0-.02c0,.02,0,.04,0,.06,0,.02,0,.05,0,.07,0,0,0,.01,0,.02,0,0,0,.01,0,.02h0s0-.01,0-.02c0,.02,0,.04,0,.06,0,.02,0,.05,0,.07,0,0,0,.01,0,.02,0,0,0,.01,0,.02h0s0-.01,0-.02c0,.02,0,.04,0,.06,0,.02,0,.05,0,.07,0,0,0,.01,0,.02,0,0,0,.01,0,.02h0s0-.01,0-.02c0,.02,0,.04,0,.06,0,.02,0,.05,0,.07,0,0,0,.01,0,.02,0,0,0,.01,0,.02h0s0-.01,0-.02c0,.02,0,.04,0,.06,0,.02,0,.05,0,.07,0,0,0,.01,0,.02,0,0,0,.01,0,.02h0s0-.01,0-.02c0,.02,0,.04,0,.06,0,.02,0,.05,0,.07,0,0,0,.01,0,.02,0,0,0,.01,0,.02h0s0-.01,0-.02c0,.02,0,.04,0,.06,0,.03,0,.05,0,.08h0v.6c0,.4.01.8.01.8,0,.05.03.1.04.15l-58.97,53.24c-1.89,1.7-3.66,3.14-5.23,5.02-.46.54-.71,1.2-.67,1.89,0,0,0,0,0,.02l.03,31.51-5.45,2.18ZM76.78,155.67c-1.51.55-4.11.72-5.31.12-.18-.09-.3-.19-.32-.25-.02-.05-.02-.11-.02-.25,0-.04,0-.11,0-.15,0-.04,0-.11,0-.15,0-.04,0-.11,0-.15,0-.04,0-.11,0-.15,0-.04,0-.11,0-.15,0-.04,0-.11,0-.15,0-.04,0-.11,0-.15,0-.04,0-.11,0-.15,0-.04,0-.11,0-.15,0-.04,0-.11,0-.15,0-.04,0-.11,0-.15,0-.04,0-.11,0-.15,0-.04,0-.11,0-.15,0-.04,0-.11,0-.15,0-.04,0-.11,0-.15,0-.04,0-.11,0-.15,0-.04,0-.11,0-.15,0-.04,0-.11,0-.15,0-.04,0-.11,0-.15,0-.04,0-.11,0-.15,0-.04,0-.11,0-.15,0-.04,0-.11,0-.15,0-.04,0-.11,0-.15,0-.04,0-.11,0-.15,0-.04,0-.11,0-.15,0-.04,0-.11,0-.15,0-.04,0-.11,0-.15,0-.04,0-.11,0-.15,0-.04,0-.11,0-.15,0-.04,0-.11,0-.15,0-.04,0-.11,0-.15,0-.04,0-.11,0-.15,0-.04,0-.11,0-.15,0-.04,0-.11,0-.15,0-.04,0-.11,0-.15,0-.04,0-.11,0-.15,0-.04,0-.11,0-.15,0-.04,0-.11,0-.15,0-.04,0-.11,0-.15,0-.04,0-.11,0-.15,0-.04,0-.11,0-.15,0-.04,0-.11,0-.15,0-.04,0-.11,0-.15,0-.04,0-.11,0-.15,0-.04,0-.11,0-.15,0-.04,0-.11,0-.15,0-.04,0-.11,0-.15,0-.04,0-.11,0-.15,0-.04,0-.11,0-.15,0-.04,0-.11,0-.15,0-.04,0-.11,0-.15,0-.04,0-.11,0-.15,0-.04,0-.11,0-.15,0-.04,0-.11,0-.15,0-.04,0-.11,0-.15,0-.04,0-.11,0-.15,0-.04,0-.11,0-.15,0-.04,0-.11,0-.15,0-.04,0-.11,0-.15,0-.04,0-.11,0-.15,0-.04,0-.11,0-.15,0-.04,0-.11,0-.15,0-.04,0-.11,0-.15,0-.04,0-.11,0-.15,0-.04,0-.11,0-.15,0-.04,0-.11,0-.15,0-.04,0-.11,0-.15,0-.04,0-.11,0-.15,0-.04,0-.11,0-.15,0-.04,0-.11,0-.15,0-.04,0-.11,0-.15,0-.04,0-.11,0-.15,0-.04,0-.11,0-.15,0-.04,0-.11,0-.15,0-.04,0-.11,0-.15,0-.04,0-.11,0-.15,0-.04,0-.11,0-.15,0-.04,0-.11,0-.15,0-.04,0-.11,0-.15,0-.04,0-.11,0-.15,0-.04,0-.11,0-.15,0-.04,0-.11,0-.15,0-.04,0-.11,0-.15,0-.04,0-.11,0-.15,0-.04,0-.11,0-.15,0-.04,0-.11,0-.15,0-.04,0-.11,0-.15,0-.04,0-.11,0-.15,0-.04,0-.11,0-.15,0-.04,0-.11,0-.15,0-.04,0-.11,0-.15,0-.04,0-.11,0-.15,0-.04,0-.11,0-.15,0-.04,0-.11,0-.15,0-.04,0-.11,0-.15,0-.04,0-.11,0-.15,0-.04,0-.11,0-.15,0-.04,0-.11,0-.15,0-.04,0-.11,0-.15,0-.04,0-.11,0-.15,0-.04,0-.11,0-.15,0-.04,0-.11,0-.15,0-.04,0-.11,0-.15,0-.04,0-.11,0-.15,0-.04,0-.11,0-.15,0-.04,0-.11,0-.15,0-.04,0-.11,0-.15,0-.04,0-.11,0-.15,0-.04,0-.11,0-.15,0-.04,0-.11,0-.15,0-.04,0-.11,0-.15,0-.04,0-.11,0-.15,0-.04,0-.11,0-.15,0-.04,0-.11,0-.15,0-.04,0-.11,0-.15,0-.04,0-.11,0-.15,0-.04,0-.11,0-.15,0-.04,0-.11,0-.15,0-.04,0-.11,0-.15,0-.04,0-.11,0-.15,0-.04,0-.11,0-.15,0-.04,0-.11,0-.15,0-.04,0-.11,0-.15,0-.04,0-.11,0-.15,0-.04,0-.11,0-.15,0-.04,0-.11,0-.15,0-.04,0-.11,0-.15,0-.04,0-.11,0-.15,0-.04,0-.11,0-.15,0-.04,0-.11,0-.15,0-.04,0-.11,0-.15,0-.04,0-.11,0-.15,0-.04,0-.11,0-.15,0-.04,0-.11,0-.15,0-.04,0-.11,0-.15,0-.04,0-.11,0-.15,0-.04,0-.11,0-.15,0-.04,0-.11,0-.15,0-.04,0-.11,0-.15,0-.04,0-.11,0-.15,0-.04,0-.11,0-.15,0-.04,0-.11,0-.15,0-.04,0-.11,0-.15,0-.04,0-.11,0-.15,0-.04,0-.11,0-.15,0-.04,0-.11,0-.15,0-.04,0-.11,0-.15,0-.04,0-.11,0-.15,0-.04,0-.11,0-.15,0-.04,0-.11,0-.15,0-.04,0-.11,0-.15,0-.04,0-.11,0-.15,0-.04,0-.11,0-.15,0-.04,0-.11,0-.15,0-.04,0-.11,0-.15,0-.04,0-.11,0-.15,0-.04,0-.11,0-.15,0-.04,0-.11,0-.15,0-.04,0-.11,0-.15,0-.04,0-.11,0-.15,0-.04,0-.11,0-.15,0-.04,0-.11,0-.15,0-.04,0-.11,0-.15,0-.04,0-.11,0-.15,0-.04,0-.11,0-.15,0-.04,0-.11,0-.15,0-.04,0-.11,0-.15,0-.04,0-.11,0-.15,0-.04,0-.11,0-.15,0-.04,0-.11,0-.15,0-.04,0-.11,0-.15,0-.04,0-.11,0-.15,0-.04,0-.11,0-.15,0-.04,0-.11,0-.15,0-.04,0-.11,0-.15,0-.04,0-.11,0-.15,0-.04,0-.11,0-.15,0-.04,0-.11,0-.15,0-.04,0-.11,0-.15,0-.04,0-.11,0-.15,0-.04,0-.11,0-.15,0-.04,0-.11,0-.15,0-.04,0-.11,0-.15,0-.04,0-.11,0-.15,0-.04,0-.11,0-.15,0-.04,0-.11,0-.15,0-.04,0-.11,0-.15,0-.04,0-.11,0-.15,0-.04,0-.11,0-.15,0-.04,0-.11,0-.15,0-.04,0-.11,0-.15,0-.04,0-.11,0-.15,0-.04,0-.11,0-.15,0-.04,0-.11,0-.15,0-.04,0-.11,0-.15,0-.04,0-.11,0-.15,0-.04,0-.11,0-.15,0-.04,0-.11,0-.15,0-.04,0-.11,0-.15,0-.04,0-.11,0-.15,0-.04,0-.11,0-.15,0-.04,0-.11,0-.15,0-.04,0-.11,0-.15,0-.04,0-.11,0-.15,0-.04,0-.11,0-.15,0-.04,0-.11,0-.15,0-.04,0-.11,0-.15,0-.04,0-.11,0-.15,0-.04,0-.11,0-.15,0-.04,0-.11,0-.15,0-.04,0-.11,0-.15,0-.04,0-.11,0-.15,0-.04,0-.11,0-.15,0-.04,0-.11,0-.15,0-.04,0-.11,0-.15,0-.04,0-.11,0-.15,0-.04,0-.11,0-.15,0-.04,0-.11,0-.15,0-.04,0-.11,0-.15,0-.04,0-.11,0-.15,0-.04,0-.11,0-.15,0-.04,0-.11,0-.15,0-.04,0-.11,0-.15,0-.04,0-.11,0-.15,0-.04,0-.11,0-.15,0-.04,0-.11,0-.15,0-.04,0-.11,0-.15,0-.04,0-.11,0-.15,0-.04,0-.11,0-.15,0-.04,0-.11,0-.15,0-.04,0-.11,0-.15,0-.04,0-.11,0-.15,0-.04,0-.11,0-.15,0-.04,0-.11,0-.15,0-.04,0-.11,0-.15,0-.04,0-.11,0-.15,0-.04,0-.11,0-.15,0-.04,0-.11,0-.15,0-.04,0-.11,0-.15,0-.04,0-.11,0-.15,0-.04,0-.11,0-.15,0-.04,0-.11,0-.15,0-.04,0-.11,0-.15,0-.04,0-.11,0-.15,0-.04,0-.11,0-.15,0-.04,0-.11,0-.15,0-.04,0-.11,0-.15,0-.04,0-.11,0-.15,0-.04,0-.11,0-.15,0-.04,0-.11,0-.15,0-.04,0-.11,0-.15,0-.04,0-.11,0-.15,0-.04,0-.11,0-.15,0-.04,0-.11,0-.15,0-.02,0-.05,0-.07l60.48-37.88c4.02-2.28,3.93-6.6,3.87-9.76l-.09-5.97,33.67-12.16-62.11,54.3c-.81.72-1.6,1.79-1.58,2.8l.03,36.8-28.61,9.85ZM223.22,72.65s0,.06,0,.1c0,.02,0,.03,0,.05,0,.03,0,.06,0,.1,0,.02,0,.03,0,.05,0,.03,0,.06,0,.1,0,.02,0,.03,0,.05,0,.03,0,.06,0,.1,0,.02,0,.03,0,.05,0,.03,0,.06,0,.1,0,.02,0,.03,0,.05,0,.03,0,.06,0,.1,0,.02,0,.03,0,.05,0,.03,0,.06,0,.1,0,.02,0,.03,0,.05,0,.03,0,.06,0,.1,0,.02,0,.03,0,.05,0,.03,0,.06,0,.1,0,.02,0,.03,0,.05,0,.03,0,.06,0,.1,0,.02,0,.03,0,.05,0,.03,0,.06,0,.1,0,.02,0,.03,0,.05,0,.03,0,.06,0,.1,0,.02,0,.03,0,.05,0,.03,0,.06,0,.1,0,.02,0,.03,0,.05,0,.03,0,.06,0,.1,0,.02,0,.03,0,.05,0,.03,0,.06,0,.1,0,.02,0,.03,0,.05,0,.03,0,.06,0,.1,0,.02,0,.03,0,.05,0,.03,0,.06,0,.1,0,.02,0,.03,0,.05,0,.03,0,.06,0,.1,0,.02,0,.03,0,.05,0,.03,0,.06,0,.1,0,.02,0,.03,0,.05,0,.03,0,.06,0,.1,0,.02,0,.03,0,.05,0,.03,0,.06,0,.1,0,.02,0,.03,0,.05,0,.03,0,.06,0,.1,0,.02,0,.03,0,.05,0,.03,0,.06,0,.1,0,.02,0,.03,0,.05,0,.03,0,.06,0,.1,0,.02,0,.03,0,.05,0,.03,0,.06,0,.1,0,.02,0,.03,0,.05,0,.03,0,.06,0,.1,0,.02,0,.03,0,.05,0,.03,0,.06,0,.1,0,.02,0,.03,0,.05,0,.03,0,.06,0,.1,0,.02,0,.03,0,.05,0,.03,0,.06,0,.1,0,.02,0,.03,0,.05,0,.03,0,.06,0,.1,0,.02,0,.03,0,.05,0,.03,0,.06,0,.1,0,.02,0,.03,0,.05,0,.03,0,.06,0,.1,0,.02,0,.03,0,.05,0,.03,0,.06,0,.1,0,.02,0,.03,0,.05,0,.03,0,.06,0,.1,0,.02,0,.03,0,.05,0,.03,0,.06,0,.1,0,.02,0,.03,0,.05,0,.03,0,.06,0,.1,0,.02,0,.03,0,.05,0,.03,0,.06,0,.1,0,.02,0,.03,0,.05,0,.03,0,.06,0,.1,0,.02,0,.03,0,.05,0,.03,0,.06,0,.1,0,.02,0,.03,0,.05,0,.03,0,.06,0,.1,0,.02,0,.03,0,.05,0,.03,0,.06,0,.1,0,.02,0,.03,0,.05,0,.03,0,.06,0,.1,0,.02,0,.03,0,.05,0,.03,0,.06,0,.1,0,.02,0,.03,0,.05,0,.03,0,.06,0,.1,0,.02,0,.03,0,.05,0,.03,0,.06,0,.1,0,.02,0,.03,0,.05,0,.03,0,.06,0,.1,0,.02,0,.03,0,.05,0,.03,0,.06,0,.1,0,.02,0,.03,0,.05,0,.03,0,.06,0,.1,0,.02,0,.03,0,.05,0,.03,0,.06,0,.1,0,.02,0,.03,0,.05,0,.03,0,.06,0,.1,0,.02,0,.03,0,.05,0,.03,0,.06,0,.1,0,.02,0,.03,0,.05,0,.03,0,.06,0,.1,0,.02,0,.03,0,.05,0,.03,0,.06,0,.1,0,.02,0,.03,0,.05,0,.03,0,.06,0,.1,0,.02,0,.03,0,.05,0,.03,0,.06,0,.1,0,.02,0,.03,0,.05,0,.03,0,.06,0,.1,0,.02,0,.03,0,.05,0,.03,0,.06,0,.1,0,.02,0,.03,0,.05,0,.03,0,.06,0,.1,0,.02,0,.03,0,.05,0,.03,0,.06,0,.1,0,.02,0,.03,0,.05,0,.03,0,.06,0,.1,0,.02,0,.03,0,.05,0,.03,0,.06,0,.1,0,.02,0,.03,0,.05,0,.03,0,.06,0,.1,0,.02,0,.03,0,.05,0,.03,0,.06,0,.1,0,.02,0,.03,0,.05,0,.03,0,.06,0,.1,0,.02,0,.03,0,.05,0,.03,0,.06,0,.1,0,.02,0,.03,0,.05,0,.03,0,.06,0,.1,0,.02,0,.03,0,.05,0,.03,0,.06,0,.1,0,.02,0,.03,0,.05,0,.03,0,.06,0,.1,0,.02,0,.03,0,.05,0,.03,0,.06,0,.1,0,.02,0,.03,0,.05,0,.03,0,.06,0,.1,0,.02,0,.03,0,.05,0,.03,0,.06,0,.1,0,.02,0,.03,0,.05,0,.03,0,.06,0,.1,0,.02,0,.03,0,.05,0,.03,0,.06,0,.1,0,.02,0,.03,0,.05,0,.03,0,.06,0,.1,0,.02,0,.03,0,.05,0,.03,0,.06,0,.1,0,.02,0,.03,0,.05,0,.03,0,.06,0,.1,0,.02,0,.03,0,.05,0,.03,0,.06,0,.1,0,.02,0,.03,0,.05,0,.03,0,.06,0,.1,0,.02,0,.03,0,.05,0,.03,0,.06,0,.1,0,.02,0,.03,0,.05,0,.03,0,.06,0,.1,0,.02,0,.03,0,.05,0,.03,0,.06,0,.1,0,.02,0,.03,0,.05,0,.03,0,.06,0,.1,0,.02,0,.03,0,.05,0,.03,0,.06,0,.1,0,.02,0,.03,0,.05,0,.03,0,.06,0,.1,0,.02,0,.03,0,.05,0,.03,0,.06,0,.1,0,.02,0,.03,0,.05,0,.03,0,.06,0,.1,0,.02,0,.03,0,.05,0,.03,0,.06,0,.1,0,.02,0,.03,0,.05,0,.03,0,.06,0,.1,0,.02,0,.03,0,.05,0,.03,0,.06,0,.1,0,.02,0,.03,0,.05,0,.03,0,.06,0,.1,0,.02,0,.03,0,.05,0,.03,0,.06,0,.1,0,.02,0,.03,0,.05,0,.03,0,.06,0,.1,0,.02,0,.03,0,.05,0,.03,0,.06,0,.1,0,.02,0,.03,0,.05,0,.03,0,.06,0,.1,0,.02,0,.03,0,.05,0,.03,0,.06,0,.1,0,.02,0,.03,0,.05,0,.03,0,.06,0,.1,0,.02,0,.03,0,.05,0,.03,0,.06,0,.1,0,.02,0,.03,0,.05,0,.03,0,.06,0,.1,0,.02,0,.03,0,.05,0,.03,0,.06,0,.1,0,.02,0,.03,0,.05,0,.03,0,.06,0,.1,0,.02,0,.03,0,.05,0,.03,0,.06,0,.1,0,.02,0,.03,0,.05,0,.03,0,.06,0,.1,0,.02,0,.03,0,.05,0,.03,0,.06,0,.1,0,.02,0,.03,0,.05,0,.03,0,.06,0,.1,0,.02,0,.03,0,.05,0,.03,0,.06,0,.1,0,.02,0,.03,0,.05,0,.03,0,.06,0,.1,0,.02,0,.03,0,.05,0,.03,0,.06,0,.1,0,.02,0,.03,0,.05,0,.03,0,.06,0,.1,0,.02,0,.03,0,.05,0,.03,0,.06,0,.1,0,.02,0,.03,0,.05,0,.03,0,.06,0,.1,0,.02,0,.03,0,.05,0,.03,0,.06,0,.1,0,.02,0,.03,0,.05,0,.03,0,.06,0,.1,0,.02,0,.03,0,.05,0,.03,0,.06,0,.1,0,.02,0,.03,0,.05,0,.03,0,.06,0,.1,0,.02,0,.03,0,.05,0,.03,0,.06,0,.1,0,.02,0,.03,0,.05,0,.03,0,.06,0,.1,0,.02,0,.03,0,.05,0,.03,0,.06,0,.1,0,.02,0,.03,0,.05,0,.03,0,.06,0,.1,0,.02,0,.03,0,.05,0,.03,0,.06,0,.1,0,.02,0,.03,0,.05,0,.03,0,.06,0,.1,0,.02,0,.03,0,.05,0,.03,0,.06,0,.1,0,.02,0,.03,0,.05,0,.03,0,.06,0,.1,0,.02,0,.03,0,.05,0,.03,0,.06,0,.1,0,.02,0,.03,0,.05,0,.03,0,.06,0,.1,0,.02,0,.03,0,.05,0,.03,0,.06,0,.1,0,.02,0,.03,0,.05,0,.03,0,.06,0,.1,0,.02,0,.03,0,.05,0,.03,0,.06,0,.1,0,.02,0,.03,0,.05,0,.03,0,.06,0,.1,0,.02,0,.03,0,.05,0,.03,0,.06,0,.1,0,.02,0,.03,0,.05,0,.03,0,.06,0,.1,0,.02,0,.03,0,.05,0,.03,0,.06,0,.1,0,.02,0,.03,0,.05,0,.03,0,.06,0,.1,0,.02,0,.03,0,.05,0,.03,0,.06,0,.1,0,.02,0,.03,0,.05,0,.03,0,.06,0,.1,0,.02,0,.03,0,.05,0,.03,0,.06,0,.1,0,.02,0,.03,0,.05,0,.03,0,.06,0,.1,0,.02,0,.03,0,.05,0,.03,0,.06,0,.1,0,.02,0,.03,0,.05,0,.03,0,.06,0,.1,0,.02,0,.03,0,.05,0,.03,0,.06,0,.1,0,.02,0,.03,0,.05,0,.03,0,.06,0,.1,0,.02,0,.03,0,.05,0,.03,0,.06,0,.1,0,.02,0,.03,0,.05,0,.03,0,.06,0,.1,0,.02,0,.03,0,.05,0,.03,0,.06,0,.1,0,.02,0,.03,0,.05,0,.03,0,.06,0,.1,0,.02,0,.03,0,.05,0,.03,0,.06,0,.1,0,.02,0,.03,0,.05,0,.03,0,.06,0,.1,0,.02,0,.03,0,.05,0,.03,0,.06,0,.1,0,.02,0,.03,0,.05,0,.03,0,.06,0,.1,0,.02,0,.03,0,.05,0,.03,0,.06,0,.1,0,.02,0,.03,0,.05,0,.03,0,.06,0,.1,0,.02,0,.03,0,.05,0,.03,0,.06,0,.1,0,.02,0,.03,0,.05,0,.03,0,.06,0,.1,0,.02,0,.03,0,.05,0,.03,0,.06,0,.1,0,.02,0,.03,0,.05,0,.03,0,.06,0,.1,0,.02,0,.03,0,.05,0,.03,0,.06,0,.1,0,.02,0,.03,0,.05,0,.03,0,.06,0,.1,0,.02,0,.03,0,.05,0,.03,0,.06,0,.1,0,.02,0,.03,0,.05,0,.03,0,.06,0,.1,0,.02,0,.03,0,.05,0,.03,0,.06,0,.1,0,.02,0,.03,0,.05,0,.03,0,.06,0,.1,0,.02,0,.03,0,.05,0,.03,0,.06,0,.1,0,.02,0,.03,0,.05,0,.03,0,.06,0,.1,0,.02,0,.03,0,.05,0,.03,0,.06,0,.1,0,.02,0,.03,0,.05,0,.03,0,.06,0,.1,0,.02,0,.03,0,.05,0,.03,0,.06,0,.1,0,.02,0,.03,0,.05,0,.03,0,.06,0,.1,0,.02,0,.03,0,.05,0,.03,0,.06,0,.1,0,.02,0,.03,0,.05,0,.03,0,.06,0,.1,0,.02,0,.03,0,.05,0,.03,0,.06,0,.1,0,.02,0,.03,0,.05,0,.03,0,.06,0,.1,0,.02,0,.03,0,.05,0,.03,0,.06,0,.1,0,.02,0,.03,0,.05,0,.03,0,.06,0,.1,0,.02,0,.03,0,.05,0,.03,0,.06,0,.1,0,.02,0,.03,0,.05,0,.03,0,.06,0,.1,0,.02,0,.03,0,.05,0,.03,0,.06,0,.1,0,.02,0,.03,0,.05,0,.03,0,.06,0,.1,0,.02,0,.03,0,.05,0,.03,0,.06,0,.1,0,.02,0,.03,0,.05,0,.03,0,.06,0,.1,0,.02,0,.03,0,.05,0,.03,0,.06,0,.1,0,.02,0,.03,0,.05,0,.03,0,.06,0,.1,0,.02,0,.03,0,.05,0,.03,0,.06,0,.1,0,.02,0,.03,0,.05,0,.03,0,.06,0,.1,0,.02,0,.03,0,.05,0,.03,0,.06,0,.1,0,.02,0,.03,0,.05,0,.03,0,.06,0,.1,0,.02,0,.03,0,.05,0,.03,0,.06,0,.1,0,.02,0,.03,0,.05,0,.03,0,.06,0,.1,0,.02,0,.03,0,.05,0,.03,0,.06,0,.1,0,.02,0,.03,0,.05,0,.03,0,.06,0,.1,0,.02,0,.03,0,.05,0,.03,0,.06,0,.1,0,.02,0,.03,0,.05,0,.03,0,.06,0,.1,0,.02,0,.03,0,.05,0,.03,0,.06,0,.1,0,.02,0,.03,0,.05,0,.03,0,.06,0,.1,0,.02,0,.03,0,.05,0,.03,0,.06,0,.1,0,.02,0,.03,0,.05,0,.03,0,.06,0,.1,0,.02,0,.03,0,.05,0,.03,0,.06,0,.1,0,.02,0,.03,0,.05,0,.03,0,.06,0,.1,0,.02,0,.03,0,.05,0,.03,0,.06,0,.1,0,.02,0,.03,0,.05,0,.03,0,.06,0,.1,0,.02,0,.03,0,.05,0,.03,0,.06,0,.1,0,.02,0,.03,0,.05,0,.03,0,.06,0,.1,0,.02,0,.03,0,.05,0,.03,0,.06,0,.1,0,.02,0,.03,0,.05,0,.03,0,.06,0,.1,0,.02,0,.03,0,.05,0,.03,0,.06,0,.1,0,.02,0,.03,0,.05,0,.03,0,.06,0,.1,0,.02,0,.03,0,.05,0,.03,0,.06,0,.1,0,.02,0,.03,0,.05,0,.03,0,.06,0,.1,0,.02,0,.03,0,.05,0,.03,0,.06,0,.1,0,.02,0,.03,0,.05,0,.03,0,.06,0,.1,0,.02,0,.03,0,.05,0,.03,0,.06,0,.1,0,.02,0,.03,0,.05,0,.03,0,.06,0,.1,0,.02,0,.03,0,.05,0,.03,0,.06,0,.1,0,.02,0,.03,0,.05,0,.03,0,.06,0,.1,0,.02,0,.03,0,.05,0,.03,0,.06,0,.1,0,.02,0,.03,0,.05,0,.03,0,.06,0,.1,0,.02,0,.03,0,.05,0,.03,0,.06,0,.1,0,.02,0,.03,0,.05,0,.03,0,.06,0,.1,0,.02,0,.03,0,.05,0,.03,0,.06,0,.1,0,.02,0,.03,0,.05,0,.03,0,.06,0,.1,0,.02,0,.03,0,.05,0,.03,0,.06,0,.1,0,.02,0,.03,0,.05,0,.03,0,.06,0,.1,0,.02,0,.03,0,.05,0,.03,0,.06,0,.1,0,.02,0,.03,0,.05,0,.03,0,.06,0,.1,0,.02,0,.03,0,.05,0,.03,0,.06,0,.1,0,.02,0,.03,0,.05,0,.03,0,.06,0,.1,0,.02,0,.03,0,.05,0,.03,0,.06,0,.1,0,.02,0,.03,0,.05,0,.03,0,.06,0,.1,0,.02,0,.03,0,.05,0,.03,0,.06,0,.1,0,.02,0,.03,0,.05,0,.03,0,.06,0,.1,0,.02,0,.03,0,.05,0,.03,0,.06,0,.1,0,.02,0,.03,0,.05,0,.03,0,.06,0,.1,0,.02,0,.03,0,.05,0,.03,0,.06,0,.1,0,.02,0,.03,0,.05,0,.03,0,.06,0,.1,0,.02,0,.03,0,.05,0,.03,0,.06,0,.1,0,.02,0,.03,0,.05,0,.03,0,.06,0,.1,0,.02,0,.03,0,.05,0,.03,0,.06,0,.1,0,.02,0,.03,0,.05,0,.03,0,.06,0,.1,0,.02,0,.03,0,.05,0,.03,0,.06,0,.1,0,.02,0,.03,0,.05,0,.03,0,.06,0,.1,0,.02,0,.03,0,.05,0,.03,0,.06,0,.1,0,.02,0,.03,0,.05,0,.03,0,.06,0,.1,0,.02,0,.03,0,.05,0,.03,0,.06,0,.1,0,.02,0,.03,0,.05,0,.03,0,.06,0,.1,0,.02,0,.03,0,.05,0,.03,0,.06,0,.1,0,.02,0,.03,0,.05,0,.03,0,.06,0,.1,0,.02,0,.03,0,.05,0,.03,0,.06,0,.1,0,.02,0,.03,0,.05,0,.03,0,.06,0,.1,0,.02,0,.03,0,.05,0,.03,0,.06,0,.1,0,.02,0,.03,0,.05,0,.03,0,.06,0,.1,0,.02,0,.03,0,.05,0,.03,0,.06,0,.1,0,.02,0,.03,0,.05,0,.03,0,.06,0,.1,0,.02,0,.03,0,.05,0,.03,0,.06,0,.1,0,.02,0,.03,0,.05,0,.03,0,.06,0,.1,0,.02,0,.03,0,.05,0,.03,0,.06,0,.1,0,.02,0,.03,0,.05,0,.03,0,.06,0,.1,0,.02,0,.03,0,.05,0,.03,0,.06,0,.1,0,.02,0,.03,0,.05,0,.03,0,.06,0,.1,0,.02,0,.03,0,.05,0,.03,0,.06,0,.1,0,.02,0,.03,0,.05,0,.03,0,.06,0,.1,0,.02,0,.03,0,.05,0,.03,0,.06,0,.1,0,.02,0,.03,0,.05,0,.03,0,.06,0,.1,0,.02,0,.03,0,.05,0,.03,0,.06,0,.1,0,.02,0,.03,0,.05,0,.03,0,.06,0,.1,0,.02,0,.03,0,.05,0,.03,0,.06,0,.1,0,.02,0,.03,0,.05,0,.03,0,.06,0,.1,0,.02,0,.03,0,.05,0,.03,0,.06,0,.1,0,.02,0,.03,0,.05,0,.03,0,.06,0,.1,0,.02,0,.03,0,.05,0,.03,0,.06,0,.1,0,.02,0,.03,0,.05,0,.03,0,.06,0,.1,0,.02,0,.03,0,.05,0,.03,0,.06,0,.1,0,.02,0,.03,0,.05,0,.03,0,.06,0,.1,0,.02,0,.03,0,.05,0,.03,0,.06,0,.1,0,.02,0,.03,0,.05,0,.03,0,.06,0,.1,0,.02,0,.03,0,.05,0,.03,0,.06,0,.1,0,.02,0,.03,0,.05,0,.03,0,.06,0,.1,0,.02,0,.03,0,.05,0,.03,0,.06,0,.1,0,.02,0,.03,0,.05,0,.03,0,.06,0,.1,0,.02,0,.03,0,.05,0,.03,0,.06,0,.1,0,.02,0,.03,0,.05,0,.03,0,.06,0,.1,0,.02,0,.03,0,.05,0,.03,0,.06,0,.1,0,.02,0,.03,0,.05,0,.03,0,.06,0,.1,0,.02,0,.03,0,.05,0,.03,0,.06,0,.1,0,.02,0,.03,0,.05,0,.03,0,.06,0,.1,0,.02,0,.03,0,.05,0,.03,0,.06,0,.1,0,.02,0,.03,0,.05,0,.03,0,.06,0,.1,0,.02,0,.03,0,.05,0,.03,0,.06,0,.1,0,.02,0,.03,0,.05,0,.03,0,.06,0,.1,0,.02,0,.03,0,.05,0,.03,0,.06,0,.1,0,.02,0,.03,0,.05,0,.03,0,.06,0,.1,0,.02,0,.03,0,.05,0,.03,0,.06,0,.1,0,.02,0,.03,0,.05,0,.03,0,.06,0,.1,0,.02,0,.03,0,.05,0,.03,0,.06,0,.1,0,.02,0,.03,0,.05,0,.03,0,.06,0,.1,0,.02,0,.03,0,.05,0,.03,0,.06,0,.1,0,.02,0,.03,0,.05,0,.03,0,.06,0,.1,0,.02,0,.03,0,.05,0,.03,0,.06,0,.1,0,.02,0,.03,0,.05,0,.03,0,.06,0,.1,0,.02,0,.03,0,.05,0,.03,0,.06,0,.1,0,.02,0,.03,0,.05,0,.03,0,.06,0,.1,0,.02,0,.03,0,.05,0,.03,0,.06,0,.1,0,.02,0,.03,0,.05,0,.03,0,.06,0,.1,0,.02,0,.03,0,.05,0,.03,0,.06,0,.1,0,.02,0,.03,0,.05,0,.03,0,.06,0,.1,0,.02,0,.03,0,.05,0,.03,0,.06,0,.1,0,.02,0,.03,0,.05,0,.03,0,.06,0,.1,0,.02,0,.03,0,.05,0,.03,0,.06,0,.1,0,.02,0,.03,0,.05,0,.03,0,.06,0,.1,0,.02,0,.03,0,.05,0,.03,0,.06,0,.1,0,.02,0,.03,0,.05,0,.03,0,.06,0,.1,0,.02,0,.03,0,.05,0,.03,0,.06,0,.1,0,.02,0,.03,0,.05,0,.03,0,.06,0,.1,0,.02,0,.03,0,.05,0,.03,0,.06,0,.1,0,.02,0,.03,0,.05,0,.03,0,.06,0,.1,0,.02,0,.03,0,.05,0,.03,0,.06,0,.1,0,.02,0,.03,0,.05,0,.03,0,.06,0,.1,0,.02,0,.03,0,.05,0,.03,0,.06,0,.1,0,.02,0,.03,0,.05,0,.03,0,.06,0,.1,0,.02,0,.03,0,.05,0,.03,0,.06,0,.1,0,.02,0,.03,0,.05,0,.03,0,.06,0,.1,0,.02,0,.03,0,.05,0,.03,0,.06,0,.1,0,.02,0,.03,0,.05,0,.03,0,.06,0,.1,0,.02,0,.03,0,.05,0,.03,0,.06,0,.1,0,.02,0,.03,0,.05,0,.03,0,.06,0,.1,0,.02,0,.03,0,.05,0,.03,0,.06,0,.1,0,.02,0,.03,0,.05,0,.03,0,.06,0,.1,0,.02,0,.03,0,.05,0,.03,0,.06,0,.1,0,.02,0,.03,0,.05,0,.03,0,.06,0,.1,0,.02,0,.03,0,.05,0,.03,0,.06,0,.1,0,.02,0,.03,0,.05,0,.03,0,.06,0,.1,0,.02,0,.03,0,.05,0,.03,0,.06,0,.1,0,.02,0,.03,0,.05,0,.03,0,.06,0,.1,0,.02,0,.03,0,.05,0,.03,0,.06,0,.1,0,.02,0,.03,0,.05,0,.03,0,.06,0,.1,0,.02,0,.03,0,.05,0,.03,0,.06,0,.1,0,.02,0,.03,0,.05,0,.03,0,.06,0,.1,0,.02,0,.03,0,.05,0,.03,0,.06,0,.1,0,.02,0,.03,0,.05,0,.03,0,.06,0,.1,0,.02,0,.03,0,.05,0,.03,0,.06,0,.1,0,.02,0,.03,0,.05,0,.03,0,.06,0,.1,0,.02,0,.03,0,.05,0,.03,0,.06,0,.1,0,.02,0,.03,0,.05,0,.03,0,.06,0,.1,0,.02,0,.03,0,.05,0,.03,0,.06,0,.1,0,.02,0,.03,0,.05,0,.03,0,.06,0,.1,0,.02,0,.03,0,.05,0,.03,0,.06,0,.1,0,.02,0,.03,0,.05,0,.03,0,.06,0,.1,0,.02,0,.03,0,.05,0,.03,0,.06,0,.1,0,.02,0,.03,0,.05,0,.03,0,.06,0,.1,0,.02,0,.03,0,.05,0,.03,0,.06,0,.1,0,.02,0,.03,0,.05,0,.03,0,.06,0,.1,0,.02,0,.03,0,.05,0,.03,0,.06,0,.1,0,.02,0,.03,0,.05,0,.03,0,.06,0,.1,0,.02,0,.03,0,.05,0,.03,0,.06,0,.1,0,.02,0,.03,0,.05,0,.03,0,.06,0,.1,0,.02,0,.03,0,.05,0,.03,0,.06,0,.1,0,.02,0,.03,0,.05,0,.03,0,.06,0,.1,0,.02,0,.03,0,.05,0,.03,0,.06,0,.1,0,.02,0,.03,0,.05,0,.03,0,.06,0,.1,0,.02,0,.03,0,.05,0,.03,0,.06,0,.1,0,.02,0,.03,0,.05,0,.03,0,.06,0,.1,0,.02,0,.03,0,.05,0,.03,0,.06,0,.1,0,.02,0,.03,0,.05,0,.03,0,.06,0,.1,0,.02,0,.03,0,.05,0,.03,0,.06,0,.1,0,.02,0,.03,0,.05,0,.03,0,.06,0,.1,0,.02,0,.03,0,.05,0,.03,0,.06,0,.1,0,.02,0,.03,0,.05,0,.03,0,.06,0,.1,0,.02,0,.03,0,.05,0,.03,0,.06,0,.1,0,.02,0,.03,0,.05,0,.03,0,.06,0,.1,0,.02,0,.03,0,.05,0,.03,0,.06,0,.1,0,.02,0,.03,0,.05,0,.03,0,.06,0,.1,0,.02,0,.03,0,.05,0,.03,0,.06,0,.1,0,.02,0,.03,0,.05,0,.03,0,.06,0,.1,0,.02,0,.03,0,.05,0,.03,0,.06,0,.1,0,.02,0,.03,0,.05,0,.03,0,.06,0,.1,0,.02,0,.03,0,.05,0,.03,0,.06,0,.1,0,.02,0,.03,0,.05,0,.03,0,.06,0,.1,0,.02,0,.03,0,.05,0,.03,0,.06,0,.1,0,.02,0,.03,0,.05,0,.03,0,.06,0,.1,0,.02,0,.03,0,.05,0,.03,0,.06,0,.1,0,.02,0,.03,0,.05,0,.03,0,.06,0,.1,0,.02,0,.03,0,.05,0,.03,0,.06,0,.1,0,.02,0,.03,0,.05,0,.03,0,.06,0,.1,0,.02,0,.03,0,.05,0,.03,0,.06,0,.1,0,.02,0,.03,0,.05,0,.03,0,.06,0,.1,0,.02,0,.03,0,.05,0,.03,0,.06,0,.1,0,.02,0,.03,0,.05,0,.03,0,.06,0,.1,0,.02,0,.03,0,.05,0,.03,0,.06,0,.1,0,.02,0,.03,0,.05,0,.03,0,.06,0,.1,0,.02,0,.03,0,.05,0,.03,0,.06,0,.1,0,.02,0,.03,0,.05,0,.03,0,.06,0,.1,0,.02,0,.03,0,.05,0,.03,0,.06,0,.1,0,.02,0,.03,0,.05,0,.03,0,.06,0,.1,0,.02,0,.03,0,.05,0,.03,0,.06,0,.1,0,.02,0,.03,0,.05,0,.03,0,.06,0,.1,0,.02,0,.03,0,.05,0,.03,0,.06,0,.1,0,.02,0,.03,0,.05,0,.03,0,.06,0,.1,0,.02,0,.03,0,.05,0,.03,0,.06,0,.1,0,.02,0,.03,0,.05,0,.03,0,.06,0,.1,0,.02,0,.03,0,.05,0,.03,0,.06,0,.1,0,.02,0,.03,0,.05,0,.03,0,.06,0,.1,0,.02,0,.03,0,.05,0,.03,0,.06,0,.1,0,.02,0,.03,0,.05,0,.03,0,.06,0,.1,0,.02,0,.03,0,.05,0,.03,0,.06,0,.1,0,.02,0,.03,0,.05,0,.03,0,.06,0,.1,0,.02,0,.03,0,.05,0,.03,0,.06,0,.1,0,.02,0,.03,0,.05,0,.03,0,.06,0,.1,0,.02,0,.03,0,.05,0,.03,0,.06,0,.1,0,.02,0,.03,0,.05,0,.03,0,.06,0,.1,0,.02,0,.03,0,.05,0,.03,0,.06,0,.1,0,.02,0,.03,0,.05,0,.03,0,.06,0,.1,0,.02,0,.03,0,.05,0,.03,0,.06,0,.1,0,.02,0,.03,0,.05,0,.03,0,.06,0,.1,0,.02,0,.03,0,.05,0,.03,0,.06,0,.1,0,.02,0,.03,0,.05,0,.03,0,.06,0,.1,0,.02,0,.03,0,.05,0,.03,0,.06,0,.1,0,.02,0,.03,0,.05,0,.03,0,.06,0,.1,0,.02,0,.03,0,.05,0,.03,0,.06,0,.1,0,.02,0,.03,0,.05,0,.03,0,.06,0,.1,0,.02,0,.03,0,.05,0,.03,0,.06,0,.1,0,.02,0,.03,0,.05,0,.03,0,.06,0,.1,0,.02,0,.03,0,.05,0,.03,0,.06,0,.1,0,.02,0,.03,0,.05,0,.03,0,.06,0,.1,0,.02,0,.03,0,.05,0,.03,0,.06,0,.1,0,.02,0,.03,0,.05,0,.03,0,.06,0,.1,0,.02,0,.03,0,.05,0,.03,0,.06,0,.1,0,.02,0,.03,0,.05,0,.03,0,.06,0,.1,0,.02,0,.03,0,.05,0,.03,0,.06,0,.1,0,.02,0,.03,0,.05,0,.03,0,.06,0,.1,0,.02,0,.03,0,.05,0,.03,0,.06,0,.1,0,.02,0,.03,0,.05,0,.03,0,.06,0,.1,0,.02,0,.03,0,.05,0,.03,0,.06,0,.1,0,.02,0,.03,0,.05,0,.03,0,.06,0,.1,0,.02,0,.03,0,.05,0,.03,0,.06,0,.1,0,.02,0,.03,0,.05,0,.03,0,.06,0,.1,0,.02,0,.03,0,.05,0,.03,0,.06,0,.1,0,.02,0,.03,0,.05,0,.03,0,.06,0,.1,0,.02,0,.03,0,.05,0,.03,0,.06,0,.1,0,.02,0,.03,0,.05,0,.03,0,.06,0,.1,0,.02,0,.03,0,.05,0,.03,0,.06,0,.1,0,.02,0,.03,0,.05,0,.03,0,.06,0,.1,0,.02,0,.03,0,.05,0,.03,0,.06,0,.1,0,.02,0,.03,0,.05,0,.03,0,.06,0,.1,0,.02,0,.03,0,.05,0,.03,0,.06,0,.1,0,.02,0,.03,0,.05,0,.03,0,.06,0,.1,0,.02,0,.03,0,.05,0,.03,0,.06,0,.1,0,.02,0,.03,0,.05,0,.03,0,.06,0,.1,0,.02,0,.03,0,.05,0,.03,0,.06,0,.1,0,.02,0,.03,0,.05,0,.03,0,.06,0,.1,0,.02,0,.03,0,.05,0,.03,0,.06,0,.1,0,.02,0,.03,0,.05,0,.03,0,.06,0,.1,0,.02,0,.03,0,.05,0,.03,0,.06,0,.1,0,.02,0,.03,0,.05,0,.03,0,.06,0,.1,0,.02,0,.03,0,.05,0,.03,0,.06,0,.1,0,.02,0,.03,0,.05,0,.03,0,.06,0,.1,0,.02,0,.03,0,.05,0,.03,0,.06,0,.1,0,.02,0,.03,0,.05,0,.03,0,.06,0,.1,0,.02,0,.03,0,.05,0,.03,0,.06,0,.1,0,.02,0,.03,0,.05,0,.03,0,.06,0,.1,0,.02,0,.03,0,.05,0,.03,0,.06,0,.1,0,.02,0,.03,0,.05,0,.03,0,.06,0,.1,0,.02,0,.03,0,.05,0,.03,0,.06,0,.1,0,.02,0,.03,0,.05,0,.03,0,.06,0,.1,0,.02,0,.03,0,.05,0,.03,0,.06,0,.1,0,.02,0,.03,0,.05,0,.03,0,.06,0,.1,0,.02,0,.03,0,.05,0,.03,0,.06,0,.1,0,.02,0,.03,0,.05,0,.03,0,.06,0,.1,0,.02,0,.03,0,.05,0,.03,0,.06,0,.1,0,.02,0,.03,0,.05,0,.03,0,.06,0,.1,0,.02,0,.03,0,.05,0,.03,0,.06,0,.1,0,.02,0,.03,0,.05,0,.03,0,.06,0,.1,0,.02,0,.03,0,.05,0,.03,0,.06,0,.1,0,.02,0,.03,0,.05,0,.03,0,.06,0,.1,0,.02,0,.03,0,.05,0,.03,0,.06,0,.1,0,.02,0,.03,0,.05,0,.03,0,.06,0,.1,0,.02,0,.03,0,.05,0,.03,0,.06,0,.1,0,.02,0,.03,0,.05,0,.03,0,.06,0,.1,0,.02,0,.03,0,.05,0,.03,0,.06,0,.1,0,.02,0,.03,0,.05,0,.03,0,.06,0,.1,0,.02,0,.03,0,.05,0,.03,0,.06,0,.1,0,.02,0,.03,0,.05,0,.03,0,.06,0,.1,0,.02,0,.03,0,.05,0,.03,0,.06,0,.1,0,.02,0,.03,0,.05,0,.03,0,.06,0,.1,0,.02,0,.03,0,.05,0,.03,0,.06,0,.1,0,.02,0,.03,0,.05,0,.03,0,.06,0,.1,0,.02,0,.03,0,.05,0,.01,0,.02,0,.03-.6.83-1.36,1.4-2.32,1.73l-103.96,35.84c-2.11.73-3.68,1.13-5.48,1.03-.96-.05-1.78-.53-1.83-.81,0-.03,0-.11,0-.14,0-.03,0-.12,0-.15,0-.03,0-.12,0-.15,0-.03,0-.12,0-.15,0-.03,0-.12,0-.15,0-.03,0-.12,0-.15,0-.03,0-.12,0-.15,0-.03,0-.12,0-.15,0-.03,0-.12,0-.15,0-.03,0-.12,0-.15,0-.03,0-.12,0-.15,0-.03,0-.12,0-.15,0-.03,0-.12,0-.15,0-.03,0-.12,0-.15,0-.03,0-.12,0-.15,0-.03,0-.12,0-.15,0-.03,0-.12,0-.15,0-.03,0-.12,0-.15,0-.03,0-.12,0-.15,0-.03,0-.12,0-.15,0-.03,0-.12,0-.15,0-.03,0-.12,0-.15,0-.03,0-.12,0-.15,0-.03,0-.12,0-.15,0-.03,0-.12,0-.15,0-.03,0-.12,0-.15,0-.03,0-.12,0-.15,0-.03,0-.12,0-.15,0-.03,0-.12,0-.15,0-.03,0-.12,0-.15,0-.03,0-.12,0-.15,0-.03,0-.12,0-.15,0-.03,0-.12,0-.15,0-.03,0-.12,0-.15,0-.03,0-.12,0-.15,0-.03,0-.12,0-.15,0-.03,0-.12,0-.15,0-.03,0-.12,0-.15,0-.03,0-.12,0-.15,0-.03,0-.12,0-.15,0-.03,0-.12,0-.15,0-.03,0-.12,0-.15,0-.03,0-.12,0-.15,0-.03,0-.12,0-.15,0-.03,0-.12,0-.15,0-.03,0-.12,0-.15,0-.03,0-.12,0-.15,0-.03,0-.12,0-.15,0-.03,0-.12,0-.15,0-.03,0-.12,0-.15,0-.03,0-.12,0-.15,0-.03,0-.12,0-.15,0-.03,0-.12,0-.15,0-.03,0-.12,0-.15,0-.03,0-.12,0-.15,0-.03,0-.12,0-.15,0-.03,0-.12,0-.15,0-.03,0-.12,0-.15,0-.03,0-.12,0-.15,0-.03,0-.12,0-.15,0-.03,0-.12,0-.15,0-.03,0-.12,0-.15,0-.03,0-.12,0-.15,0-.03,0-.12,0-.15,0-.03,0-.12,0-.15,0-.03,0-.12,0-.15,0-.03,0-.12,0-.15,0-.03,0-.12,0-.15,0-.03,0-.12,0-.15,0-.03,0-.12,0-.15,0-.03,0-.12,0-.15,0-.03,0-.12,0-.15,0-.03,0-.12,0-.15,0-.03,0-.12,0-.15,0-.03,0-.12,0-.15,0-.03,0-.12,0-.15,0-.03,0-.12,0-.15,0-.03,0-.12,0-.15,0-.03,0-.12,0-.15,0-.03,0-.12,0-.15,0-.03,0-.12,0-.15,0-.03,0-.12,0-.15,0-.03,0-.12,0-.15,0-.03,0-.12,0-.15,0-.03,0-.12,0-.15,0-.03,0-.12,0-.15,0-.03,0-.12,0-.15,0-.03,0-.12,0-.15,0-.03,0-.12,0-.15,0-.03,0-.12,0-.15,0-.03,0-.12,0-.15,0-.03,0-.12,0-.15,0-.03,0-.12,0-.15,0-.03,0-.12,0-.15,0-.03,0-.12,0-.15,0-.03,0-.12,0-.15,0-.03,0-.12,0-.15,0-.03,0-.12,0-.15,0-.03,0-.12,0-.15,0-.03,0-.12,0-.15,0-.03,0-.12,0-.15,0-.03,0-.12,0-.15,0-.03,0-.12,0-.15,0-.03,0-.12,0-.15,0-.03,0-.12,0-.15,0-.03,0-.12,0-.15,0-.03,0-.12,0-.15,0-.03,0-.12,0-.15,0-.03,0-.12,0-.15,0-.03,0-.12,0-.15,0-.03,0-.12,0-.15,0-.03,0-.12,0-.15,0-.03,0-.12,0-.15,0-.03,0-.12,0-.15,0-.03,0-.12,0-.15,0-.03,0-.12,0-.15,0-.03,0-.12,0-.15,0-.03,0-.12,0-.15,0-.03,0-.12,0-.15,0-.03,0-.12,0-.15,0-.03,0-.12,0-.15,0-.03,0-.12,0-.15,0-.03,0-.12,0-.15,0-.03,0-.12,0-.15,0-.03,0-.12,0-.15,0-.03,0-.12,0-.15,0-.03,0-.12,0-.15,0-.03,0-.12,0-.15,0-.03,0-.12,0-.15,0-.03,0-.12,0-.15,0-.03,0-.12,0-.15,0-.03,0-.12,0-.15,0-.03,0-.12,0-.15,0-.03,0-.12,0-.15,0-.03,0-.12,0-.15,0-.03,0-.12,0-.15,0-.03,0-.12,0-.15,0-.03,0-.12,0-.15,0-.03,0-.12,0-.15,0-.03,0-.12,0-.15,0-.03,0-.12,0-.15,0-.03,0-.12,0-.15,0-.03,0-.12,0-.15,0-.03,0-.12,0-.15,0-.03,0-.12,0-.15,0-.03,0-.12,0-.15,0-.03,0-.12,0-.15,0-.03,0-.12,0-.15,0-.03,0-.12,0-.15,0-.03,0-.12,0-.15,0-.03,0-.12,0-.15,0-.03,0-.12,0-.15,0-.03,0-.12,0-.15,0-.03,0-.12,0-.15,0-.03,0-.12,0-.15,0-.03,0-.12,0-.15,0-.03,0-.12,0-.15,0-.03,0-.12,0-.15,0-.03,0-.12,0-.15,0-.03,0-.12,0-.15,0-.03,0-.12,0-.15,0-.03,0-.12,0-.15,0-.03,0-.12,0-.15,0-.03,0-.12,0-.15,0-.03,0-.12,0-.15,0-.03,0-.12,0-.15,0-.03,0-.12,0-.15,0-.03,0-.12,0-.15,0-.03,0-.12,0-.15,0-.03,0-.12,0-.15,0-.03,0-.12,0-.15,0-.03,0-.12,0-.15,0-.03,0-.12,0-.15,0-.03,0-.12,0-.15,0-.03,0-.12,0-.15,0-.03,0-.12,0-.15,0-.03,0-.12,0-.15,0-.03,0-.12,0-.15,0-.03,0-.12,0-.15,0-.03,0-.12,0-.15,0-.03,0-.12,0-.15,0-.03,0-.12,0-.15,0-.03,0-.12,0-.15,0-.03,0-.12,0-.15,0-.03,0-.12,0-.15,0-.03,0-.12,0-.15,0-.03,0-.12,0-.15,0-.03,0-.12,0-.15,0-.03,0-.12,0-.15,0-.03,0-.12,0-.15,0-.03,0-.12,0-.15,0-.03,0-.12,0-.15,0-.03,0-.12,0-.15,0-.03,0-.12,0-.15,0-.03,0-.12,0-.15,0-.03,0-.12,0-.15,0-.03,0-.12,0-.15,0-.03,0-.12,0-.15,0-.03,0-.12,0-.15,0-.03,0-.12,0-.15,0-.03,0-.12,0-.15,0-.03,0-.12,0-.15,0-.03,0-.12,0-.15,0-.03,0-.12,0-.15,0-.03,0-.12,0-.15,0-.03,0-.12,0-.15,0-.03,0-.12,0-.15,0-.03,0-.12,0-.15,0-.03,0-.12,0-.15,0-.03,0-.12,0-.15,0-.03,0-.12,0-.15,0-.03,0-.12,0-.15,0-.03,0-.12,0-.15,0-.03,0-.12,0-.15,0-.03,0-.12,0-.15,0-.03,0-.12,0-.15,0-.03,0-.12,0-.15,0-.03,0-.12,0-.15,0-.03,0-.12,0-.15,0-.03,0-.12,0-.15,0-.03,0-.12,0-.15,0-.03,0-.12,0-.15,0-.03,0-.12,0-.15,0-.03,0-.12,0-.15,0-.03,0-.12,0-.15,0-.03,0-.12,0-.15,0-.03,0-.12,0-.15,0-.03,0-.12,0-.15,0-.03,0-.12,0-.15,0-.03,0-.12,0-.15,0-.03,0-.12,0-.15,0-.03,0-.12,0-.15,0-.03,0-.12,0-.15,0-.03,0-.12,0-.15,0-.03,0-.13,0-.16,0-.04,0-.09,0-.13v-35.24c2.31-.19,6-1.66,7.92-2.32l103.96-35.84c.65-.22,1.22-.53,1.73-.9,0,.03,0,.06,0,.08,0,.02,0,.03,0,.05Z"/>
        <g>
          <path class="cls-1" d="M337.22,67.98v6.61h-29.46c-5.86,0-10.09,3.34-10.09,9.27,0,9.07,12.55,13.37,24.28,8.18v6.14c-14.93,7.02-30.89-.2-30.89-14.32,0-9.61,7.16-15.89,16.64-15.89h16.03c-1.23-1.09-2.8-5.18-4.77-9.41-5.39-10.91-13.02-14.52-22.3-10.64v-6c11.8-4.5,22.84.68,29.53,15.82,4.09,9.82,5.46,9.89,7.3,10.23h3.75ZM311.24,79.64c2.25,0,4.09,1.84,4.09,4.02s-1.84,4.09-4.09,4.09-4.09-1.84-4.09-4.09,1.91-4.02,4.09-4.02Z"/>
          <path class="cls-1" d="M349.09,67.98v6.61h-13.3v-6.61h13.3Z"/>
          <path class="cls-1" d="M370.36,67.98v6.61h-3.14c-3.14,0-5.86-1.57-7.84-3.82-1.77,2.25-4.5,3.82-8.59,3.82h-2.59l-2.86-1.09v-4.43l2.86-1.09h2.66c3.82,0,5.25-2.45,5.32-5.52l-.07-20.12h6.61v19.98c0,3.14,1.5,5.66,5.39,5.66h2.25ZM354.75,32.79c0-2.18,1.84-4.09,4.09-4.09s4.02,1.91,4.02,4.09-1.84,4.09-4.02,4.09-4.09-1.84-4.09-4.09Z"/>
          <path class="cls-1" d="M382.3,67.98v6.61h-13.3v-6.61h13.3Z"/>
          <path class="cls-1" d="M426.15,67.98v6.61h-2.25c-4.09,0-7.5-2.05-9.14-5.18-2.32,2.93-5.93,4.91-10.02,4.91-4.43,0-8.59-1.57-11.59-4.43-1.84,2.86-5.11,4.71-9,4.71h-2.66l-2.8-1.09v-4.43l2.8-1.09h2.66c3.07,0,5.11-2.11,5.11-5.11v-8.52c0-8.18,6.21-14.39,14.39-14.39h.75c8.18,0,14.39,6.21,14.39,14.39v8.52c0,3,2.05,5.11,5.11,5.11h2.25ZM412.17,59.93v-5.59c0-4.64-3.21-7.84-7.77-7.84h-.75c-4.57,0-7.77,3.2-7.77,7.84v9.21c1.98,2.66,5.25,4.23,8.86,4.23,4.02,0,7.43-3.55,7.43-7.84Z"/>
          <path class="cls-1" d="M438.08,67.98v6.61h-13.3v-6.61h13.3Z"/>
          <path class="cls-1" d="M465.98,67.98v6.61h-6.27c-3.07,0-5.8-1.57-7.77-3.82-1.84,2.25-4.57,3.82-8.66,3.82h-6.07l-2.86-1.09v-4.43l2.86-1.09h6.14c3.96,0,5.32-2.52,5.32-5.66v-19.98h6.61v17.59c0,.55,0,1.09-.07,1.7v.68c0,3.14,1.5,5.66,5.39,5.66h5.39ZM448.86,84.96c0,2.25-1.84,4.09-4.09,4.09s-4.09-1.84-4.09-4.09,1.91-4.02,4.09-4.02,4.09,1.84,4.09,4.02ZM461.07,84.96c0,2.25-1.84,4.09-4.09,4.09s-4.09-1.84-4.09-4.09,1.91-4.02,4.09-4.02,4.09,1.84,4.09,4.02Z"/>
          <path class="cls-1" d="M477.91,67.98v6.61h-13.3v-6.61h13.3Z"/>
          <path class="cls-1" d="M517.4,67.98v6.61h-40.23l-2.86-1.09v-4.43l2.86-1.09h30.48c-1.23-1.09-2.8-5.18-4.77-9.41-5.39-10.91-12.14-14.59-22.3-10.64v-6c11.73-4.5,22.71.68,29.46,15.82,4.16,9.82,5.52,9.96,7.36,10.23ZM499.94,84.41c0,2.25-1.84,4.09-4.09,4.09s-4.09-1.84-4.09-4.09,1.91-4.09,4.09-4.09,4.09,1.91,4.09,4.09Z"/>
          <path class="cls-1" d="M582.45,67.98v6.61h-1.98c-3.68,0-6.75-1.7-8.52-4.43-2.32,3.41-6.34,5.52-11.05,5.52-5.52,0-9.48-1.5-12.62-4.84-3.55.27-5.59,2.66-5.59,6v15.34h-6.55v-15.34c0-6.34,4.16-11.25,10.09-12.27l.07-10.16c0-8.32,6.21-14.59,14.59-14.59s14.59,6.21,14.59,14.59v8.52c0,3,2.05,5.05,4.98,5.05h1.98ZM568.95,61.02v-6.61c0-4.71-3.27-8.05-8.05-8.05s-8.05,3.34-8.05,8.05v11.66c1.84,2.18,4.09,3,8.05,3,4.77,0,8.05-3.27,8.05-8.05Z"/>
          <path class="cls-1" d="M594.87,67.98v6.61h-13.3v-6.61h13.3Z"/>
          <path class="cls-1" d="M607.83,27.13v39.89c0,4.3-3.34,7.57-7.57,7.57h-6.14l-2.86-1.09v-4.43l2.86-1.02v-.07h4.09c1.5,0,3-1.02,3-3.2V27.13h6.61Z"/>
          <path class="cls-1" d="M623.72,27.13v37.64c0,2.18,1.5,3.2,3.07,3.2h4.02v6.61h-6.07c-4.3,0-7.64-3.27-7.64-7.57V27.13h6.61Z"/>
          <path class="cls-1" d="M642.88,67.98v6.61h-13.3v-6.61h13.3Z"/>
          <path class="cls-1" d="M675,67.98v6.61h-32.94l-2.8-1.09v-4.43l2.8-1.02v-.07h7.84c-2.59-2.52-4.02-6.21-4.02-10.91,0-17.05,14.46-20.73,26.19-16.3v6c-9.68-3.75-18.96-1.09-18.96,10.43,0,8.52,4.98,10.77,11.25,10.77h10.64Z"/>
          <path class="cls-1" d="M294.2,152.75c-2.08,0-3.82-.22-5.4-.56l.62-4.95c1.24.22,2.08.34,3.15.34,2.92,0,3.82-2.14,3.82-4.61v-29.34h6.13v29.62c0,6.46-2.75,9.5-8.32,9.5Z"/>
          <path class="cls-1" d="M341.07,152.19h-6.29l-3.32-9.83h-14.61l-3.32,9.83h-6.07l14.5-38.83h5.06l14.05,38.83ZM330.33,137.74l-6.13-17.87-6.24,17.87h12.36Z"/>
          <path class="cls-1" d="M383.89,113.64v38.55h-6.18l.11-29.28-11.3,22.99h-4.27l-11.3-22.99.17,29.28h-5.68v-38.55h7.59l6.74,13.88,4.95,10.4,4.89-10.4,6.58-13.88h7.7Z"/>
          <path class="cls-1" d="M391.19,113.64h6.18v38.55h-6.18v-38.55Z"/>
          <path class="cls-1" d="M434.91,113.52v38.5h-5.96l-18.77-27.82.17,27.82h-5.68v-38.5h5.62l19.11,28.38-.11-28.38h5.62Z"/>
          <path class="cls-1" d="M471.16,133.14v16.75c-4.1,1.8-8.43,2.87-12.87,2.87-11.8,0-16.92-7.81-16.92-19.84s5.11-19.84,16.92-19.84c4.44,0,8.54,1.07,12.64,2.81v5c-4.27-1.74-8.32-2.64-11.97-2.64-7.47,0-11.41,4.95-11.41,14.67s4.16,14.67,10.9,14.67c1.85,0,3.88-.28,6.58-1.12v-13.32h6.13Z"/>
          <path class="cls-1" d="M536.74,113.64l-10.23,38.83h-7.19l-7.64-28.72-7.64,28.72h-7.14l-10.28-38.83h6.35l5.17,19.61,2.64,10.85,2.58-10.85,5.17-19.61h6.58l5.28,19.61,2.64,10.85,2.53-10.85,5.11-19.61h6.07Z"/>
          <path class="cls-1" d="M539.16,132.74c0-11.91,5.28-19.67,16.52-19.67s16.52,7.76,16.52,19.67-5.23,20.01-16.52,20.01-16.52-7.87-16.52-20.01ZM566.07,132.74c0-9.55-3.54-14.5-10.4-14.5s-10.34,4.95-10.34,14.5c0,8.09,2.53,14.84,10.34,14.84s10.4-6.74,10.4-14.84Z"/>
          <path class="cls-1" d="M608.45,152.19h-6.97l-8.54-14.95h-8.09v14.95h-6.18v-38.55h16.02c7.36,0,12.42,4.61,12.42,11.8,0,5.79-3.04,9.72-7.98,11.01l9.33,15.74ZM594.12,132.12c3.99,0,6.8-2.25,6.8-6.69s-2.98-6.63-6.74-6.63h-9.33v13.32h9.27Z"/>
          <path class="cls-1" d="M619.57,147.02h18.26v5.17h-24.45v-38.55h6.18v33.38Z"/>
          <path class="cls-1" d="M642.56,113.64h13.99c11.35,0,16.52,7.31,16.52,19.11s-5.17,19.44-16.52,19.44h-13.99v-38.55ZM666.95,132.74c0-9.44-3.48-13.94-10.4-13.94h-7.87v28.21h7.87c6.86,0,10.4-4.72,10.4-14.27Z"/>
        </g>
      </g>
    </a>
  </g>
</svg>