<?xml version="1.0" encoding="UTF-8"?>
<svg id="Layer_2" data-name="Layer 2" xmlns="http://www.w3.org/2000/svg" viewBox="0 0 167.79 63.7">
  <defs>
    <style>
      .cls-1 {
        fill: #ffffff;
      }
    </style>
  </defs>
  <g id="Layer_1-2" data-name="Layer 1">
    <g>
      <path class="cls-1" d="M28.78,41.49c-.07-.74-.1-1.24-.1-1.49,0-.68.08-1.28.24-1.8.16-.52.43-1.18.83-1.99l3.1-6.24,2.18-4.41L30.82,0l-8.32,11.62,4.78,30.46,1.51-.59h-.01Z"/>
      <path class="cls-1" d="M80.46,17.09l-2.58-6.61c-.31-.74-.81-1.11-1.49-1.11-.2,0-.36.02-.47.05-.12.03-.19.07-.22.12l-6.76,2.58,3.24,8.17,8.27-3.19h.01Z"/>
      <path class="cls-1" d="M87.72,31.29c-.64-.58-1.34-1.47-2.08-2.67-.74-1.16-1.44-2.1-2.08-2.82-.64-.73-1.55-1.35-2.71-1.86s-2.63-.77-4.4-.77c-1.42,0-2.99.17-4.71.52l-2.33,10.7-.1.4-1.68,7.78c-5,2.3-9.91,4.25-14.71,5.87l.03.08c-3.75,1.38-6.97,2.52-9.64,3.4-2.72.9-4.59,1.35-5.6,1.35-.38,0-.59-.07-.62-.2l-.67-1.49c11.34-4.84,17.71-8.57,19.09-11.19,1.14-2.13,2.3-4.43,3.49-6.9,1.19-2.47,1.95-4.07,2.28-4.82-2.39-3.76-5.23-6.3-8.52-7.62-3.29-1.31-6.35-1.97-9.19-1.97-.46,0-.85.02-1.15.05-.31.03-.49.05-.56.05l-11.42,22.71c-.99.41-2.57,1.11-4.73,2.08-2.16.94-4.22,1.82-6.18,2.64-1.96.82-3.61,1.42-4.97,1.82-5.89,1.9-10.75,3.35-14.56,4.36l15.58,6.91,3.1-1.06c5.65-2.13,11.05-4.26,16.22-6.39l4.83,11.42c0,.07.58,0,1.75-.21,1.16-.21,3.05-.68,5.65-1.42s5.96-1.87,10.09-3.39l-.03-.08c2.79-1.01,5.37-1.98,7.73-2.92l-1.41,6.64h1.68l1.51-7.41c5.04-2.01,9.52-4.05,13.46-6.12,3.94-2.06,6.32-3.85,7.14-5.37l5.77-11.74c-1.01.35-1.92.52-2.75.52-1.11,0-1.98-.29-2.62-.87h.02ZM32.94,40.72l5.62-11.27c.15-.07.47-.16.95-.27.49-.12,1.05-.17,1.7-.17,2.51,0,4.71,1.06,6.59,3.19-.74,1.09-2.49,2.44-5.25,4.06s-5.96,3.1-9.61,4.46ZM75.36,38.8c-1.5.98-3.45,1.98-5.84,2.98l1.61-8.07s.13,0,.28-.02c.16-.02.35-.02.58-.02,1.06,0,2.15.21,3.28.64s2.07,1.23,2.81,2.4c-.31.41-1.22,1.11-2.72,2.09h0Z"/>
      <path class="cls-1" d="M148.49,31.86s.03-.04.03-.06l-.03.06Z"/>
      <path class="cls-1" d="M126.5,19.47l4.11,4.11c-.3-.61-.56-1.2-.78-1.76s-.37-.91-.43-1.04l-7.31-7.7c-.23-.26-.5-.4-.82-.4-.36,0-.71.17-1.05.5s-.61.69-.82,1.06c-.21.38-.34.62-.41.72l-6.19,9.78,6.24,6.59,7.45-11.86h.01Z"/>
      <path class="cls-1" d="M167.71,38.34c-.45-2.03-1.25-3.52-2.41-4.47s-2.45-1.52-3.85-1.72c-1.4-.2-3.28-.31-5.62-.35l-2.63,12.36c-.61.31-2.34,1-5.18,2.07s-4.94,1.8-6.29,2.19h0c-.81.21-1.47.32-1.98.32-.64,0-1.19-.14-1.63-.42,1.73-.78,2.78-1.42,3.15-1.93.25-.36.57-.95.98-1.76.4-.81.66-1.34.76-1.59l5.49-11.19c-.17.23-1.23.88-3.17,1.94-2.13,1.16-6.41,2.98-12.85,5.45-6.01,2.31-14.39,5.12-25.14,8.46l-6.38-40.05-7.85,10.95,6.64,42.87c.41,0,2.07-.47,4.98-1.4,2.91-.93,4.36-1.42,4.36-1.45h0l11.86-4.11c1.29-.45,3.5-1.21,6.65-2.29,3.15-1.08,5.59-1.96,7.34-2.64l4.48,11.27,6.39-2.23h0c4.52-1.55,8.57-3.19,12.14-4.92,3.57-1.73,5.78-3.12,6.64-4.17.84-1.01,1.59-2.65,2.23-4.94.64-2.29.97-4.12.97-5.49,0-.38-.02-.64-.05-.77h-.03Z"/>
    </g>
  </g>
</svg>