<?xml version="1.0" encoding="UTF-8"?>
<svg id="Layer_2" data-name="Layer 2" xmlns="http://www.w3.org/2000/svg" viewBox="0 0 181.83 87.37">
  <defs>
    <style>
      .cls-1 {
        fill: #ffffff;
      }
    </style>
  </defs>
  <g id="Layer_1-2" data-name="Layer 1">
    <path class="cls-1" d="M180.77,87.08c-.32.19-.68.29-1.05.29h-28.8c-.72,0-1.4-.37-1.78-.98,0,0-.04-.04-.05-.07-.02-.02-.03-.05-.04-.08l-31.06-53.8-.19-.33c-.4-.56-1.04-.9-1.73-.9-.7,0-1.35.35-1.74.93-.04.06-.08.12-.11.19l-31.13,53.92s-.03.08-.06.11c-.18.3-.43.55-.73.72-.32.19-.68.29-1.05.29h-28.8c-1.16,0-2.1-.96-2.09-2.13,0-.34.09-.68.25-.99l13.15-22.72c.06-.08.11-.17.15-.26.52-1.04.09-2.3-.95-2.82-.29-.14-.61-.22-.93-.22h-28.8c-.72,0-1.4-.37-1.78-.98l-.05-.07s0-.05,0-.08L.28,3.16C-.3,2.15.05.86,1.06.28,1.38.09,1.74,0,2.11,0h28.8c.72,0,1.39.37,1.77.98.02.02.04.04.05.07.02.02.03.05.04.08l31.08,53.83c.04.09.1.19.16.27h0c.66.96,1.98,1.2,2.93.54.21-.15.39-.33.54-.54.04-.06.07-.12.1-.19L98.7,1.12s.03-.08.05-.11c.18-.3.44-.55.74-.73.32-.19.68-.28,1.05-.28h28.8c1.16,0,2.1.95,2.1,2.11,0,.35-.09.7-.26,1.01l-13.16,22.7c-.05.08-.1.16-.15.24-.52,1.04-.11,2.3.93,2.82.3.15.63.23.96.23h28.8c.72,0,1.39.37,1.77.98.02.02.04.04.05.07.02.02.03.05.04.08l31.13,53.96c.59,1,.25,2.29-.75,2.88,0,0-.01,0-.02.01Z"/>
  </g>
</svg>